SplineFontDB: 3.2
FontName: PhotonicoCode-Regular
FullName: Photonico Code Regular
FamilyName: Photonico Code
Weight: Regular
Copyright: Copyright 2022-2027 Lu Niu (https://github.com/Photonico)
Version: 1.4
ItalicAngle: 0
UnderlinePosition: -125
UnderlineWidth: 50
Ascent: 1560
Descent: 390
InvalidEm: 0
sfntRevision: 0x0000199a
LayerCount: 6
Layer: 0 1 "Back" 1
Layer: 1 0 "Fore" 0
Layer: 2 0 "Wo" 1
Layer: 3 0 "wd" 1
Layer: 4 0 "we" 1
Layer: 5 0 "wb" 1
XUID: [1021 350 -1293522647 13888384]
StyleMap: 0x0040
FSType: 0
OS2Version: 4
OS2_WeightWidthSlopeOnly: 0
OS2_UseTypoMetrics: 1
CreationTime: 1638550126
ModificationTime: 1668360139
PfmFamily: 17
TTFWeight: 400
TTFWidth: 5
LineGap: 0
VLineGap: 0
Panose: 0 0 0 0 0 0 0 0 0 0
OS2TypoAscent: 1800
OS2TypoAOffset: 0
OS2TypoDescent: -600
OS2TypoDOffset: 0
OS2TypoLinegap: 0
OS2WinAscent: 1800
OS2WinAOffset: 0
OS2WinDescent: 600
OS2WinDOffset: 0
HheadAscent: 1800
HheadAOffset: 0
HheadDescent: -600
HheadDOffset: 0
OS2SubXSize: 1268
OS2SubYSize: 1170
OS2SubXOff: 0
OS2SubYOff: 146
OS2SupXSize: 1268
OS2SupYSize: 1170
OS2SupXOff: 0
OS2SupYOff: 683
OS2StrikeYSize: 50
OS2StrikeYPos: 318
OS2CapHeight: 1377
OS2XHeight: 1053
OS2Vendor: 'CTDB'
OS2CodePages: 6000009f.dfd70000
OS2UnicodeRanges: e00002ef.1201f9fb.02002038.00000000
Lookup: 1 0 0 "'aalt' Access All Alternates lookup 0" { "'aalt' Access All Alternates lookup 0 subtable"  } ['aalt' ('DFLT' <'dflt' > 'cyrl' <'dflt' > 'grek' <'dflt' > 'latn' <'AFK ' 'AZE ' 'CAT ' 'CRT ' 'KAZ ' 'MOL ' 'PLK ' 'ROM ' 'TAT ' 'TRK ' 'dflt' > 'zinh' <'dflt' > 'zyyy' <'dflt' > ) ]
Lookup: 3 0 0 "'aalt' Access All Alternates lookup 1" { "'aalt' Access All Alternates lookup 1 subtable"  } ['aalt' ('DFLT' <'dflt' > 'cyrl' <'dflt' > 'grek' <'dflt' > 'latn' <'AFK ' 'AZE ' 'CAT ' 'CRT ' 'KAZ ' 'MOL ' 'PLK ' 'ROM ' 'TAT ' 'TRK ' 'dflt' > 'zinh' <'dflt' > 'zyyy' <'dflt' > ) ]

StartChar: .notdef
Encoding: 193 -1 0
Width: 1200
GlyphClass: 1
Flags: HW
LayerCount: 6
Fore
SplineSet
80 1430 m 2
 80 1444 84.8333333333 1455.83333333 94.5 1465.5 c 128
 104.166666667 1475.16666667 116 1480 130 1480 c 2
 1070 1480 l 2
 1084 1480 1095.83333333 1475.16666667 1105.5 1465.5 c 128
 1115.16666667 1455.83333333 1120 1444 1120 1430 c 2
 1120 -50 l 2
 1120 -64 1115.16666667 -75.8333333333 1105.5 -85.5 c 128
 1095.83333333 -95.1666666667 1084 -100 1070 -100 c 2
 130 -100 l 2
 116 -100 104.166666667 -95.1666666667 94.5 -85.5 c 128
 84.8333333333 -75.8333333333 80 -64 80 -50 c 2
 80 1430 l 2
970 0 m 2
 984 0 995.833333333 4.83333333333 1005.5 14.5 c 128
 1015.16666667 24.1666666667 1020 36 1020 50 c 2
 1020 1330 l 2
 1020 1344 1015.16666667 1355.83333333 1005.5 1365.5 c 128
 995.833333333 1375.16666667 984 1380 970 1380 c 2
 230 1380 l 2
 216 1380 204.166666667 1375.16666667 194.5 1365.5 c 128
 184.833333333 1355.83333333 180 1344 180 1330 c 2
 180 50 l 2
 180 36 184.833333333 24.1666666667 194.5 14.5 c 128
 204.166666667 4.83333333333 216 0 230 0 c 2
 970 0 l 2
496 816 m 0
 498 811.333333333 499 806 499 800 c 0
 499 786 494.166666667 774.166666667 484.5 764.5 c 128
 474.833333333 754.833333333 463 750 449 750 c 0
 425.666666667 750 410 761.333333333 402 784 c 1024
650 560 m 26
 650 540 l 2
 650 526 645.166666667 514.166666667 635.5 504.5 c 128
 625.833333333 494.833333333 614 490 600 490 c 128
 586 490 574.166666667 494.833333333 564.5 504.5 c 128
 554.833333333 514.166666667 550 526 550 540 c 2
 550 560 l 2
 550 588 558.333333333 616.666666667 575 646 c 128
 591.666666667 675.333333333 610 700.166666667 630 720.5 c 128
 650 740.833333333 668.333333333 762.833333333 685 786.5 c 128
 701.666666667 810.166666667 710 831.333333333 710 850 c 0
 710 880.666666667 699.333333333 906.666666667 678 928 c 128
 656.666666667 949.333333333 630.666666667 960 600 960 c 128
 569.333333333 960 543.333333333 949.333333333 522 928 c 128
 500.666666667 906.666666667 490 880.666666667 490 850 c 0
 490 839.333333333 491.666666667 828 495 816 c 0
 497.666666667 809.333333333 499 804 499 800 c 0
 499 786 494.166666667 774.166666667 484.5 764.5 c 128
 474.833333333 754.833333333 463 750 449 750 c 0
 426.333333333 750 411 761.333333333 403 784 c 0
 395.666666667 806 392 828 392 850 c 0
 392 908 412.5 957.5 453.5 998.5 c 128
 494.5 1039.5 544 1060 602 1060 c 128
 660 1060 709.5 1039.5 750.5 998.5 c 128
 791.5 957.5 812 908 812 850 c 0
 812 824.666666667 808 801.666666667 800 781 c 128
 792 760.333333333 782 743.666666667 770 731 c 128
 758 718.333333333 745 705.5 731 692.5 c 128
 717 679.5 704 667.5 692 656.5 c 128
 680 645.5 670 631.666666667 662 615 c 128
 654 598.333333333 650 580 650 560 c 26
525 335 m 128
 525 355.666666667 532.333333333 373.333333333 547 388 c 128
 561.666666667 402.666666667 579.333333333 410 600 410 c 128
 620.666666667 410 638.333333333 402.666666667 653 388 c 128
 667.666666667 373.333333333 675 355.666666667 675 335 c 128
 675 314.333333333 667.666666667 296.666666667 653 282 c 128
 638.333333333 267.333333333 620.666666667 260 600 260 c 128
 579.333333333 260 561.666666667 267.333333333 547 282 c 128
 532.333333333 296.666666667 525 314.333333333 525 335 c 128
EndSplineSet
Validated: 3
Layer: 2
SplineSet
80 1430 m 1
 80 1458 102 1480 130 1480 c 1
 1070 1480 l 1
 1098 1480 1120 1458 1120 1430 c 1
 1120 -50 l 1
 1120 -78 1098 -100 1070 -100 c 1
 130 -100 l 1
 102 -100 80 -78 80 -50 c 1
 80 1430 l 1
970 0 m 1
 998 0 1020 22 1020 50 c 1
 1020 1330 l 1
 1020 1358 998 1380 970 1380 c 1
 230 1380 l 1
 202 1380 180 1358 180 1330 c 1
 180 50 l 1
 180 22 202 0 230 0 c 1
 970 0 l 1
496 816 m 5
 498 811 499 806 499 800 c 4
 499 772 477 750 449 750 c 4
 427 750 409 764 402 784 c 1029
650 560 m 31
 650 553 650 540 650 540 c 5
 650 512 628 490 600 490 c 4
 572 490 550 512 550 540 c 5
 550 540 550 552 550 560 c 28
 550 686 710 765 710 850 c 4
 710 911 661 960 600 960 c 4
 539 960 490 911 490 850 c 4
 490 838 492 827 495 816 c 5
 497 811 499 806 499 800 c 4
 499 772 477 750 449 750 c 4
 427 750 410 764 403 784 c 5
 396 805 392 827 392 850 c 4
 392 966 486 1060 602 1060 c 4
 718 1060 812 966 812 850 c 4
 812 686 650 690 650 560 c 31
525 335 m 4
 525 376 559 410 600 410 c 4
 641 410 675 376 675 335 c 4
 675 294 641 260 600 260 c 4
 559 260 525 294 525 335 c 4
EndSplineSet
EndChar

StartChar: A
Encoding: 35 65 1
Width: 1200
GlyphClass: 2
Flags: HW
AnchorPoint: "Anchor-1" 596 1 basechar 0
AnchorPoint: "Anchor-0" 600 1378 basechar 0
LayerCount: 6
Fore
SplineSet
779.587890625 440 m 5
 420.412109375 440 l 5
 420.412371134 440 340 140 340 140 c 5
 420 140 l 5
 459 140 490 109 490 70 c 7
 490 31 459 0 420 0 c 5
 100 0 l 5
 61 0 30 31 30 70 c 7
 30 109 61 140 100 140 c 5
 195 140 l 5
 497 1267 l 5
 505 1298 531 1320 565 1320 c 4
 600 1320 l 4
 635 1320 l 4
 669 1320 695 1298 703 1267 c 5
 1005 140 l 5
 1100 140 l 5
 1139 140 1170 109 1170 70 c 7
 1170 31 1139 0 1100 0 c 5
 780 0 l 5
 741 0 710 31 710 70 c 7
 710 109 741 140 780 140 c 5
 860 140 l 5
 860 140 779.587628866 440 779.587890625 440 c 5
742.061523438 580 m 5
 742.06185567 580 600 1110 600 1110 c 5
 600 1110 457.93814433 580 457.938476562 580 c 5
 742.061523438 580 l 5
EndSplineSet
Validated: 1048577
Layer: 2
SplineSet
779.587890625 440 m 5
 420.412109375 440 l 5
 420.412371134 440 340 140 340 140 c 5
 420 140 l 5
 459 140 490 109 490 70 c 7
 490 31 459 0 420 0 c 5
 100 0 l 5
 61 0 30 31 30 70 c 7
 30 109 61 140 100 140 c 5
 195 140 l 5
 497 1267 l 5
 505 1298 531 1320 565 1320 c 4
 600 1320 l 4
 635 1320 l 4
 669 1320 695 1298 703 1267 c 5
 1005 140 l 5
 1100 140 l 5
 1139 140 1170 109 1170 70 c 7
 1170 31 1139 0 1100 0 c 5
 780 0 l 5
 741 0 710 31 710 70 c 7
 710 109 741 140 780 140 c 5
 860 140 l 5
 860 140 779.587628866 440 779.587890625 440 c 5
742.061523438 580 m 5
 742.06185567 580 600 1110 600 1110 c 5
 600 1110 457.93814433 580 457.938476562 580 c 5
 742.061523438 580 l 5
EndSplineSet
Layer: 3
SplineSet
703 1266 m 5
 1005 139 l 5
 1100 139 l 5
 1139 139 1170 108 1170 69 c 7
 1170 30 1139 -1 1100 -1 c 5
 780 -1 l 5
 741 -1 710 30 710 69 c 7
 710 108 741 139 780 139 c 5
 860 139 l 5
 780 440 l 1029
EndSplineSet
Substitution2: "Single Substitution lookup 12 subtable" ordfeminine
Substitution2: "'aalt' Access All Alternates lookup 0 subtable" ordfeminine
EndChar

StartChar: Aacute
Encoding: 130 193 2
Width: 1200
GlyphClass: 2
Flags: HW
AnchorPoint: "Anchor-1" 596 0 basechar 0
AnchorPoint: "Anchor-0" 600 1377 basechar 0
LayerCount: 6
Fore
Refer: 1687 -1 S 1 0 0 1 0 0 2
Refer: 1 65 S 1 0 0 1 0 0 3
Validated: 1048577
Layer: 2
SplineSet
745 1791 m 5
 755 1797 767 1800 780 1800 c 4
 821 1800 855 1766 855 1725 c 4
 855 1693 834 1666 806 1655 c 5
 458 1523 l 5
 452 1521 446 1520 440 1520 c 4
 412 1520 390 1542 390 1570 c 4
 390 1589 400 1606 416 1614 c 5
 745 1791 l 5
EndSplineSet
EndChar

StartChar: Acircumflex
Encoding: 131 194 4
Width: 1200
GlyphClass: 2
Flags: HW
AnchorPoint: "Anchor-1" 596 0 basechar 0
AnchorPoint: "Anchor-0" 600 1377 basechar 0
LayerCount: 6
Fore
Refer: 1 65 N 1 0 0 1 0 0 3
Refer: 1689 -1 S 1 0 0 1 0 0 2
Validated: 1048577
Layer: 2
SplineSet
600 1810 m 4
 616 1810 630 1805 642 1796 c 5
 910 1590 l 5
 922 1581 930 1567 930 1550 c 4
 930 1522 908 1500 880 1500 c 4
 870 1500 862 1503 854 1507 c 5
 600 1659 l 5
 346 1507 l 5
 338 1503 330 1500 320 1500 c 4
 292 1500 270 1522 270 1550 c 4
 270 1567 278 1581 290 1590 c 5
 558 1796 l 5
 570 1805 584 1810 600 1810 c 4
EndSplineSet
EndChar

StartChar: Adieresis
Encoding: 133 196 5
Width: 1200
GlyphClass: 2
Flags: HW
AnchorPoint: "Anchor-1" 596 0 basechar 0
AnchorPoint: "Anchor-0" 600 1377 basechar 0
LayerCount: 6
Fore
Refer: 1684 -1 S 1 0 0 1 0 0 2
Refer: 1 65 N 1 0 0 1 0 0 3
Validated: 1048577
Layer: 2
SplineSet
700 1640 m 4
 700 1698 747 1745 805 1745 c 4
 863 1745 910 1698 910 1640 c 4
 910 1582 863 1535 805 1535 c 4
 747 1535 700 1582 700 1640 c 4
290 1640 m 4
 290 1698 337 1745 395 1745 c 4
 453 1745 500 1698 500 1640 c 4
 500 1582 453 1535 395 1535 c 4
 337 1535 290 1582 290 1640 c 4
EndSplineSet
EndChar

StartChar: uni00C0
Encoding: 129 192 6
Width: 1200
GlyphClass: 2
Flags: HW
AnchorPoint: "Anchor-1" 596 0 basechar 0
AnchorPoint: "Anchor-0" 600 1377 basechar 0
LayerCount: 6
Fore
Refer: 1686 -1 S 1 0 0 1 0 0 2
Refer: 1 65 N 1 0 0 1 0 0 3
Validated: 1048585
Layer: 2
SplineSet
455 1791 m 5
 445 1797 433 1800 420 1800 c 4
 379 1800 345 1766 345 1725 c 4
 345 1693 366 1666 394 1655 c 5
 742 1523 l 5
 748 1521 754 1520 760 1520 c 4
 788 1520 810 1542 810 1570 c 4
 810 1589 800 1606 784 1614 c 5
 455 1791 l 5
EndSplineSet
EndChar

StartChar: Aring
Encoding: 134 197 9
Width: 1200
GlyphClass: 2
Flags: HW
AnchorPoint: "Anchor-1" 596 0 basechar 0
AnchorPoint: "Anchor-0" 600 1377 basechar 0
LayerCount: 6
Fore
Refer: 1 65 N 1 0 0 1 0 0 3
Refer: 1692 -1 N 1 0 0 1 0 0 2
Validated: 1048577
Layer: 2
SplineSet
480 1670 m 4
 480 1604 534 1550 600 1550 c 4
 666 1550 720 1604 720 1670 c 4
 720 1736 666 1790 600 1790 c 4
 534 1790 480 1736 480 1670 c 4
380 1670 m 4
 380 1791 479 1890 600 1890 c 4
 721 1890 820 1791 820 1670 c 4
 820 1549 721 1450 600 1450 c 4
 479 1450 380 1549 380 1670 c 4
EndSplineSet
EndChar

StartChar: Atilde
Encoding: 132 195 10
Width: 1200
GlyphClass: 2
Flags: HW
AnchorPoint: "Anchor-1" 596 0 basechar 0
AnchorPoint: "Anchor-0" 600 1377 basechar 0
LayerCount: 6
Fore
Refer: 1 65 N 1 0 0 1 0 0 3
Refer: 1693 -1 N 1 0 0 1 0 0 2
Validated: 1048585
Layer: 2
SplineSet
720 1680 m 7
 670 1680 580 1780 480 1780 c 7
 386 1780 288.505859375 1667.90039062 278.092773438 1650 c 4
 272.950195312 1641.16113281 270 1630.90820312 270 1620 c 4
 270 1587 297 1560 330 1560 c 4
 352.091796875 1560 371.494140625 1572.09960938 381.907226562 1590 c 4
 387.049804688 1598.83886719 433 1660 480 1660 c 7
 530 1660 620 1560 720 1560 c 7
 814 1560 911.494140625 1672.09960938 921.907226562 1690 c 4
 927.049804688 1698.83886719 930 1709.09179688 930 1720 c 4
 930 1753 903 1780 870 1780 c 4
 847.908203125 1780 828.505859375 1767.90039062 818.092773438 1750 c 4
 812.950195312 1741.16113281 767 1680 720 1680 c 7
EndSplineSet
EndChar

StartChar: AE
Encoding: 135 198 11
Width: 1200
GlyphClass: 2
Flags: HW
AnchorPoint: "Anchor-1" 600 0 basechar 0
AnchorPoint: "Anchor-0" 723 1377 basechar 0
LayerCount: 6
Fore
SplineSet
781 751 m 1
 1088 751 l 2
 1107.33333333 751 1123.83333333 744.166666667 1137.5 730.5 c 128
 1151.16666667 716.833333333 1158 700.333333333 1158 681 c 128
 1158 661.666666667 1151.16666667 645.166666667 1137.5 631.5 c 128
 1123.83333333 617.833333333 1107.33333333 611 1088 611 c 2
 818 611 l 1
 945 140 l 1
 1215 140 l 2
 1234.33333333 140 1250.83333333 133.166666667 1264.5 119.5 c 128
 1278.16666667 105.833333333 1285 89.3333333333 1285 70 c 128
 1285 50.6666666667 1278.16666667 34.1666666667 1264.5 20.5 c 128
 1250.83333333 6.83333333333 1234.33333333 0 1215 0 c 2
 720 0 l 2
 700.666666667 0 684.166666667 6.83333333333 670.5 20.5 c 128
 656.833333333 34.1666666667 650 50.6666666667 650 70 c 128
 650 89.3333333333 656.833333333 105.833333333 670.5 119.5 c 128
 684.166666667 133.166666667 700.666666667 140 720 140 c 2
 800 140 l 1
 720 441 l 1
 360 441 l 1
 280 140 l 1
 360 140 l 2
 379.333333333 140 395.833333333 133.166666667 409.5 119.5 c 128
 423.166666667 105.833333333 430 89.3333333333 430 70 c 128
 430 50.6666666667 423.166666667 34.1666666667 409.5 20.5 c 128
 395.833333333 6.83333333333 379.333333333 0 360 0 c 2
 40 0 l 2
 20.6666666667 0 4.16666666667 6.83333333333 -9.5 20.5 c 128
 -23.1666666667 34.1666666667 -30 50.6666666667 -30 70 c 128
 -30 89.3333333333 -23.1666666667 105.833333333 -9.5 119.5 c 128
 4.16666666667 133.166666667 20.6666666667 140 40 140 c 2
 135 140 l 1
 437 1267 l 2
 441.666666667 1282.33333333 450 1295.33333333 462 1306 c 0
 474 1315.33333333 488.333333333 1320 505 1320 c 2
 540 1320 l 1
 575 1320 l 1
 966 1320 l 2
 985.333333333 1320 1001.83333333 1313.16666667 1015.5 1299.5 c 128
 1029.16666667 1285.83333333 1036 1269.33333333 1036 1250 c 128
 1036 1230.66666667 1029.16666667 1214.16666667 1015.5 1200.5 c 128
 1001.83333333 1186.83333333 985.333333333 1180 966 1180 c 2
 666 1180 l 1
 781 751 l 1
682 581 m 1
 540 1110 l 1
 398 581 l 1
 682 581 l 1
EndSplineSet
Validated: 1048577
Layer: 2
SplineSet
781 750 m 1
 1090 750 l 1
 1129 750 1160 719 1160 680 c 0
 1160 641 1129 610 1090 610 c 1
 818 610 l 1
 945 140 l 1
 1210 140 l 1
 1249 140 1280 109 1280 70 c 0
 1280 31 1249 0 1210 0 c 1
 720 0 l 1
 681 0 650 31 650 70 c 3
 650 109 681 140 720 140 c 1
 800 140 l 1
 720 441 l 1
 360 441 l 1
 280 140 l 1
 360 140 l 1
 399 140 430 109 430 70 c 3
 430 31 399 0 360 0 c 1
 40 0 l 1
 1 0 -30 31 -30 70 c 3
 -30 109 1 140 40 140 c 1
 135 140 l 1
 437 1267 l 1
 445 1298 471 1320 505 1320 c 0
 540 1320 l 0
 575 1320 l 1
 970 1320 l 1
 1009 1320 1040 1289 1040 1250 c 0
 1040 1211 1009 1180 970 1180 c 1
 666 1180 l 1
 781 750 l 1
682 581 m 5
 540 1110 l 5
 398 581 l 5
 682 581 l 5
EndSplineSet
EndChar

StartChar: B
Encoding: 36 66 13
Width: 1200
GlyphClass: 2
Flags: HW
AnchorPoint: "Anchor-1" 600 0 basechar 0
AnchorPoint: "Anchor-0" 600 1377 basechar 0
LayerCount: 6
Fore
SplineSet
914 693 m 1
 1020 627 1090 509 1090 375 c 0
 1090 168 922 0 715 0 c 1
 220 0 l 1
 181 0 150 31 150 70 c 3
 150 109 181 140 220 140 c 1
 310 140 l 1
 310 1160 l 1
 220 1160 l 1
 181 1160 150 1191 150 1230 c 3
 150 1269 181 1300 220 1300 c 1
 690 1300 l 1
 880 1300 1035 1145 1035 955 c 0
 1035 850 988 756 914 693 c 1
450 140 m 1
 715 140 l 1
 845 140 950 245 950 375 c 0
 950 505 845 610 715 610 c 1
 450 610 l 1
 450 140 l 1
450 750 m 1
 690 750 l 1
 803 750 895 842 895 955 c 0
 895 1068 803 1160 690 1160 c 1
 450 1160 l 1
 450 750 l 1
450 140 m 1025
450 140 m 1025
EndSplineSet
Validated: 1048577
Layer: 2
SplineSet
914 693 m 5
 1020 627 1090 509 1090 375 c 4
 1090 168 922 0 715 0 c 5
 220 0 l 5
 181 0 150 31 150 70 c 7
 150 109 181 140 220 140 c 5
 310 140 l 5
 310 1160 l 5
 220 1160 l 5
 181 1160 150 1191 150 1230 c 7
 150 1269 181 1300 220 1300 c 5
 690 1300 l 5
 880 1300 1035 1145 1035 955 c 4
 1035 850 988 756 914 693 c 5
450 140 m 5
 715 140 l 5
 845 140 950 245 950 375 c 4
 950 505 845 610 715 610 c 5
 450 610 l 5
 450 140 l 5
450 750 m 5
 690 750 l 5
 803 750 895 842 895 955 c 4
 895 1068 803 1160 690 1160 c 5
 450 1160 l 5
 450 750 l 5
450 140 m 1029
EndSplineSet
EndChar

StartChar: C
Encoding: 37 67 14
Width: 1200
GlyphClass: 2
Flags: HW
AnchorPoint: "Anchor-1" 699 0 basechar 0
AnchorPoint: "Anchor-0" 731 1377 basechar 0
LayerCount: 6
Fore
SplineSet
1040 1031 m 1
 1040 890 l 1
 1040 851 1009 820 970 820 c 0
 931 820 900 851 900 890 c 1
 900 1002 l 1
 835 1112 739 1180 620 1180 c 0
 399 1180 250 943 250 650 c 0
 250 357 399 120 620 120 c 0
 745 120 844 195 909 314 c 1
 921 336 943 350 970 350 c 0
 1009 350 1040 319 1040 280 c 0
 1040 268 1037 256 1031 246 c 1
 941 84 796 -20 620 -20 c 0
 322 -20 110 280 110 650 c 0
 110 1020 322 1320 620 1320 c 0
 735.657180506 1320 837.927734375 1274.76855469 920 1198 c 1
 930 1237 l 1
 937 1268 965 1290 998 1290 c 0
 1037 1290 1068 1259 1068 1220 c 0
 1068 1214 1067 1208 1066 1203 c 1
 1057.33333333 1169 l 1
 1045.06382863 1129.49172692 1040 1087 1040 1031 c 1
EndSplineSet
Validated: 1048577
Layer: 2
SplineSet
1040 1031 m 5
 1040 890 l 5
 1040 851 1009 820 970 820 c 4
 931 820 900 851 900 890 c 5
 900 1002 l 5
 835 1112 739 1180 620 1180 c 4
 399 1180 250 943 250 650 c 4
 250 357 399 120 620 120 c 4
 745 120 844 195 909 314 c 5
 921 336 943 350 970 350 c 4
 1009 350 1040 319 1040 280 c 4
 1040 268 1037 256 1031 246 c 5
 941 84 796 -20 620 -20 c 4
 322 -20 110 280 110 650 c 4
 110 1020 322 1320 620 1320 c 4
 735.657180506 1320 837.927734375 1274.76855469 920 1198 c 5
 930 1237 l 5
 937 1268 965 1290 998 1290 c 4
 1037 1290 1068 1259 1068 1220 c 4
 1068 1214 1067 1208 1066 1203 c 5
 1057.33333333 1169 l 5
 1045.06382863 1129.49172692 1040 1087 1040 1031 c 5
EndSplineSet
EndChar

StartChar: Cacute
Encoding: 198 262 15
Width: 1200
GlyphClass: 2
Flags: HW
AnchorPoint: "Anchor-1" 699 0 basechar 0
AnchorPoint: "Anchor-0" 731 1377 basechar 0
LayerCount: 6
Fore
SplineSet
745 1791 m 2
 755 1797 766.666666667 1800 780 1800 c 0
 800.666666667 1800 818.333333333 1792.66666667 833 1778 c 0
 847.666666667 1763.33333333 855 1745.66666667 855 1725 c 0
 855 1709.66666667 850.5 1695.5 841.5 1682.5 c 0
 832.5 1669.5 820.666666667 1660.33333333 806 1655 c 2
 458 1523 l 2
 452 1521 446 1520 440 1520 c 0
 426 1520 414.166666667 1524.83333333 404.5 1534.5 c 0
 394.833333333 1544.16666667 390 1556 390 1570 c 0
 390 1590.66666667 398.666666667 1605.33333333 416 1614 c 2
 745 1791 l 2
EndSplineSet
Refer: 14 67 N 1 0 0 1 0 0 3
Validated: 1048577
Layer: 2
SplineSet
745 1791 m 5
 755 1797 767 1800 780 1800 c 4
 821 1800 855 1766 855 1725 c 4
 855 1693 834 1666 806 1655 c 5
 458 1523 l 5
 452 1521 446 1520 440 1520 c 4
 412 1520 390 1542 390 1570 c 4
 390 1589 400 1606 416 1614 c 5
 745 1791 l 5
EndSplineSet
Substitution2: "'locl' Localized Forms in Latin lookup 22 subtable" Cacute.loclPLK
Substitution2: "'aalt' Access All Alternates lookup 0 subtable" Cacute.loclPLK
EndChar

StartChar: D
Encoding: 38 68 20
Width: 1200
GlyphClass: 2
Flags: HW
AnchorPoint: "Anchor-2" 600 689 basechar 0
AnchorPoint: "Anchor-1" 600 0 basechar 0
AnchorPoint: "Anchor-0" 567 1377 basechar 0
LayerCount: 6
Fore
SplineSet
565 140 m 1
 858 140 955 364.001953125 955 650 c 128
 955 935.998046875 858 1160 565 1160 c 1
 445 1160 l 1
 445 140 l 1
 565 140 l 1
  Spiro
    565 140 v
    796.16 208.536 o
    919.076 390.894 o
    955 650 o
    919.076 909.106 o
    796.16 1091.46 o
    565 1160 v
    445 1160 v
    445 140 v
    0 0 z
  EndSpiro
565 0 m 1
 215 0 l 1
 176 0 145 31 145 70 c 3
 145 109 176 140 215 140 c 1
 305 140 l 1
 305 1160 l 1
 215 1160 l 1
 176 1160 145 1191 145 1230 c 3
 145 1269 176 1300 215 1300 c 1
 565 1300 l 1
 964 1300 1095 1012.62792969 1095 650 c 128
 1095 287.372070312 964 0 565 0 c 1
445 140 m 1025
  Spiro
    445 140 {
    0 0 z
  EndSpiro
445 140 m 1025
EndSplineSet
Validated: 1
Layer: 2
SplineSet
565 140 m 5
 858 140 955 364.001953125 955 650 c 132
 955 935.998046875 858 1160 565 1160 c 5
 445 1160 l 5
 445 140 l 5
 565 140 l 5
  Spiro
    565 140 v
    796.16 208.536 o
    919.076 390.894 o
    955 650 o
    919.076 909.106 o
    796.16 1091.46 o
    565 1160 v
    445 1160 v
    445 140 v
    0 0 z
  EndSpiro
565 0 m 5
 215 0 l 5
 176 0 145 31 145 70 c 7
 145 109 176 140 215 140 c 5
 305 140 l 5
 305 1160 l 5
 215 1160 l 5
 176 1160 145 1191 145 1230 c 7
 145 1269 176 1300 215 1300 c 5
 565 1300 l 5
 964 1300 1095 1012.62792969 1095 650 c 132
 1095 287.372070312 964 0 565 0 c 5
445 140 m 1029
  Spiro
    445 140 {
    0 0 z
  EndSpiro
EndSplineSet
EndChar

StartChar: Eth
Encoding: 145 208 21
Width: 1200
GlyphClass: 2
Flags: HW
AnchorPoint: "Anchor-2" 619 689 basechar 0
AnchorPoint: "Anchor-1" 619 0 basechar 0
AnchorPoint: "Anchor-0" 586 1377 basechar 0
LayerCount: 6
Fore
SplineSet
665 650 m 132
 665 630.666666667 658.166666667 614.166666667 644.5 600.5 c 132
 630.833333333 586.833333333 614.333333333 580 595 580 c 6
 155 580 l 6
 135.666666667 580 119.166666667 586.833333333 105.5 600.5 c 132
 91.8333333333 614.166666667 85 630.666666667 85 650 c 132
 85 669.333333333 91.8333333333 685.833333333 105.5 699.5 c 132
 119.166666667 713.166666667 135.666666667 720 155 720 c 6
 595 720 l 6
 614.333333333 720 630.833333333 713.166666667 644.5 699.5 c 132
 658.166666667 685.833333333 665 669.333333333 665 650 c 132
565 140 m 6
 636.333333333 140 697.666666667 152.833333333 749 178.5 c 132
 800.333333333 204.166666667 840.666666667 240.833333333 870 288.5 c 132
 899.333333333 336.166666667 920.833333333 389.666666667 934.5 449 c 132
 948.166666667 508.333333333 955 575.333333333 955 650 c 132
 955 724.666666667 948.166666667 791.666666667 934.5 851 c 132
 920.833333333 910.333333333 899.333333333 963.833333333 870 1011.5 c 132
 840.666666667 1059.16666667 800.333333333 1095.83333333 749 1121.5 c 132
 697.666666667 1147.16666667 636.333333333 1160 565 1160 c 6
 445 1160 l 5
 445 140 l 5
 565 140 l 6
565 0 m 6
 215 0 l 6
 195.666666667 0 179.166666667 6.83333333333 165.5 20.5 c 132
 151.833333333 34.1666666667 145 50.6666666667 145 70 c 132
 145 89.3333333333 151.833333333 105.833333333 165.5 119.5 c 132
 179.166666667 133.166666667 195.666666667 140 215 140 c 6
 305 140 l 5
 305 1160 l 5
 215 1160 l 6
 195.666666667 1160 179.166666667 1166.83333333 165.5 1180.5 c 132
 151.833333333 1194.16666667 145 1210.66666667 145 1230 c 132
 145 1249.33333333 151.833333333 1265.83333333 165.5 1279.5 c 132
 179.166666667 1293.16666667 195.666666667 1300 215 1300 c 6
 565 1300 l 6
 643 1300 712.333333333 1289 773 1267 c 132
 833.666666667 1245 884 1214.66666667 924 1176 c 132
 964 1137.33333333 997 1090.33333333 1023 1035 c 132
 1049 979.666666667 1067.5 920.5 1078.5 857.5 c 132
 1089.5 794.5 1095 725.333333333 1095 650 c 132
 1095 574.666666667 1089.5 505.5 1078.5 442.5 c 132
 1067.5 379.5 1049 320.333333333 1023 265 c 132
 997 209.666666667 964 162.666666667 924 124 c 132
 884 85.3333333333 833.666666667 55 773 33 c 132
 712.333333333 11 643 0 565 0 c 6
445 140 m 1029
EndSplineSet
Validated: 5
Layer: 2
SplineSet
665 650 m 132
 665 610.958984375 634.04296875 580 595 580 c 6
 155 580 l 6
 115.959960938 580 85 610.95703125 85 650 c 132
 85 689.041015625 115.958007812 720 155 720 c 6
 595 720 l 6
 634.041015625 720 665 689.04296875 665 650 c 132
565 140 m 5
 858 140 955 364.001953125 955 650 c 132
 955 935.998046875 858 1160 565 1160 c 5
 445 1160 l 5
 445 140 l 5
 565 140 l 5
  Spiro
    565 140 v
    796.16 208.536 o
    919.076 390.894 o
    955 650 o
    919.076 909.106 o
    796.16 1091.46 o
    565 1160 v
    445 1160 v
    445 140 v
    0 0 z
  EndSpiro
565 0 m 5
 215 0 l 5
 176 0 145 31 145 70 c 7
 145 109 176 140 215 140 c 5
 305 140 l 5
 305 1160 l 5
 215 1160 l 5
 176 1160 145 1191 145 1230 c 7
 145 1269 176 1300 215 1300 c 5
 565 1300 l 5
 964 1300 1095 1012.62792969 1095 650 c 132
 1095 287.372070312 964 0 565 0 c 5
445 140 m 1029
  Spiro
    445 140 {
    0 0 z
  EndSpiro
EndSplineSet
EndChar

StartChar: E
Encoding: 39 69 24
Width: 1200
GlyphClass: 2
Flags: HW
AnchorPoint: "Anchor-2" 600 689 basechar 0
AnchorPoint: "Anchor-1" 651 0 basechar 0
AnchorPoint: "Anchor-0" 642 1377 basechar 0
LayerCount: 6
Fore
SplineSet
760 610 m 1
 420 610 l 1
 420 140 l 1
 950 140 l 1
 950 270 l 1
 950 309 981 340 1020 340 c 0
 1059 340 1090 309 1090 270 c 1
 1090 70 l 1
 1090 29.6669921875 1060.33398438 0 1020 0 c 1
 190 0 l 1
 149.671875 0 120 29.6650390625 120 70 c 128
 120 110.333007812 149.669921875 140 190 140 c 1
 280 140 l 1
 280 1160 l 1
 190 1160 l 1
 149.671875 1160 120 1189.66503906 120 1230 c 128
 120 1270.33300781 149.669921875 1300 190 1300 c 1
 1020 1300 l 1
 1060.33398438 1300 1090 1270.33300781 1090 1230 c 1
 1090 1030 l 1
 1090 991 1059 960 1020 960 c 0
 981 960 950 991 950 1030 c 1
 950 1160 l 1
 420 1160 l 1
 420 750 l 1
 760 750 l 1
 760 820 l 1
 760 859 791 890 830 890 c 0
 869 890 900 859 900 820 c 1
 900 540 l 1
 900 499.666992188 870.333984375 470 830 470 c 0
 791 470 760 501 760 540 c 1
 760 610 l 1
EndSplineSet
Validated: 1
Layer: 2
SplineSet
760 610 m 1
 420 610 l 1
 420 140 l 1
 950 140 l 1
 950 270 l 1
 950 309 981 340 1020 340 c 0
 1059 340 1090 309 1090 270 c 1
 1090 70 l 1
 1090 29.6669921875 1060.33398438 0 1020 0 c 1
 190 0 l 1
 149.671875 0 120 29.6650390625 120 70 c 128
 120 110.333007812 149.669921875 140 190 140 c 1
 280 140 l 1
 280 1160 l 1
 190 1160 l 1
 149.671875 1160 120 1189.66503906 120 1230 c 128
 120 1270.33300781 149.669921875 1300 190 1300 c 5
 1020 1300 l 5
 1060.33398438 1300 1090 1270.33300781 1090 1230 c 5
 1090 1030 l 5
 1090 991 1059 960 1020 960 c 4
 981 960 950 991 950 1030 c 5
 950 1160 l 5
 420 1160 l 5
 420 750 l 1
 760 750 l 1
 760 820 l 1
 760 859 791 890 830 890 c 0
 869 890 900 859 900 820 c 1
 900 540 l 1
 900 499.666992188 870.333984375 470 830 470 c 0
 791 470 760 501 760 540 c 1
 760 610 l 1
EndSplineSet
EndChar

StartChar: F
Encoding: 40 70 34
Width: 1200
GlyphClass: 2
Flags: HW
HStem: 0 140<125.312 280 420 664.688> 470 420<755.453 884.077> 610 140<420 750> 960 340<945.453 1074.08> 1160 140<125.266 280 420 940>
VStem: 280 140<140 610 750 1160> 750 140<475.924 610 750 884.547> 940 140<965.453 1160>
AnchorPoint: "Anchor-1" 470 0 basechar 0
AnchorPoint: "Anchor-0" 600 1377 basechar 0
LayerCount: 6
Fore
SplineSet
750 750 m 1xaf
 750 820 l 1
 750 859 781 890 820 890 c 0
 859 890 890 859 890 820 c 1
 890 540 l 1
 890 499.666992188 860.333984375 470 820 470 c 0xc7
 781 470 750 501 750 540 c 1
 750 610 l 1
 420 610 l 1
 420 140 l 1
 600 140 l 2
 640 140 670 110.334960938 670 70 c 0
 670 29.6669921875 640.334960938 0 600 0 c 2
 190 0 l 2
 149.672763872 0 120 29.6650390625 120 70 c 0
 120 110.333007812 150 140 190 140 c 2
 280 140 l 1
 280 1160 l 1
 190 1160 l 1
 149.671875 1160 120 1189.66503906 120 1230 c 0
 120 1270.33300781 149.669921875 1300 190 1300 c 1xaf
 1010 1300 l 1
 1050.33398438 1300 1080 1270.33300781 1080 1230 c 1
 1080 1030 l 1
 1080 991 1049 960 1010 960 c 0x97
 971 960 940 991 940 1030 c 1
 940 1160 l 1
 420 1160 l 1
 420 750 l 1
 750 750 l 1xaf
EndSplineSet
Validated: 1048577
Layer: 2
SplineSet
750 750 m 5
 750 820 l 5
 750 859 781 890 820 890 c 4
 859 890 890 859 890 820 c 5
 890 540 l 5
 890 499.666992188 860.333984375 470 820 470 c 4
 781 470 750 501 750 540 c 5
 750 610 l 5
 420 610 l 5
 420 140 l 5
 600 140 l 6
 640 140 670 110.334960938 670 70 c 132
 670 29.6669921875 640.334960938 0 600 0 c 6
 190 0 l 6
 149.672763872 0 120 29.6650390625 120 70 c 132
 120 110.333007812 150 140 190 140 c 6
 280 140 l 5
 280 1160 l 5
 190 1160 l 5
 149.671875 1160 120 1189.66503906 120 1230 c 132
 120 1270.33300781 149.669921875 1300 190 1300 c 5
 1010 1300 l 5
 1050.33398438 1300 1080 1270.33300781 1080 1230 c 5
 1080 1030 l 5
 1080 991 1049 960 1010 960 c 4
 971 960 940 991 940 1030 c 5
 940 1160 l 5
 420 1160 l 5
 420 750 l 5
 750 750 l 5
EndSplineSet
Substitution2: "Single Substitution lookup 344 subtable" F.spacer
Substitution2: "'aalt' Access All Alternates lookup 0 subtable" F.spacer
EndChar

StartChar: G
Encoding: 41 71 35
Width: 1200
GlyphClass: 2
Flags: HW
AnchorPoint: "Anchor-1" 661 0 basechar 0
AnchorPoint: "Anchor-0" 660 1377 basechar 0
LayerCount: 6
Fore
SplineSet
910 93 m 5
 829.372070312 21.6298828125 731.008796986 -20 620 -20 c 4
 322 -20 110 280 110 650 c 4
 110 1020 322 1320 620 1320 c 4
 735.657180506 1320 835.927734375 1275.76855469 918 1199 c 5
 927 1237 l 5
 934 1268 962 1290 995 1290 c 4
 1034 1290 1065 1259 1065 1220 c 4
 1065 1214 1064 1208 1063 1203 c 5
 1052 1167 l 5
 1041 1127 1040 1087 1040 1031 c 5
 1040 890 l 5
 1040 851 1009 820 970 820 c 4
 931 820 900 851 900 890 c 5
 900 1002 l 5
 835 1112 739 1180 620 1180 c 4
 399 1180 250 943 250 650 c 4
 250 357 399 120 620 120 c 4
 743.695346539 120 845 194 910 311 c 5
 910 440 l 5
 710 440 l 4
 671 440 640 471 640 510 c 4
 640 549 671 580 710 580 c 4
 980 580 l 5
 1020.33398438 580 1050 550.333007812 1050 510 c 5
 1050 440 l 5
 1050 30 l 5
 1050 -9 1019 -40 980 -40 c 4
 941 -40 910 -9 910 30 c 5
 910 93 l 5
179 -911 m 1049
179 -911 m 1049
0 0 m 1049
0 0 m 1049
179 -911 m 1049
179 -911 m 1049
0 0 m 1049
0 0 m 1049
0 0 m 1049
0 0 m 1049
0 0 m 1049
0 0 m 1049
EndSplineSet
Validated: 1048577
Layer: 2
SplineSet
910 93 m 5
 829.372070312 21.6298828125 731.008796986 -20 620 -20 c 4
 322 -20 110 280 110 650 c 4
 110 1020 322 1320 620 1320 c 4
 735.657180506 1320 835.927734375 1275.76855469 918 1199 c 5
 927 1237 l 5
 934 1268 962 1290 995 1290 c 4
 1034 1290 1065 1259 1065 1220 c 4
 1065 1214 1064 1208 1063 1203 c 5
 1052 1167 l 5
 1041 1127 1040 1087 1040 1031 c 5
 1040 890 l 5
 1040 851 1009 820 970 820 c 4
 931 820 900 851 900 890 c 5
 900 1002 l 5
 835 1112 739 1180 620 1180 c 4
 399 1180 250 943 250 650 c 4
 250 357 399 120 620 120 c 4
 743.695346539 120 845 194 910 311 c 5
 910 440 l 5
 710 440 l 4
 671 440 640 471 640 510 c 4
 640 549 671 580 710 580 c 4
 980 580 l 5
 1020.33398438 580 1050 550.333007812 1050 510 c 5
 1050 440 l 5
 1050 30 l 5
 1050 -9 1019 -40 980 -40 c 4
 941 -40 910 -9 910 30 c 5
 910 93 l 5
179 -911 m 1049
179 -911 m 1049
0 0 m 1049
0 0 m 1049
EndSplineSet
EndChar

StartChar: H
Encoding: 42 72 40
Width: 1200
GlyphClass: 2
Flags: HW
AnchorPoint: "Anchor-2" 600 689 basechar 0
AnchorPoint: "Anchor-1" 600 0 basechar 0
AnchorPoint: "Anchor-0" 600 1377 basechar 0
LayerCount: 6
Fore
SplineSet
980 140 m 5
 1070 140 l 5
 1110.33203125 140 1140 110.334960938 1140 70 c 132
 1140 29.6669921875 1110.33300781 0 1070 0 c 6
 750 0 l 6
 709.672851562 0 680 29.6650390625 680 70 c 132
 680 110.333007812 709.670898438 140 750 140 c 5
 840 140 l 5
 840 610 l 5
 360 610 l 5
 360 140 l 5
 450 140 l 5
 490.33203125 140 520 110.334960938 520 70 c 132
 520 29.6669921875 490.333007812 0 450 0 c 6
 130 0 l 6
 89.6728515625 0 60 29.6650390625 60 70 c 132
 60 110.333007812 89.669921875 140 130 140 c 5
 220 140 l 5
 220 1160 l 5
 130 1160 l 5
 89.671875 1160 60 1189.66503906 60 1230 c 132
 60 1270.33300781 89.6708984375 1300 130 1300 c 6
 450 1300 l 6
 490.331054688 1300 520 1270.33496094 520 1230 c 132
 520 1189.66699219 490.333984375 1160 450 1160 c 5
 360 1160 l 5
 360 750 l 5
 840 750 l 5
 840 1160 l 5
 750 1160 l 5
 709.672851562 1160 680 1189.66503906 680 1230 c 132
 680 1270.33300781 709.670898438 1300 750 1300 c 6
 1070 1300 l 6
 1110.33105469 1300 1140 1270.33496094 1140 1230 c 132
 1140 1189.66699219 1110.33398438 1160 1070 1160 c 5
 980 1160 l 5
 980 140 l 5
EndSplineSet
Validated: 1
Layer: 2
SplineSet
980 140 m 5
 1070 140 l 5
 1110.33203125 140 1140 110.334960938 1140 70 c 132
 1140 29.6669921875 1110.33300781 0 1070 0 c 6
 750 0 l 6
 709.672851562 0 680 29.6650390625 680 70 c 132
 680 110.333007812 709.670898438 140 750 140 c 5
 840 140 l 5
 840 610 l 5
 360 610 l 5
 360 140 l 5
 450 140 l 5
 490.33203125 140 520 110.334960938 520 70 c 132
 520 29.6669921875 490.333007812 0 450 0 c 6
 130 0 l 6
 89.6728515625 0 60 29.6650390625 60 70 c 132
 60 110.333007812 89.669921875 140 130 140 c 5
 220 140 l 5
 220 1160 l 5
 130 1160 l 5
 89.671875 1160 60 1189.66503906 60 1230 c 132
 60 1270.33300781 89.6708984375 1300 130 1300 c 6
 450 1300 l 6
 490.331054688 1300 520 1270.33496094 520 1230 c 132
 520 1189.66699219 490.333984375 1160 450 1160 c 5
 360 1160 l 5
 360 750 l 5
 840 750 l 5
 840 1160 l 5
 750 1160 l 5
 709.672851562 1160 680 1189.66503906 680 1230 c 132
 680 1270.33300781 709.670898438 1300 750 1300 c 6
 1070 1300 l 6
 1110.33105469 1300 1140 1270.33496094 1140 1230 c 132
 1140 1189.66699219 1110.33398438 1160 1070 1160 c 5
 980 1160 l 5
 980 140 l 5
EndSplineSet
EndChar

StartChar: Hbar
Encoding: 213 294 41
Width: 1200
GlyphClass: 1
Flags: HW
LayerCount: 6
Fore
SplineSet
1190 960 m 128
 1190 940.666666667 1183.16666667 924.166666667 1169.5 910.5 c 128
 1155.83333333 896.833333333 1139.33333333 890 1120 890 c 2
 80 890 l 2
 60.6666666667 890 44.1666666667 896.833333333 30.5 910.5 c 128
 16.8333333333 924.166666667 10 940.666666667 10 960 c 128
 10 979.333333333 16.8333333333 995.833333333 30.5 1009.5 c 128
 44.1666666667 1023.16666667 60.6666666667 1030 80 1030 c 2
 1120 1030 l 2
 1139.33333333 1030 1155.83333333 1023.16666667 1169.5 1009.5 c 128
 1183.16666667 995.833333333 1190 979.333333333 1190 960 c 128
980 140 m 1
 1070 140 l 2
 1090 140 1106.66666667 133.333333333 1120 120 c 128
 1133.33333333 106.666666667 1140 90 1140 70 c 128
 1140 50 1133.33333333 33.3333333333 1120 20 c 128
 1106.66666667 6.66666666667 1090 0 1070 0 c 2
 750 0 l 2
 730 0 713.333333333 6.66666666667 700 20 c 128
 686.666666667 33.3333333333 680 50 680 70 c 128
 680 90 686.666666667 106.666666667 700 120 c 128
 713.333333333 133.333333333 730 140 750 140 c 2
 840 140 l 1
 840 610 l 1
 360 610 l 1
 360 140 l 1
 450 140 l 2
 470 140 486.666666667 133.333333333 500 120 c 128
 513.333333333 106.666666667 520 90 520 70 c 128
 520 50 513.333333333 33.3333333333 500 20 c 128
 486.666666667 6.66666666667 470 0 450 0 c 2
 130 0 l 2
 110 0 93.3333333333 6.66666666667 80 20 c 128
 66.6666666667 33.3333333333 60 50 60 70 c 128
 60 90 66.6666666667 106.666666667 80 120 c 128
 93.3333333333 133.333333333 110 140 130 140 c 2
 220 140 l 1
 220 1160 l 1
 130 1160 l 2
 110 1160 93.3333333333 1166.66666667 80 1180 c 128
 66.6666666667 1193.33333333 60 1210 60 1230 c 128
 60 1250 66.6666666667 1266.66666667 80 1280 c 128
 93.3333333333 1293.33333333 110 1300 130 1300 c 2
 450 1300 l 2
 470 1300 486.666666667 1293.33333333 500 1280 c 128
 513.333333333 1266.66666667 520 1250 520 1230 c 128
 520 1210 513.333333333 1193.33333333 500 1180 c 128
 486.666666667 1166.66666667 470 1160 450 1160 c 2
 360 1160 l 1
 360 750 l 1
 840 750 l 1
 840 1160 l 1
 750 1160 l 2
 730 1160 713.333333333 1166.66666667 700 1180 c 128
 686.666666667 1193.33333333 680 1210 680 1230 c 128
 680 1250 686.666666667 1266.66666667 700 1280 c 128
 713.333333333 1293.33333333 730 1300 750 1300 c 2
 1070 1300 l 2
 1090 1300 1106.66666667 1293.33333333 1120 1280 c 128
 1133.33333333 1266.66666667 1140 1250 1140 1230 c 128
 1140 1210 1133.33333333 1193.33333333 1120 1180 c 128
 1106.66666667 1166.66666667 1090 1160 1070 1160 c 2
 980 1160 l 1
 980 140 l 1
EndSplineSet
Validated: 5
Layer: 2
SplineSet
1190 960 m 132
 1190 920.958984375 1159.04296875 890 1120 890 c 6
 80 890 l 6
 40.9590308032 890 10 920.95703125 10 960 c 132
 10 999.041015625 40.9570776805 1030 80 1030 c 6
 1120 1030 l 6
 1159.04101562 1030 1190 999.04296875 1190 960 c 132
980 140 m 1
 1070 140 l 1
 1110.33203125 140 1140 110.334960938 1140 70 c 128
 1140 29.6669921875 1110.33300781 0 1070 0 c 2
 750 0 l 2
 709.672851562 0 680 29.6650390625 680 70 c 128
 680 110.333007812 709.670898438 140 750 140 c 1
 840 140 l 1
 840 610 l 1
 360 610 l 1
 360 140 l 1
 450 140 l 1
 490.33203125 140 520 110.334960938 520 70 c 128
 520 29.6669921875 490.333007812 0 450 0 c 2
 130 0 l 2
 89.6728515625 0 60 29.6650390625 60 70 c 128
 60 110.333007812 89.669921875 140 130 140 c 1
 220 140 l 1
 220 1160 l 1
 130 1160 l 1
 89.671875 1160 60 1189.66503906 60 1230 c 128
 60 1270.33300781 89.6708984375 1300 130 1300 c 2
 450 1300 l 2
 490.331054688 1300 520 1270.33496094 520 1230 c 128
 520 1189.66699219 490.333984375 1160 450 1160 c 1
 360 1160 l 1
 360 750 l 1
 840 750 l 1
 840 1160 l 1
 750 1160 l 1
 709.672851562 1160 680 1189.66503906 680 1230 c 128
 680 1270.33300781 709.670898438 1300 750 1300 c 2
 1070 1300 l 2
 1110.33105469 1300 1140 1270.33496094 1140 1230 c 128
 1140 1189.66699219 1110.33398438 1160 1070 1160 c 1
 980 1160 l 1
 980 140 l 1
EndSplineSet
EndChar

StartChar: I
Encoding: 43 73 43
Width: 1200
GlyphClass: 2
Flags: HW
AnchorPoint: "Anchor-1" 600 0 basechar 0
AnchorPoint: "Anchor-0" 600 1377 basechar 0
LayerCount: 6
Fore
SplineSet
530 140 m 5
 530 1160 l 5
 260 1160 l 6
 220 1160 190 1189.66503906 190 1230 c 132
 190 1270.33300781 219.665039062 1300 260 1300 c 6
 940 1300 l 6
 980.333007812 1300 1010 1270.33496094 1010 1230 c 132
 1010 1189.66699219 980 1160 940 1160 c 6
 670 1160 l 5
 670 140 l 5
 940 140 l 6
 980 140 1010 110.334960938 1010 70 c 132
 1010 29.6669921875 980.334960938 0 940 0 c 6
 260 0 l 6
 219.666992188 0 190 29.6650390625 190 70 c 132
 190 110.333007812 220 140 260 140 c 6
 530 140 l 5
EndSplineSet
Validated: 1048577
Layer: 2
SplineSet
530 140 m 5
 530 1160 l 5
 260 1160 l 6
 220 1160 190 1189.66503906 190 1230 c 132
 190 1270.33300781 219.665039062 1300 260 1300 c 6
 940 1300 l 6
 980.333007812 1300 1010 1270.33496094 1010 1230 c 132
 1010 1189.66699219 980 1160 940 1160 c 6
 670 1160 l 5
 670 140 l 5
 940 140 l 6
 980 140 1010 110.334960938 1010 70 c 132
 1010 29.6669921875 980.334960938 0 940 0 c 6
 260 0 l 6
 219.666992188 0 190 29.6650390625 190 70 c 132
 190 110.333007812 220 140 260 140 c 6
 530 140 l 5
EndSplineSet
EndChar

StartChar: IJ
Encoding: 215 306 44
Width: 1200
GlyphClass: 1
Flags: HW
LayerCount: 6
Fore
SplineSet
660 1160 m 5
 390 1160 l 5
 390 140 l 5
 570 140 l 6
 590 140 606.666666667 133.333333333 620 120 c 132
 633.333333333 106.666666667 640 90 640 70 c 132
 640 50 633.333333333 33.3333333333 620 20 c 132
 606.666666667 6.66666666667 590 0 570 0 c 6
 70 0 l 6
 50 0 33.3333333333 6.66666666667 20 20 c 132
 6.66666666667 33.3333333333 0 50 0 70 c 132
 0 90 6.66666666667 106.666666667 20 120 c 132
 33.3333333333 133.333333333 50 140 70 140 c 6
 250 140 l 5
 250 1160 l 5
 70 1160 l 6
 50 1160 33.3333333333 1166.66666667 20 1180 c 132
 6.66666666667 1193.33333333 0 1210 0 1230 c 132
 0 1250 6.66666666667 1266.66666667 20 1280 c 132
 33.3333333333 1293.33333333 50 1300 70 1300 c 6
 660 1300 l 5
 1130 1300 l 6
 1150 1300 1166.66666667 1293.33333333 1180 1280 c 132
 1193.33333333 1266.66666667 1200 1250 1200 1230 c 132
 1200 1210 1193.33333333 1193.33333333 1180 1180 c 132
 1166.66666667 1166.66666667 1150 1160 1130 1160 c 6
 950 1160 l 5
 950 79 l 6
 950 26.3333333333 944.166666667 -20.1666666667 932.5 -60.5 c 132
 920.833333333 -100.833333333 905.333333333 -133.5 886 -158.5 c 132
 866.666666667 -183.5 843 -203.666666667 815 -219 c 132
 787 -234.333333333 758.166666667 -245 728.5 -251 c 132
 698.833333333 -257 666 -260 630 -260 c 4
 563.333333333 -260 493 -249 419 -227 c 4
 404.333333333 -222.333333333 392.5 -214 383.5 -202 c 132
 374.5 -190 370 -176 370 -160 c 4
 370 -140.666666667 376.833333333 -124.166666667 390.5 -110.5 c 132
 404.166666667 -96.8333333333 420.666666667 -90 440 -90 c 4
 448 -90 455 -91 461 -93 c 4
 521.666666667 -111 578 -120 630 -120 c 4
 702.666666667 -120 750.833333333 -104 774.5 -72 c 132
 798.166666667 -40 810 10.3333333333 810 79 c 6
 810 1160 l 5
 660 1160 l 5
EndSplineSet
Validated: 1
Layer: 2
SplineSet
660 1160 m 6
 390 1160 l 5
 390 140 l 5
 570 140 l 6
 610 140 640 110.334960938 640 70 c 132
 640 29.6669921875 610.334960938 0 570 0 c 6
 70 0 l 6
 29.6669921875 0 0 29.6650390625 0 70 c 132
 0 110.333007812 30 140 70 140 c 6
 250 140 l 5
 250 1160 l 5
 70 1160 l 6
 30 1160 0 1189.66503906 0 1230 c 132
 0 1270.33300781 30 1300 70 1300 c 6
 660 1300 l 6
 1130 1300 l 6
 1169.99902344 1300 1200 1270 1200 1230 c 132
 1200 1190 1170 1160 1130 1160 c 6
 950 1160 l 5
 950 79 l 5
 950 -194.001953125 798 -260 630 -260 c 7
 566.801757812 -260 493 -249 419 -227 c 5
 390 -218 370 -192 370 -160 c 4
 370 -121 401 -90 440 -90 c 4
 447 -90 455 -91 461 -93 c 5
 516.645507812 -109.475585938 574.374023438 -120 630 -120 c 7
 786.002929688 -120 810 -43 810 79 c 5
 810 1160 l 5
 660 1160 l 6
EndSplineSet
EndChar

StartChar: J
Encoding: 44 74 54
Width: 1200
GlyphClass: 2
Flags: HW
AnchorPoint: "Anchor-1" 600 0 basechar 0
AnchorPoint: "Anchor-0" 699 1377 basechar 0
LayerCount: 6
Fore
SplineSet
287.96875 267 m 1
 311 183 388 120 480 120 c 0
 590 120 680 210 680 320 c 1
 680 1160 l 1
 360 1160 l 2
 320 1160 290 1190 290 1230 c 128
 290 1270 320 1300 360 1300 c 2
 1000 1300 l 2
 1040 1300 1070 1270 1070 1230 c 128
 1070 1190 1040 1160 1000 1160 c 2
 820 1160 l 1
 820 320 l 1
 820 132 668 -20 480 -20 c 0
 323 -20 192 86 153 231 c 1
 151.3359375 237.030273438 150 243.400390625 150 250 c 0
 150 289 181 320 220 320 c 0
 253.125976562 320 280.479492188 297.635742188 287.96875 267 c 1
EndSplineSet
Validated: 1048577
Layer: 2
SplineSet
287.96875 267 m 5
 311 183 388 120 480 120 c 4
 590 120 680 210 680 320 c 5
 680 1160 l 5
 360 1160 l 6
 320 1160 290 1190 290 1230 c 132
 290 1270 320 1300 360 1300 c 6
 1000 1300 l 6
 1040 1300 1070 1270 1070 1230 c 132
 1070 1190 1040 1160 1000 1160 c 6
 820 1160 l 5
 820 320 l 5
 820 132 668 -20 480 -20 c 4
 323 -20 192 86 153 231 c 5
 151.3359375 237.030273438 150 243.400390625 150 250 c 4
 150 289 181 320 220 320 c 4
 253.125976562 320 280.479492188 297.635742188 287.96875 267 c 5
EndSplineSet
EndChar

StartChar: K
Encoding: 45 75 56
Width: 1200
GlyphClass: 2
Flags: HW
AnchorPoint: "Anchor-1" 645 0 basechar 0
AnchorPoint: "Anchor-0" 653 1377 basechar 0
LayerCount: 6
Fore
SplineSet
595 767 m 5
 988 1160 l 5
 1050 1160 l 5
 1090.33398438 1160 1120 1189.66699219 1120 1230 c 132
 1120 1270.33496094 1090.33105469 1300 1050 1300 c 6
 730 1300 l 6
 689.672059551 1300 660 1270.33300781 660 1230 c 132
 660 1189.66503906 689.672851562 1160 730 1160 c 5
 792 1160 l 5
 340 708 l 5
 340 1160 l 5
 430 1160 l 5
 470.333984375 1160 500 1189.66699219 500 1230 c 132
 500 1270.33496094 460.9375 1300 430 1300 c 6
 110 1300 l 6
 69.6710830169 1300 40 1270.33300781 40 1230 c 132
 40 1189.66503906 69.671875 1160 110 1160 c 5
 200 1160 l 5
 200 140 l 5
 110 140 l 5
 69.669921875 140 40 110.333007812 40 70 c 132
 40 29.6650390625 69.6730360856 0 110 0 c 6
 430 0 l 6
 460.938476562 0 500 29.6669921875 500 70 c 132
 500 110.334960938 470.33203125 140 430 140 c 5
 340 140 l 5
 340 512 l 5
 494 666 l 5
 846 140 l 5
 770 140 l 5
 729.670898438 140 700 110.333007812 700 70 c 132
 700 29.6650390625 729.67401262 0 770 0 c 6
 1090 0 l 6
 1130.33300781 0 1160 29.6669921875 1160 70 c 132
 1160 110.334960938 1130.33203125 140 1090 140 c 5
 1014 140 l 5
 595 767 l 5
EndSplineSet
Validated: 1048585
Layer: 2
SplineSet
595 767 m 5
 988 1160 l 5
 1050 1160 l 5
 1090.33398438 1160 1120 1189.66699219 1120 1230 c 132
 1120 1270.33496094 1090.33105469 1300 1050 1300 c 6
 730 1300 l 6
 689.672059551 1300 660 1270.33300781 660 1230 c 132
 660 1189.66503906 689.672851562 1160 730 1160 c 5
 792 1160 l 5
 340 708 l 5
 340 1160 l 5
 430 1160 l 5
 470.333984375 1160 500 1189.66699219 500 1230 c 132
 500 1270.33496094 460.9375 1300 430 1300 c 6
 110 1300 l 6
 69.6710830169 1300 40 1270.33300781 40 1230 c 132
 40 1189.66503906 69.671875 1160 110 1160 c 5
 200 1160 l 5
 200 140 l 5
 110 140 l 5
 69.669921875 140 40 110.333007812 40 70 c 132
 40 29.6650390625 69.6730360856 0 110 0 c 6
 430 0 l 6
 460.938476562 0 500 29.6669921875 500 70 c 132
 500 110.334960938 470.33203125 140 430 140 c 5
 340 140 l 5
 340 512 l 5
 494 666 l 5
 846 140 l 5
 770 140 l 5
 729.670898438 140 700 110.333007812 700 70 c 132
 700 29.6650390625 729.67401262 0 770 0 c 6
 1090 0 l 6
 1130.33300781 0 1160 29.6669921875 1160 70 c 132
 1160 110.334960938 1130.33203125 140 1090 140 c 5
 1014 140 l 5
 595 767 l 5
EndSplineSet
EndChar

StartChar: L
Encoding: 46 76 58
Width: 1200
GlyphClass: 2
Flags: HW
AnchorPoint: "Anchor-2" 943 759 basechar 0
AnchorPoint: "Anchor-1" 663 0 basechar 0
AnchorPoint: "Anchor-0" 359 1377 basechar 0
LayerCount: 6
Fore
SplineSet
390 1160 m 1
 390 140 l 1
 950 140 l 1
 950 270 l 1
 950 309 981 340 1020 340 c 0
 1059 340 1090 309 1090 270 c 1
 1090 70 l 1
 1090 29.6669921875 1060.33398438 0 1020 0 c 1
 160 0 l 1
 119.671875 0 90 29.6650390625 90 70 c 128
 90 110.333007812 119.669921875 140 160 140 c 1
 250 140 l 1
 250 1160 l 1
 160 1160 l 2
 120 1160 90 1189.66699219 90 1230 c 128
 90 1270.33496094 119.672343033 1299.90163986 160 1300 c 2
 570 1301 l 2
 610.333007812 1301 640 1271.33300781 640 1231 c 128
 640 1190.66503906 610 1161 570 1161 c 2
 390 1160 l 1
EndSplineSet
Validated: 1
Layer: 2
SplineSet
390 1160 m 5
 390 140 l 5
 950 140 l 5
 950 270 l 5
 950 309 981 340 1020 340 c 4
 1059 340 1090 309 1090 270 c 5
 1090 70 l 5
 1090 29.6669921875 1060.33398438 0 1020 0 c 5
 160 0 l 5
 119.671875 0 90 29.6650390625 90 70 c 132
 90 110.333007812 119.669921875 140 160 140 c 5
 250 140 l 5
 250 1160 l 5
 160 1160 l 6
 120 1160 90 1189.66699219 90 1230 c 132
 90 1270.33496094 119.672343033 1299.90163986 160 1300 c 6
 570 1301 l 6
 610.333007812 1301 640 1271.33300781 640 1231 c 132
 640 1190.66503906 610 1161 570 1161 c 6
 390 1160 l 5
EndSplineSet
EndChar

StartChar: Lcaron
Encoding: 224 317 60
Width: 1200
GlyphClass: 2
Flags: HW
AnchorPoint: "Anchor-2" 943 759 basechar 0
AnchorPoint: "Anchor-1" 663 0 basechar 0
AnchorPoint: "Anchor-0" 359 1377 basechar 0
LayerCount: 6
Fore
SplineSet
937 1310 m 2
 858 1045 l 2
 854.666666667 1035 848.666666667 1026.66666667 840 1020 c 0
 831.333333333 1013.33333333 821.333333333 1010 810 1010 c 0
 796 1010 784.166666667 1014.83333333 774.5 1024.5 c 0
 764.833333333 1034.16666667 760 1046 760 1060 c 0
 760 1060.66666667 773.666666667 1154.33333333 801 1341 c 0
 803.666666667 1358.33333333 811.5 1372.5 824.5 1383.5 c 0
 837.5 1394.5 852.666666667 1400 870 1400 c 0
 889.333333333 1400 905.833333333 1393.16666667 919.5 1379.5 c 0
 933.166666667 1365.83333333 940 1349.33333333 940 1330 c 0
 940 1322.66666667 939 1316 937 1310 c 2
EndSplineSet
Refer: 58 76 N 1 0 0 1 0 0 3
Validated: 1
Layer: 2
SplineSet
937 1310 m 5
 858 1045 l 5
 852 1025 833 1010 810 1010 c 4
 782 1010 760 1032 760 1060 c 4
 760 1061 760 1061 801 1341 c 4
 805.979492188 1375.00292969 835 1400 870 1400 c 4
 909 1400 940 1369 940 1330 c 4
 940 1323 939 1316 937 1310 c 5
810 1060 m 1029
870 1330 m 1029
EndSplineSet
EndChar

StartChar: Lslash
Encoding: 227 321 63
Width: 1200
GlyphClass: 2
Flags: HW
HStem: 0 340<955.453 1084.08> 0 140<95.2664 250 390 950> 1160 140<95.3125 250 390 634.025>
VStem: 250 140<140 1160> 950 140<140 334.547>
AnchorPoint: "Anchor-2" 939 759 basechar 0
AnchorPoint: "Anchor-1" 659 0 basechar 0
AnchorPoint: "Anchor-0" 356 1377 basechar 0
LayerCount: 6
Fore
SplineSet
390 1160 m 1x78
 390 140 l 1
 950 140 l 1x78
 950 270 l 1
 950 309 981 340 1020 340 c 0
 1059 340 1090 309 1090 270 c 1
 1090 70 l 1
 1090 29.6669921875 1060.33398438 0 1020 0 c 1xb8
 160 0 l 1
 119.671875 0 90 29.6650390625 90 70 c 0
 90 110.333007812 119.669921875 140 160 140 c 1
 250 140 l 1
 250 1160 l 1
 160 1160 l 2
 120 1160 90 1189.66699219 90 1230 c 0
 90 1270.33496094 119.672343033 1299.90163986 160 1300 c 2
 570 1301 l 2
 610.333007812 1301 640 1271.33300781 640 1231 c 0
 640 1190.66503906 610 1161 570 1161 c 2
 390 1160 l 1x78
151 487 m 5
 142 482 131 480 120 480 c 4
 81 480 50 511 50 550 c 4
 50 578 66 602 89 613 c 5
 749 943 l 5
 758 948 769 950 780 950 c 4
 819 950 850 919 850 880 c 4
 850 852 834 828 811 817 c 5
 151 487 l 5
EndSplineSet
Validated: 5
Layer: 2
SplineSet
390 1160 m 5
 390 140 l 5
 950 140 l 5
 950 270 l 5
 950 309 981 340 1020 340 c 4
 1059 340 1090 309 1090 270 c 5
 1090 70 l 5
 1090 29.6669921875 1060.33398438 0 1020 0 c 5
 160 0 l 5
 119.671875 0 90 29.6650390625 90 70 c 132
 90 110.333007812 119.669921875 140 160 140 c 5
 250 140 l 5
 250 1160 l 5
 160 1160 l 6
 120 1160 90 1189.66699219 90 1230 c 132
 90 1270.33496094 119.672343033 1299.90163986 160 1300 c 6
 570 1301 l 6
 610.333007812 1301 640 1271.33300781 640 1231 c 132
 640 1190.66503906 610 1161 570 1161 c 6
 390 1160 l 5
151 487 m 5
 142 482 131 480 120 480 c 4
 81 480 50 511 50 550 c 4
 50 578 66 602 89 613 c 5
 749 943 l 5
 758 948 769 950 780 950 c 4
 819 950 850 919 850 880 c 4
 850 852 834 828 811 817 c 5
 151 487 l 5
EndSplineSet
EndChar

StartChar: M
Encoding: 47 77 64
Width: 1200
GlyphClass: 2
Flags: HW
AnchorPoint: "Anchor-1" 600 0 basechar 0
AnchorPoint: "Anchor-0" 600 1377 basechar 0
LayerCount: 6
Fore
SplineSet
665 484 m 1
 654.79296875 458.08203125 629.786132812 440 600 440 c 0
 570.213867188 440 545.20703125 458.08203125 535 484 c 1
 300 1048 l 1
 300 140 l 1
 390 140 l 1
 430.33203125 140 460 110.334960938 460 70 c 128
 460 29.6669921875 430.333007812 0 390 0 c 2
 70 0 l 2
 29.6743315697 0 0 29.6650390625 0 70 c 128
 0 110.333007812 29.669921875 140 70 140 c 1
 160 140 l 1
 160 1160 l 1
 70 1160 l 1
 29.671875 1160 0 1189.66503906 0 1230 c 128
 0 1270.33300781 29.669921875 1300 70 1300 c 1
 300 1300 l 1
 329.785650153 1300 354.79296875 1281.91796875 365 1256 c 1
 600 692 l 1
 835 1256 l 1
 845.20703125 1281.91796875 870.213867188 1300 900 1300 c 1
 1130 1300 l 1
 1170.33007812 1300 1200 1270.33300781 1200 1230 c 128
 1200 1189.66503906 1170.328125 1160 1130 1160 c 1
 1040 1160 l 1
 1040 140 l 1
 1130 140 l 1
 1170.33007812 140 1200 110.333007812 1200 70 c 128
 1200 29.6650390625 1170.328125 0 1130 0 c 2
 810 0 l 2
 769.668472552 0 740 29.6669921875 740 70 c 128
 740 110.334960938 769.66796875 140 810 140 c 1
 900 140 l 1
 900 1048 l 1
 665 484 l 1
EndSplineSet
Validated: 1048577
Layer: 2
SplineSet
665 484 m 5
 654.79296875 458.08203125 629.786132812 440 600 440 c 4
 570.213867188 440 545.20703125 458.08203125 535 484 c 5
 300 1048 l 5
 300 140 l 5
 390 140 l 5
 430.33203125 140 460 110.334960938 460 70 c 132
 460 29.6669921875 430.333007812 0 390 0 c 6
 70 0 l 6
 29.6743315697 0 0 29.6650390625 0 70 c 132
 0 110.333007812 29.669921875 140 70 140 c 5
 160 140 l 5
 160 1160 l 5
 70 1160 l 5
 29.671875 1160 0 1189.66503906 0 1230 c 132
 0 1270.33300781 29.669921875 1300 70 1300 c 5
 300 1300 l 5
 329.785650153 1300 354.79296875 1281.91796875 365 1256 c 5
 600 692 l 5
 835 1256 l 5
 845.20703125 1281.91796875 870.213867188 1300 900 1300 c 5
 1130 1300 l 5
 1170.33007812 1300 1200 1270.33300781 1200 1230 c 132
 1200 1189.66503906 1170.328125 1160 1130 1160 c 5
 1040 1160 l 5
 1040 140 l 5
 1130 140 l 5
 1170.33007812 140 1200 110.333007812 1200 70 c 132
 1200 29.6650390625 1170.328125 0 1130 0 c 6
 810 0 l 6
 769.668472552 0 740 29.6669921875 740 70 c 132
 740 110.334960938 769.66796875 140 810 140 c 5
 900 140 l 5
 900 1048 l 5
 665 484 l 5
EndSplineSet
EndChar

StartChar: N
Encoding: 48 78 65
Width: 1200
GlyphClass: 2
Flags: HW
AnchorPoint: "Anchor-1" 600 0 basechar 0
AnchorPoint: "Anchor-0" 597 1377 basechar 0
LayerCount: 6
Fore
SplineSet
424.288085938 1258 m 1
 840 251 l 1
 840 1160 l 1
 750 1160 l 1
 709.672851562 1160 680 1189.66503906 680 1230 c 128
 680 1270.33300781 709.671337704 1300 750 1300 c 2
 1070 1300 l 2
 1110.33203125 1300 1140 1270.33496094 1140 1230 c 128
 1140 1189.66699219 1110.33398438 1160 1070 1160 c 1
 980 1160 l 1
 980 70 l 1
 980 31 949 0 910 0 c 1
 840 0 l 1
 810.986624166 0 786.400735392 17.1565123575 775.711914062 42 c 1
 360 1049 l 1
 360 140 l 1
 450 140 l 1
 490.33203125 140 520 110.334960938 520 70 c 128
 520 29.6669921875 490.333984375 0 450 0 c 2
 130 0 l 2
 89.6723142563 0 60 29.6650390625 60 70 c 128
 60 110.333007812 89.669921875 140 130 140 c 1
 220 140 l 1
 220 1160 l 1
 130 1160 l 1
 89.671875 1160 60 1189.66503906 60 1230 c 128
 60 1270.33300781 89.669921875 1300 130 1300 c 1
 360 1300 l 1
 389.013375834 1300 413.599264608 1282.84348764 424.288085938 1258 c 1
EndSplineSet
Validated: 1048577
Layer: 2
SplineSet
424.288085938 1258 m 5
 840 251 l 5
 840 1160 l 5
 750 1160 l 5
 709.672851562 1160 680 1189.66503906 680 1230 c 132
 680 1270.33300781 709.671337704 1300 750 1300 c 6
 1070 1300 l 6
 1110.33203125 1300 1140 1270.33496094 1140 1230 c 132
 1140 1189.66699219 1110.33398438 1160 1070 1160 c 5
 980 1160 l 5
 980 70 l 5
 980 31 949 0 910 0 c 5
 840 0 l 5
 810.986624166 0 786.400735392 17.1565123575 775.711914062 42 c 5
 360 1049 l 5
 360 140 l 5
 450 140 l 5
 490.33203125 140 520 110.334960938 520 70 c 132
 520 29.6669921875 490.333984375 0 450 0 c 6
 130 0 l 6
 89.6723142563 0 60 29.6650390625 60 70 c 132
 60 110.333007812 89.669921875 140 130 140 c 5
 220 140 l 5
 220 1160 l 5
 130 1160 l 5
 89.671875 1160 60 1189.66503906 60 1230 c 132
 60 1270.33300781 89.669921875 1300 130 1300 c 5
 360 1300 l 5
 389.013375834 1300 413.599264608 1282.84348764 424.288085938 1258 c 5
EndSplineSet
EndChar

StartChar: Eng
Encoding: 231 330 70
Width: 1200
GlyphClass: 2
Flags: HW
AnchorPoint: "Anchor-1" 600 0 basechar 0
AnchorPoint: "Anchor-0" 597 1377 basechar 0
LayerCount: 6
Fore
SplineSet
980 -110 m 6
 980 -209.333333333 956.333333333 -292.5 909 -359.5 c 132
 861.666666667 -426.5 798.666666667 -460 720 -460 c 4
 669.333333333 -460 624.666666667 -445.666666667 586 -417 c 132
 547.333333333 -388.333333333 517.333333333 -348.666666667 496 -298 c 4
 492 -289.333333333 490 -280 490 -270 c 4
 490 -250.666666667 496.833333333 -234.166666667 510.5 -220.5 c 132
 524.166666667 -206.833333333 540.666666667 -200 560 -200 c 4
 590.666666667 -200 612 -214 624 -242 c 4
 645.333333333 -294 677.333333333 -320 720 -320 c 4
 756.666666667 -320 785.833333333 -300 807.5 -260 c 132
 829.166666667 -220 840 -170 840 -110 c 6
 840 0 l 5
 826 0 813.166666667 3.83333333333 801.5 11.5 c 132
 789.833333333 19.1666666667 781.333333333 29.3333333333 776 42 c 6
 360 1049 l 5
 360 140 l 5
 450 140 l 6
 470 140 486.666666667 133.333333333 500 120 c 132
 513.333333333 106.666666667 520 90 520 70 c 132
 520 50 513.333333333 33.3333333333 500 20 c 132
 486.666666667 6.66666666667 470 0 450 0 c 6
 130 0 l 6
 110 0 93.3333333333 6.66666666667 80 20 c 132
 66.6666666667 33.3333333333 60 50 60 70 c 132
 60 90 66.6666666667 106.666666667 80 120 c 132
 93.3333333333 133.333333333 110 140 130 140 c 6
 220 140 l 5
 220 1160 l 5
 130 1160 l 6
 110 1160 93.3333333333 1166.66666667 80 1180 c 132
 66.6666666667 1193.33333333 60 1210 60 1230 c 132
 60 1250 66.6666666667 1266.66666667 80 1280 c 132
 93.3333333333 1293.33333333 110 1300 130 1300 c 6
 360 1300 l 6
 374 1300 386.833333333 1296.16666667 398.5 1288.5 c 132
 410.166666667 1280.83333333 418.666666667 1270.66666667 424 1258 c 6
 840 251 l 5
 840 1160 l 5
 750 1160 l 6
 730 1160 713.333333333 1166.66666667 700 1180 c 132
 686.666666667 1193.33333333 680 1210 680 1230 c 132
 680 1250 686.666666667 1266.66666667 700 1280 c 132
 713.333333333 1293.33333333 730 1300 750 1300 c 6
 1070 1300 l 6
 1090 1300 1106.66666667 1293.33333333 1120 1280 c 132
 1133.33333333 1266.66666667 1140 1250 1140 1230 c 132
 1140 1210 1133.33333333 1193.33333333 1120 1180 c 132
 1106.66666667 1166.66666667 1090 1160 1070 1160 c 6
 980 1160 l 5
 980 70 l 5
 980 -110 l 6
840 1160 m 1025
EndSplineSet
Validated: 1048577
Layer: 2
SplineSet
980 -110 m 5
 980 -303 882 -460 720 -460 c 4
 616 -460 537.711914062 -396 495.711914062 -298 c 5
 492.032226562 -289.448242188 490 -279.986328125 490 -270 c 4
 490 -231 521 -200 560 -200 c 4
 589.013671875 -200 613.311523438 -217.15625 624 -242 c 5
 644 -290 677 -320 720 -320 c 4
 796 -320 840 -226 840 -110 c 5
 840 0 l 1
 810.986624166 0 786.400735392 17.1565123575 775.711914062 42 c 1
 360 1049 l 1
 360 140 l 1
 450 140 l 1
 490.33203125 140 520 110.334960938 520 70 c 128
 520 29.6669921875 490.333984375 0 450 0 c 2
 130 0 l 2
 89.6723142563 0 60 29.6650390625 60 70 c 128
 60 110.333007812 89.669921875 140 130 140 c 1
 220 140 l 1
 220 1160 l 1
 130 1160 l 1
 89.671875 1160 60 1189.66503906 60 1230 c 128
 60 1270.33300781 89.669921875 1300 130 1300 c 1
 360 1300 l 1
 389.013375834 1300 413.599264608 1282.84348764 424.288085938 1258 c 1
 840 251 l 1
 840 1160 l 1
 750 1160 l 1
 709.672851562 1160 680 1189.66503906 680 1230 c 128
 680 1270.33300781 709.671337704 1300 750 1300 c 2
 1070 1300 l 2
 1110.33203125 1300 1140 1270.33496094 1140 1230 c 128
 1140 1189.66699219 1110.33398438 1160 1070 1160 c 1
 980 1160 l 1
 980 70 l 1
 980 -110 l 5
840 1160 m 1025
EndSplineSet
EndChar

StartChar: O
Encoding: 49 79 71
Width: 1200
GlyphClass: 2
Flags: HW
AnchorPoint: "Anchor-1" 600 0 basechar 0
AnchorPoint: "Anchor-0" 600 1377 basechar 0
LayerCount: 6
Fore
SplineSet
600 120 m 132
 400 120 250 297 250 650 c 132
 250 1003 400 1180 600 1180 c 132
 800 1180 950 1003 950 650 c 132
 950 297 800 120 600 120 c 132
600 -20 m 132
 879 -20 1090 203 1090 650 c 132
 1090 1097 879 1320 600 1320 c 132
 321 1320 110 1097 110 650 c 132
 110 203 321 -20 600 -20 c 132
600 650 m 1045
EndSplineSet
Validated: 1048585
Layer: 2
SplineSet
600 120 m 132
 400 120 250 297 250 650 c 132
 250 1003 400 1180 600 1180 c 132
 800 1180 950 1003 950 650 c 132
 950 297 800 120 600 120 c 132
600 -20 m 132
 879 -20 1090 203 1090 650 c 132
 1090 1097 879 1320 600 1320 c 132
 321 1320 110 1097 110 650 c 132
 110 203 321 -20 600 -20 c 132
600 650 m 1045
EndSplineSet
Substitution2: "Single Substitution lookup 12 subtable" ordmasculine
Substitution2: "'aalt' Access All Alternates lookup 0 subtable" ordmasculine
EndChar

StartChar: Oacute
Encoding: 148 211 72
Width: 1200
GlyphClass: 2
Flags: HW
AnchorPoint: "Anchor-1" 600 0 basechar 0
AnchorPoint: "Anchor-0" 600 1377 basechar 0
LayerCount: 6
Fore
SplineSet
745 1791 m 2
 755 1797 766.666666667 1800 780 1800 c 0
 800.666666667 1800 818.333333333 1792.66666667 833 1778 c 0
 847.666666667 1763.33333333 855 1745.66666667 855 1725 c 0
 855 1709.66666667 850.5 1695.5 841.5 1682.5 c 0
 832.5 1669.5 820.666666667 1660.33333333 806 1655 c 2
 458 1523 l 2
 452 1521 446 1520 440 1520 c 0
 426 1520 414.166666667 1524.83333333 404.5 1534.5 c 0
 394.833333333 1544.16666667 390 1556 390 1570 c 0
 390 1590.66666667 398.666666667 1605.33333333 416 1614 c 2
 745 1791 l 2
EndSplineSet
Refer: 71 79 N 1 0 0 1 0 0 3
Validated: 1048585
Layer: 2
SplineSet
745 1791 m 5
 755 1797 767 1800 780 1800 c 4
 821 1800 855 1766 855 1725 c 4
 855 1693 834 1666 806 1655 c 5
 458 1523 l 5
 452 1521 446 1520 440 1520 c 4
 412 1520 390 1542 390 1570 c 4
 390 1589 400 1606 416 1614 c 5
 745 1791 l 5
EndSplineSet
Substitution2: "'locl' Localized Forms in Latin lookup 22 subtable" Oacute.loclPLK
Substitution2: "'aalt' Access All Alternates lookup 0 subtable" Oacute.loclPLK
EndChar

StartChar: Ocircumflex
Encoding: 149 212 74
Width: 1200
GlyphClass: 2
Flags: HW
AnchorPoint: "Anchor-1" 600 0 basechar 0
AnchorPoint: "Anchor-0" 600 1377 basechar 0
LayerCount: 6
Fore
SplineSet
600 1810 m 0
 615.333333333 1810 629.333333333 1805.33333333 642 1796 c 2
 910 1590 l 2
 923.333333333 1580 930 1566.66666667 930 1550 c 0
 930 1536 925.166666667 1524.16666667 915.5 1514.5 c 0
 905.833333333 1504.83333333 894 1500 880 1500 c 0
 872 1500 863.333333333 1502.33333333 854 1507 c 2
 600 1659 l 1
 346 1507 l 2
 336.666666667 1502.33333333 328 1500 320 1500 c 0
 306 1500 294.166666667 1504.83333333 284.5 1514.5 c 0
 274.833333333 1524.16666667 270 1536 270 1550 c 0
 270 1566.66666667 276.666666667 1580 290 1590 c 2
 558 1796 l 2
 570.666666667 1805.33333333 584.666666667 1810 600 1810 c 0
EndSplineSet
Refer: 71 79 N 1 0 0 1 0 0 3
Validated: 1048585
Layer: 2
SplineSet
600 1810 m 4
 616 1810 630 1805 642 1796 c 5
 910 1590 l 5
 922 1581 930 1567 930 1550 c 4
 930 1522 908 1500 880 1500 c 4
 870 1500 862 1503 854 1507 c 5
 600 1659 l 5
 346 1507 l 5
 338 1503 330 1500 320 1500 c 4
 292 1500 270 1522 270 1550 c 4
 270 1567 278 1581 290 1590 c 5
 558 1796 l 5
 570 1805 584 1810 600 1810 c 4
EndSplineSet
EndChar

StartChar: Ograve
Encoding: 147 210 76
Width: 1200
GlyphClass: 2
Flags: HW
AnchorPoint: "Anchor-1" 600 0 basechar 0
AnchorPoint: "Anchor-0" 600 1377 basechar 0
LayerCount: 6
Fore
Refer: 1686 -1 S 1 0 0 1 0 0 2
Refer: 71 79 N 1 0 0 1 0 0 3
Validated: 1048585
Layer: 2
SplineSet
455 1791 m 5
 445 1797 433 1800 420 1800 c 4
 379 1800 345 1766 345 1725 c 4
 345 1693 366 1666 394 1655 c 5
 742 1523 l 5
 748 1521 754 1520 760 1520 c 4
 788 1520 810 1542 810 1570 c 4
 810 1589 800 1606 784 1614 c 5
 455 1791 l 5
EndSplineSet
EndChar

StartChar: Omacron
Encoding: 234 332 78
Width: 1200
GlyphClass: 2
Flags: HW
AnchorPoint: "Anchor-1" 600 0 basechar 0
AnchorPoint: "Anchor-0" 600 1377 basechar 0
LayerCount: 6
Fore
Refer: 71 79 N 1 0 0 1 0 0 3
Refer: 1694 -1 S 1 0 0 1 -0.0927734 0 2
Validated: 1048585
Layer: 2
SplineSet
800 1560 m 5
 400 1560 l 5
 361 1560 330 1591 330 1630 c 4
 330 1669 361 1700 400 1700 c 5
 800 1700 l 5
 839 1700 870 1669 870 1630 c 4
 870 1591 839 1560 800 1560 c 5
EndSplineSet
EndChar

StartChar: Oslash
Encoding: 153 216 79
Width: 1200
GlyphClass: 2
Flags: HW
AnchorPoint: "Anchor-1" 600 0 basechar 0
AnchorPoint: "Anchor-0" 600 1377 basechar 0
LayerCount: 6
Fore
SplineSet
915 1013 m 1
 1021 1119 l 2
 1035 1133 1051.33333333 1140 1070 1140 c 0
 1089.33333333 1140 1105.83333333 1133.16666667 1119.5 1119.5 c 128
 1133.16666667 1105.83333333 1140 1089.33333333 1140 1070 c 0
 1140 1051.33333333 1133 1035 1119 1021 c 2
 1013 915 l 1
 1084.33333333 822.333333333 1120 717.333333333 1120 600 c 0
 1120 529.333333333 1106.33333333 462 1079 398 c 128
 1051.66666667 334 1014.66666667 278.666666667 968 232 c 128
 921.333333333 185.333333333 866 148.333333333 802 121 c 128
 738 93.6666666667 670.666666667 80 600 80 c 0
 482.666666667 80 377.666666667 115.666666667 285 187 c 1
 179 81 l 2
 165 67 148.666666667 60 130 60 c 0
 110.666666667 60 94.1666666667 66.8333333333 80.5 80.5 c 128
 66.8333333333 94.1666666667 60 110.666666667 60 130 c 0
 60 148.666666667 67 165 81 179 c 2
 187 285 l 1
 115.666666667 377.666666667 80 482.666666667 80 600 c 0
 80 670.666666667 93.6666666667 738 121 802 c 128
 148.333333333 866 185.333333333 921.333333333 232 968 c 128
 278.666666667 1014.66666667 334 1051.66666667 398 1079 c 128
 462 1106.33333333 529.333333333 1120 600 1120 c 0
 717.333333333 1120 822.333333333 1084.33333333 915 1013 c 1
913 815 m 1
 385 287 l 1
 449.666666667 242.333333333 521.333333333 220 600 220 c 0
 705.333333333 220 795 257 869 331 c 128
 943 405 980 494.666666667 980 600 c 0
 980 678.666666667 957.666666667 750.333333333 913 815 c 1
815 913 m 1
 750.333333333 957.666666667 678.666666667 980 600 980 c 0
 494.666666667 980 405 943 331 869 c 128
 257 795 220 705.333333333 220 600 c 0
 220 521.333333333 242.333333333 449.666666667 287 385 c 1
 287 385 287 385 815 913 c 1
EndSplineSet
Validated: 1048577
Layer: 2
SplineSet
915 1013 m 5
 1021 1119 l 5
 1035 1133 1051.33300781 1140 1070 1140 c 4
 1109.04882812 1140 1140 1109.04882812 1140 1070 c 4
 1140 1051.33300781 1133 1035 1119 1021 c 5
 1013 915 l 5
 1080 828 1120 718 1120 600 c 4
 1120 313 887 80 600 80 c 4
 482 80 372 120 285 187 c 5
 179 81 l 5
 165 67 148.666992188 60 130 60 c 4
 90.951171875 60 60 90.951171875 60 130 c 4
 60 148.666992188 67 165 81 179 c 5
 187 285 l 5
 120 372 80 482 80 600 c 4
 80 887 313 1120 600 1120 c 4
 718 1120 828 1080 915 1013 c 5
913 815 m 5
 385 287 l 5
 446 245 520 220 600 220 c 4
 810 220 980 390 980 600 c 4
 980 680 955 754 913 815 c 5
815 913 m 5
 754 955 680 980 600 980 c 4
 390 980 220 810 220 600 c 4
 220 520 245 446 287 385 c 5
 815 913 l 5
EndSplineSet
Layer: 3
SplineSet
915.368599652 1013.36859965 m 5
 815.265014312 913.265014312 l 5
 853.617180509 886.87280995 886.87280995 853.617180509 913.265014312 815.265014312 c 5
 1013.36859965 915.368599652 l 1029
284.631400348 186.631400348 m 5
 384.734985688 286.734985688 l 5
 346.382819491 313.12719005 313.12719005 346.382819491 286.734985688 384.734985688 c 5
 186.631400348 284.631400348 l 1029
915.368599652 1013.36859965 m 5
 952.220119325 985.200814241 985.200814241 952.220119325 1013.36859965 915.368599652 c 1029
284.631400348 186.631400348 m 5
 247.779880675 214.799185759 214.799185759 247.779880675 186.631400348 284.631400348 c 1029
EndSplineSet
EndChar

StartChar: Otilde
Encoding: 150 213 81
Width: 1200
GlyphClass: 2
Flags: HW
AnchorPoint: "Anchor-1" 600 0 basechar 0
AnchorPoint: "Anchor-0" 600 1377 basechar 0
LayerCount: 6
Fore
SplineSet
720 1680 m 0
 707.333333333 1680 687.833333333 1688.33333333 661.5 1705 c 0
 635.166666667 1721.66666667 605.5 1738.33333333 572.5 1755 c 0
 539.5 1771.66666667 508.666666667 1780 480 1780 c 0
 458.271159535 1780 435.24574081 1774.19480687 410.923743825 1762.5844206 c 0
 386.60174684 1750.97403433 365.306377625 1737.22355023 347.03763618 1721.33296832 c 0
 328.768894735 1705.44238641 313.58258467 1691.07936545 301.478705983 1678.24390546 c 0
 289.374827296 1665.40844547 281.579516448 1655.99381031 278.092773438 1650 c 0
 272.697591146 1640.7269664 270 1630.7269664 270 1620 c 0
 270 1603.33333333 275.833333333 1589.16666667 287.5 1577.5 c 0
 299.166666667 1565.83333333 313.333333333 1560 330 1560 c 0
 352.970338712 1560 370.272747566 1570 381.907226562 1590 c 0
 388.462774691 1601.26742615 401.459532546 1615.75094936 420.897500129 1633.45056961 c 0
 440.335467712 1651.15018987 460.036301002 1660 480 1660 c 0
 492.666666667 1660 512.166666667 1651.66666667 538.5 1635 c 0
 564.833333333 1618.33333333 594.5 1601.66666667 627.5 1585 c 0
 660.5 1568.33333333 691.333333333 1560 720 1560 c 0
 741.728840465 1560 764.75425919 1565.80519313 789.076256175 1577.4155794 c 0
 813.39825316 1589.02596567 834.693622375 1602.77644977 852.96236382 1618.66703168 c 0
 871.231105265 1634.55761359 886.41741533 1648.92063455 898.521294017 1661.75609454 c 0
 910.625172704 1674.59155453 918.420483552 1684.00618969 921.907226562 1690 c 0
 927.302408854 1699.2730336 930 1709.2730336 930 1720 c 0
 930 1736.66666667 924.166666667 1750.83333333 912.5 1762.5 c 0
 900.833333333 1774.16666667 886.666666667 1780 870 1780 c 0
 847.029661288 1780 829.727252434 1770 818.092773438 1750 c 0
 811.537225309 1738.73257385 798.540467454 1724.24905064 779.102499871 1706.54943039 c 0
 759.664532288 1688.84981013 739.963698998 1680 720 1680 c 0
EndSplineSet
Refer: 71 79 N 1 0 0 1 0 0 3
Validated: 1048585
Layer: 2
SplineSet
720 1680 m 7
 670 1680 580 1780 480 1780 c 7
 386 1780 288.505859375 1667.90039062 278.092773438 1650 c 4
 272.950195312 1641.16113281 270 1630.90820312 270 1620 c 4
 270 1587 297 1560 330 1560 c 4
 352.091796875 1560 371.494140625 1572.09960938 381.907226562 1590 c 4
 387.049804688 1598.83886719 433 1660 480 1660 c 7
 530 1660 620 1560 720 1560 c 7
 814 1560 911.494140625 1672.09960938 921.907226562 1690 c 4
 927.049804688 1698.83886719 930 1709.09179688 930 1720 c 4
 930 1753 903 1780 870 1780 c 4
 847.908203125 1780 828.505859375 1767.90039062 818.092773438 1750 c 4
 812.950195312 1741.16113281 767 1680 720 1680 c 7
EndSplineSet
EndChar

StartChar: OE
Encoding: 236 338 82
Width: 1200
GlyphClass: 2
Flags: HW
AnchorPoint: "Anchor-1" 600 0 basechar 0
AnchorPoint: "Anchor-0" 600 1377 basechar 0
LayerCount: 6
Fore
SplineSet
1010 610 m 6
 703 610 l 5
 703 750 l 5
 1010 750 l 6
 1029.33333333 750 1045.83333333 743.166666667 1059.5 729.5 c 132
 1073.16666667 715.833333333 1080 699.333333333 1080 680 c 132
 1080 660.666666667 1073.16666667 644.166666667 1059.5 630.5 c 132
 1045.83333333 616.833333333 1029.33333333 610 1010 610 c 6
1150 1160 m 6
 489 1160 l 5
 489 1300 l 5
 1150 1300 l 6
 1169.33333333 1300 1185.83333333 1293.16666667 1199.5 1279.5 c 132
 1213.16666667 1265.83333333 1220 1249.33333333 1220 1230 c 132
 1220 1210.66666667 1213.16666667 1194.16666667 1199.5 1180.5 c 132
 1185.83333333 1166.83333333 1169.33333333 1160 1150 1160 c 6
1150 0 m 6
 489 0 l 5
 489 140 l 5
 1150 140 l 6
 1169.33333333 140 1185.83333333 133.166666667 1199.5 119.5 c 132
 1213.16666667 105.833333333 1220 89.3333333333 1220 70 c 132
 1220 50.6666666667 1213.16666667 34.1666666667 1199.5 20.5 c 132
 1185.83333333 6.83333333333 1169.33333333 0 1150 0 c 6
110 650 m 132
 110 479.333333333 135.833333333 348.333333333 187.5 257 c 132
 239.166666667 165.666666667 306.666666667 120 390 120 c 132
 473.333333333 120 540.833333333 165.666666667 592.5 257 c 132
 644.166666667 348.333333333 670 479.333333333 670 650 c 132
 670 820.666666667 644.166666667 951.666666667 592.5 1043 c 132
 540.833333333 1134.33333333 473.333333333 1180 390 1180 c 132
 306.666666667 1180 239.166666667 1134.33333333 187.5 1043 c 132
 135.833333333 951.666666667 110 820.666666667 110 650 c 132
-30 650 m 132
 -30 758.666666667 -18.6666666667 856.166666667 4 942.5 c 132
 26.6666666667 1028.83333333 57.3333333333 1099.16666667 96 1153.5 c 132
 134.666666667 1207.83333333 179 1249.16666667 229 1277.5 c 132
 279 1305.83333333 332.666666667 1320 390 1320 c 132
 447.333333333 1320 501 1305.83333333 551 1277.5 c 132
 601 1249.16666667 645.333333333 1207.83333333 684 1153.5 c 132
 722.666666667 1099.16666667 753.333333333 1028.83333333 776 942.5 c 132
 798.666666667 856.166666667 810 758.666666667 810 650 c 132
 810 541.333333333 798.666666667 443.833333333 776 357.5 c 132
 753.333333333 271.166666667 722.666666667 200.833333333 684 146.5 c 132
 645.333333333 92.1666666667 601 50.8333333333 551 22.5 c 132
 501 -5.83333333333 447.333333333 -20 390 -20 c 132
 332.666666667 -20 279 -5.83333333333 229 22.5 c 132
 179 50.8333333333 134.666666667 92.1666666667 96 146.5 c 132
 57.3333333333 200.833333333 26.6666666667 271.166666667 4 357.5 c 132
 -18.6666666667 443.833333333 -30 541.333333333 -30 650 c 132
EndSplineSet
Validated: 1048581
Layer: 2
SplineSet
1010 610 m 5
 703 610 l 5
 703 750 l 5
 1010 750 l 5
 1049 750 1080 719 1080 680 c 4
 1080 641 1049 610 1010 610 c 5
1150 1160 m 5
 489 1160 l 5
 489 1300 l 5
 1150 1300 l 5
 1189 1300 1220 1269 1220 1230 c 4
 1220 1191 1189 1160 1150 1160 c 5
1150 0 m 5
 489 0 l 5
 489 140 l 5
 1150 140 l 5
 1189 140 1220 109 1220 70 c 4
 1220 31 1189 0 1150 0 c 5
110 650 m 132
 110 297 230 120 390 120 c 132
 550 120 670 297 670 650 c 132
 670 1003 550 1180 390 1180 c 132
 230 1180 110 1003 110 650 c 132
-30 650 m 132
 -30 1097 165 1320 390 1320 c 132
 615 1320 810 1097 810 650 c 132
 810 203 615 -20 390 -20 c 132
 165 -20 -30 203 -30 650 c 132
EndSplineSet
EndChar

StartChar: P
Encoding: 50 80 83
Width: 1200
GlyphClass: 2
Flags: HW
AnchorPoint: "Anchor-1" 600 0 basechar 0
AnchorPoint: "Anchor-0" 600 1377 basechar 0
LayerCount: 6
Fore
SplineSet
675 530 m 1
 450 530 l 1
 450 140 l 1
 630 140 l 2
 670 140 700 110.334960938 700 70 c 128
 700 29.6669921875 670.334960938 0 630 0 c 1
 220 0 l 1
 181 0 150 31 150 70 c 3
 150 109 181 140 220 140 c 1
 310 140 l 1
 310 1160 l 1
 220 1160 l 1
 181 1160 150 1191 150 1230 c 3
 150 1269 181 1300 220 1300 c 1
 675 1300 l 5
 888 1300 1060 1128 1060 915 c 0
 1060 702 888 530 675 530 c 1
675 670 m 1
 810 670 920 780 920 915 c 0
 920 1050 810 1160 675 1160 c 1
 450 1160 l 1
 450 670 l 1
 675 670 l 1
EndSplineSet
Validated: 1048577
Layer: 2
SplineSet
675 530 m 5
 450 530 l 5
 450 140 l 5
 630 140 l 6
 670 140 700 110.334960938 700 70 c 132
 700 29.6669921875 670.334960938 0 630 0 c 5
 220 0 l 5
 181 0 150 31 150 70 c 7
 150 109 181 140 220 140 c 5
 310 140 l 5
 310 1160 l 5
 220 1160 l 5
 181 1160 150 1191 150 1230 c 7
 150 1269 181 1300 220 1300 c 5
 675 1300 l 5
 888 1300 1060 1128 1060 915 c 4
 1060 702 888 530 675 530 c 5
675 670 m 5
 810 670 920 780 920 915 c 4
 920 1050 810 1160 675 1160 c 5
 450 1160 l 5
 450 670 l 5
 675 670 l 5
EndSplineSet
EndChar

StartChar: Thorn
Encoding: 159 222 84
Width: 1200
GlyphClass: 2
Flags: HW
AnchorPoint: "Anchor-1" 600 0 basechar 0
AnchorPoint: "Anchor-0" 600 1377 basechar 0
LayerCount: 6
Fore
SplineSet
450 1035 m 5
 675 1035 l 5
 888 1035 1060 863 1060 650 c 4
 1060 437 888 265 675 265 c 5
 450 265 l 5
 450 140 l 5
 630 140 l 6
 670 140 700 110.334960938 700 70 c 132
 700 29.6669921875 670.334960938 0 630 0 c 5
 220 0 l 5
 181 0 150 31 150 70 c 7
 150 109 181 140 220 140 c 5
 310 140 l 5
 310 1160 l 5
 220 1160 l 5
 181 1160 150 1191 150 1230 c 7
 150 1269 181 1300 220 1300 c 5
 630 1300 l 5
 670.334960938 1300 700 1270.33300781 700 1230 c 132
 700 1189.66503906 670 1160 630 1160 c 6
 450 1160 l 5
 450 1035 l 5
675 405 m 5
 810 405 920 515 920 650 c 4
 920 785 810 895 675 895 c 5
 450 895 l 5
 450 405 l 5
 675 405 l 5
EndSplineSet
Validated: 1048577
Layer: 2
SplineSet
450 1035 m 5
 675 1035 l 5
 888 1035 1060 863 1060 650 c 4
 1060 437 888 265 675 265 c 5
 450 265 l 5
 450 140 l 5
 630 140 l 6
 670 140 700 110.334960938 700 70 c 132
 700 29.6669921875 670.334960938 0 630 0 c 5
 220 0 l 5
 181 0 150 31 150 70 c 7
 150 109 181 140 220 140 c 5
 310 140 l 5
 310 1160 l 5
 220 1160 l 5
 181 1160 150 1191 150 1230 c 7
 150 1269 181 1300 220 1300 c 5
 630 1300 l 5
 670.334960938 1300 700 1270.33300781 700 1230 c 132
 700 1189.66503906 670 1160 630 1160 c 6
 450 1160 l 5
 450 1035 l 5
675 405 m 5
 810 405 920 515 920 650 c 4
 920 785 810 895 675 895 c 5
 450 895 l 5
 450 405 l 5
 675 405 l 5
EndSplineSet
EndChar

StartChar: Q
Encoding: 51 81 85
Width: 1200
GlyphClass: 2
Flags: HW
AnchorPoint: "Anchor-1" 600 0 basechar 0
AnchorPoint: "Anchor-0" 600 1377 basechar 0
LayerCount: 6
Fore
SplineSet
916 131 m 1
 938 67 964 0 1010 0 c 0
 1063 0 1098 47 1111 60 c 0
 1124 72 1141 80 1160 80 c 0
 1199 80 1230 49 1230 10 c 0
 1230 -10 1222 -27 1209 -40 c 0
 1196 -52 1134 -140 1001 -140 c 0
 946 -140 876 -126 805 38 c 1
 738 -1 662 -20 580 -20 c 128
 301 -20 90 203 90 650 c 128
 90 1097 301 1320 580 1320 c 128
 859 1320 1070 1097 1070 650 c 128
 1070 415 1012 242 916 131 c 1
850 284 m 1
 900 371 930 493 930 650 c 128
 930 1003 780 1180 580 1180 c 128
 380 1180 230 1003 230 650 c 128
 230 493 260 371 310 284 c 1
 371 389 459 460 580 460 c 0
 701 460 789 389 850 284 c 1
752 173 m 1
 715 258 664 320 580 320 c 0
 496 320 445 258 408 173 c 1
 458 137 517 120 580 120 c 128
 643 120 702 137 752 173 c 1
EndSplineSet
Validated: 1048577
Layer: 2
SplineSet
916 131 m 5
 938 67 964 0 1010 0 c 4
 1063 0 1098 47 1111 60 c 4
 1124 72 1141 80 1160 80 c 4
 1199 80 1230 49 1230 10 c 4
 1230 -10 1222 -27 1209 -40 c 4
 1196 -52 1134 -140 1001 -140 c 4
 946 -140 876 -126 805 38 c 5
 738 -1 662 -20 580 -20 c 132
 301 -20 90 203 90 650 c 132
 90 1097 301 1320 580 1320 c 132
 859 1320 1070 1097 1070 650 c 132
 1070 415 1012 242 916 131 c 5
850 284 m 5
 900 371 930 493 930 650 c 132
 930 1003 780 1180 580 1180 c 132
 380 1180 230 1003 230 650 c 132
 230 493 260 371 310 284 c 5
 371 389 459 460 580 460 c 4
 701 460 789 389 850 284 c 5
752 173 m 5
 715 258 664 320 580 320 c 4
 496 320 445 258 408 173 c 5
 458 137 517 120 580 120 c 132
 643 120 702 137 752 173 c 5
EndSplineSet
Layer: 5
SplineSet
1001 -140 m 4
 1134 -140 1196.65234375 -52.4033203125 1209.24707031 -40 c 4
 1222.09472656 -27.34765625 1230 -9.693359375 1230 10 c 4
 1230 49 1199 80 1160 80 c 4
 1140.69335938 80 1123.34765625 72.4033203125 1110.75292969 60 c 4
 1097.90527344 47.34765625 1063 0 1010 0 c 4
 955 0 929 96 904 167 c 4
 845.801757812 332.284179688 742.517578125 460 580 460 c 4
 417.482421875 460 315 332 256 167 c 5
 385 115 l 5
 424 228 477.813476562 320 580 320 c 4
 682.186523438 320 736.113320847 228.039076122 775 115 c 4
 856.530593449 -122 938 -140 1001 -140 c 4
580 120 m 132
 380 120 230 297 230 650 c 132
 230 1003 380 1180 580 1180 c 132
 780 1180 930 1003 930 650 c 132
 930 297 780 120 580 120 c 132
580 -20 m 132
 859 -20 1070 203 1070 650 c 132
 1070 1097 859 1320 580 1320 c 132
 301 1320 90 1097 90 650 c 132
 90 203 301 -20 580 -20 c 132
EndSplineSet
EndChar

StartChar: R
Encoding: 52 82 86
Width: 1200
GlyphClass: 2
Flags: HW
AnchorPoint: "Anchor-1" 597 0 basechar 0
AnchorPoint: "Anchor-0" 600 1377 basechar 0
LayerCount: 6
Fore
SplineSet
804 617 m 1
 915 680 990 798.960298314 990 935 c 0
 990 1136 826 1300 625 1300 c 1
 160 1300 l 1
 121 1300 90 1269 90 1230 c 3
 90 1191 121 1160 160 1160 c 1
 250 1160 l 1
 250 140 l 1
 160 140 l 1
 121 140 90 109 90 70 c 3
 90 31 121 0 160 0 c 1
 480 0 l 1
 520.334960938 0 550 29.6669921875 550 70 c 128
 550 110.334960938 520 140 480 140 c 2
 390 140 l 1
 390 570 l 1
 590 570 l 1
 865 570 659.998437504 -20 980 -20 c 3
 1050.0833492 -20 1115.25683594 21.810546875 1151 85 c 1
 1156.86523438 95.2626953125 1160 107.200672313 1160 120 c 0
 1160 159 1129 190 1090 190 c 0
 1063.79932769 190 1041.00585938 176.008789062 1029 155 c 1
 1017.98535156 134.237304688 998.98362021 120 980 120 c 3
 875.909100432 120 938 451 804 617 c 1
  Spiro
    804 617 v
    901.473 697.117 o
    966.49 806.214 o
    990 935 o
    940.132 1118.8 o
    808.801 1250.13 o
    625 1300 v
    160 1300 v
    124.55 1290.54 o
    99.4634 1265.45 o
    90 1230 o
    99.4634 1194.55 o
    124.55 1169.46 o
    160 1160 v
    250 1160 v
    250 140 v
    160 140 v
    124.55 130.537 o
    99.4634 105.45 o
    90 70 o
    99.4634 34.5496 o
    124.55 9.46338 o
    160 0 v
    480 0 v
    516.044 9.1676 o
    540.833 33.9572 o
    550 70 o
    540.759 106.044 o
    515.895 130.833 o
    480 140 [
    390 140 v
    390 570 v
    590 570 v
    742.155 417.299 o
    797.859 132.701 o
    980 -20 o
    1047.47 -6.84547 o
    1106.41 29.7403 o
    1151 85 v
    1155.94 95.7797 o
    1158.97 107.53 o
    1160 120 o
    1150.54 155.45 o
    1125.45 180.537 o
    1090 190 o
    1065.23 185.603 o
    1044.31 173.396 o
    1029 155 v
    1015.63 136.714 o
    998.675 124.452 o
    980 120 o
    917.919 211.797 o
    886.01 414.591 o
    0 0 z
  EndSpiro
625 710 m 1
 390 710 l 1
 390 1160 l 1
 625 1160 l 1
 749 1160 850 1059 850 935 c 0
 850 811 749 710 625 710 c 1
  Spiro
    625 710 v
    390 710 v
    390 1160 v
    625 1160 v
    738.344 1129.28 o
    819.281 1048.34 o
    850 935 o
    819.281 821.656 o
    738.344 740.719 o
    0 0 z
  EndSpiro
EndSplineSet
Validated: 1048585
Layer: 2
SplineSet
804 617 m 5
 915 680 990 798.960298314 990 935 c 4
 990 1136 826 1300 625 1300 c 5
 160 1300 l 5
 121 1300 90 1269 90 1230 c 7
 90 1191 121 1160 160 1160 c 5
 250 1160 l 5
 250 140 l 5
 160 140 l 5
 121 140 90 109 90 70 c 7
 90 31 121 0 160 0 c 5
 480 0 l 5
 520.334960938 0 550 29.6669921875 550 70 c 132
 550 110.334960938 520 140 480 140 c 6
 390 140 l 5
 390 570 l 5
 590 570 l 5
 865 570 659.998437504 -20 980 -20 c 7
 1050.0833492 -20 1115.25683594 21.810546875 1151 85 c 5
 1156.86523438 95.2626953125 1160 107.200672313 1160 120 c 4
 1160 159 1129 190 1090 190 c 4
 1063.79932769 190 1041.00585938 176.008789062 1029 155 c 5
 1017.98535156 134.237304688 998.98362021 120 980 120 c 7
 875.909100432 120 938 451 804 617 c 5
  Spiro
    804 617 v
    901.473 697.117 o
    966.49 806.214 o
    990 935 o
    940.132 1118.8 o
    808.801 1250.13 o
    625 1300 v
    160 1300 v
    124.55 1290.54 o
    99.4634 1265.45 o
    90 1230 o
    99.4634 1194.55 o
    124.55 1169.46 o
    160 1160 v
    250 1160 v
    250 140 v
    160 140 v
    124.55 130.537 o
    99.4634 105.45 o
    90 70 o
    99.4634 34.5496 o
    124.55 9.46338 o
    160 0 v
    480 0 v
    516.044 9.1676 o
    540.833 33.9572 o
    550 70 o
    540.759 106.044 o
    515.895 130.833 o
    480 140 [
    390 140 v
    390 570 v
    590 570 v
    742.155 417.299 o
    797.859 132.701 o
    980 -20 o
    1047.47 -6.84547 o
    1106.41 29.7403 o
    1151 85 v
    1155.94 95.7797 o
    1158.97 107.53 o
    1160 120 o
    1150.54 155.45 o
    1125.45 180.537 o
    1090 190 o
    1065.23 185.603 o
    1044.31 173.396 o
    1029 155 v
    1015.63 136.714 o
    998.675 124.452 o
    980 120 o
    917.919 211.797 o
    886.01 414.591 o
    0 0 z
  EndSpiro
625 710 m 5
 390 710 l 5
 390 1160 l 5
 625 1160 l 5
 749 1160 850 1059 850 935 c 4
 850 811 749 710 625 710 c 5
  Spiro
    625 710 v
    390 710 v
    390 1160 v
    625 1160 v
    738.344 1129.28 o
    819.281 1048.34 o
    850 935 o
    819.281 821.656 o
    738.344 740.719 o
    0 0 z
  EndSpiro
EndSplineSet
EndChar

StartChar: S
Encoding: 53 83 90
Width: 1200
GlyphClass: 2
Flags: HW
AnchorPoint: "Anchor-1" 593 0 basechar 0
AnchorPoint: "Anchor-0" 611 1353 basechar 0
LayerCount: 6
Fore
SplineSet
875 1212 m 1
 875 1230 l 1
 875 1269 906 1300 945 1300 c 0
 984 1300 1015 1269 1015 1230 c 1
 1015 910 l 1
 1015 871 984 840 945 840 c 0
 906 840 875 871 875 910 c 1
 875 940 l 1
 875 1000.66699219 824.666992188 1072.5 774 1115.5 c 128
 723.333007812 1158.5 662 1180 590 1180 c 128
 518 1180 456.666992188 1158.5 406 1115.5 c 128
 355.333007812 1072.5 330 1020.66699219 330 960 c 128
 330 899.333007812 360.333007812 847.5 411 804.5 c 128
 527.245369663 705.845024054 741.915039062 825.42578125 921 663 c 128
 1007 585 1060 490.666992188 1060 380 c 128
 1060 269.333007812 1017 175 931 97 c 128
 845 19 741.333007812 -20 620 -20 c 128
 438.68359375 -20 340.09375 68.4521484375 304 102 c 1
 304 70 l 1
 304 31 273 0 234 0 c 0
 195 0 164 31 164 70 c 1
 164 400 l 1
 164 439 195 470 234 470 c 0
 273 470 304 439 304 400 c 1
 304 380 l 1
 304 308 349.166992188 246.666992188 407.5 196 c 128
 465.833007812 145.333007812 536.666992188 120 620 120 c 128
 703.333007812 120 774.166992188 145.333007812 832.5 196 c 128
 890.833007812 246.666992188 920 308 920 380 c 128
 920 452 880.833007812 513.333007812 822.5 564 c 128
 691.430664062 677.842773438 478.534179688 555.333984375 312 705.5 c 128
 234.000297019 775.833337208 190 860.666992188 190 960 c 128
 190 1059.33300781 229 1144.16699219 307 1214.5 c 128
 385 1284.83300781 479.333007812 1320 590 1320 c 128
 700.666992188 1320 797 1282.33300781 875 1212 c 1
620 380 m 1025
600 36 m 1049
601 1316 m 1049
EndSplineSet
Validated: 1048577
Layer: 2
SplineSet
875 1212 m 5
 875 1230 l 5
 875 1269 906 1300 945 1300 c 4
 984 1300 1015 1269 1015 1230 c 5
 1015 910 l 5
 1015 871 984 840 945 840 c 4
 906 840 875 871 875 910 c 5
 875 940 l 5
 875 1000.66699219 824.666992188 1072.5 774 1115.5 c 132
 723.333007812 1158.5 662 1180 590 1180 c 132
 518 1180 456.666992188 1158.5 406 1115.5 c 132
 355.333007812 1072.5 330 1020.66699219 330 960 c 132
 330 899.333007812 360.333007812 847.5 411 804.5 c 132
 527.245369663 705.845024054 741.915039062 825.42578125 921 663 c 132
 1007 585 1060 490.666992188 1060 380 c 132
 1060 269.333007812 1017 175 931 97 c 132
 845 19 741.333007812 -20 620 -20 c 132
 438.68359375 -20 340.09375 68.4521484375 304 102 c 5
 304 70 l 5
 304 31 273 0 234 0 c 4
 195 0 164 31 164 70 c 5
 164 400 l 5
 164 439 195 470 234 470 c 4
 273 470 304 439 304 400 c 5
 304 380 l 5
 304 308 349.166992188 246.666992188 407.5 196 c 132
 465.833007812 145.333007812 536.666992188 120 620 120 c 132
 703.333007812 120 774.166992188 145.333007812 832.5 196 c 132
 890.833007812 246.666992188 920 308 920 380 c 132
 920 452 880.833007812 513.333007812 822.5 564 c 132
 691.430664062 677.842773438 478.534179688 555.333984375 312 705.5 c 132
 234.000297019 775.833337208 190 860.666992188 190 960 c 132
 190 1059.33300781 229 1144.16699219 307 1214.5 c 132
 385 1284.83300781 479.333007812 1320 590 1320 c 132
 700.666992188 1320 797 1282.33300781 875 1212 c 5
620 380 m 1025
590 960 m 1025
EndSplineSet
EndChar

StartChar: Scedilla
Encoding: 242 350 93
Width: 1200
GlyphClass: 2
Flags: HW
AnchorPoint: "Anchor-1" 593 0 basechar 0
AnchorPoint: "Anchor-0" 611 1377 basechar 0
LayerCount: 6
Fore
SplineSet
600 1268 m 1048
EndSplineSet
Refer: 90 83 S 1 0 0 1 0 0 3
Refer: 1695 -1 N 1 0 0 1 -7 0 2
Validated: 1048581
Substitution2: "'locl' Localized Forms in Latin lookup 20 subtable" Scommaaccent
Substitution2: "'locl' Localized Forms in Latin lookup 19 subtable" Scommaaccent
Substitution2: "'aalt' Access All Alternates lookup 0 subtable" Scommaaccent
EndChar

StartChar: uni1E9E
Encoding: 245 7838 96
Width: 1200
GlyphClass: 1
Flags: HW
LayerCount: 6
Fore
SplineSet
1029 1152 m 6
 1036.33333333 1163.33333333 1040 1176 1040 1190 c 4
 1040 1206 1035.33333333 1220.16666667 1026 1232.5 c 132
 1016.66666667 1244.83333333 1004.33333333 1253 989 1257 c 4
 873 1285.66666667 746.666666667 1300 610 1300 c 4
 516 1300 435.833333333 1270.66666667 369.5 1212 c 132
 303.166666667 1153.33333333 270 1082.66666667 270 1000 c 6
 270 140 l 5
 180 140 l 6
 160 140 143.333333333 133.333333333 130 120 c 132
 116.666666667 106.666666667 110 90 110 70 c 132
 110 50 116.666666667 33.3333333333 130 20 c 132
 143.333333333 6.66666666667 160 0 180 0 c 6
 340 0 l 6
 360 0 376.666666667 6.66666666667 390 20 c 132
 403.333333333 33.3333333333 410 50 410 70 c 6
 410 1000 l 6
 410 1044.66666667 428 1082.33333333 464 1113 c 132
 500 1143.66666667 545.333333333 1159 600 1159 c 4
 691.333333333 1159 777.666666667 1152.66666667 859 1140 c 5
 646 803 l 6
 628.666666667 776.333333333 620 738.666666667 620 690 c 4
 620 654 626.666666667 622.5 640 595.5 c 132
 653.333333333 568.5 670.5 546.666666667 691.5 530 c 132
 712.5 513.333333333 735.833333333 498.333333333 761.5 485 c 132
 787.166666667 471.666666667 812.833333333 459 838.5 447 c 132
 864.166666667 435 887.5 422.166666667 908.5 408.5 c 132
 929.5 394.833333333 946.666666667 377.166666667 960 355.5 c 132
 973.333333333 333.833333333 980 308.666666667 980 280 c 4
 980 236.666666667 964.333333333 199.166666667 933 167.5 c 132
 901.666666667 135.833333333 864 120 820 120 c 4
 781.333333333 120 746.166666667 129.333333333 714.5 148 c 132
 682.833333333 166.666666667 658.666666667 191.333333333 642 222 c 4
 628.666666667 247.333333333 608 260 580 260 c 4
 560.666666667 260 544.166666667 253.166666667 530.5 239.5 c 132
 516.833333333 225.833333333 510 209.333333333 510 190 c 4
 510 179.333333333 512.666666667 168.666666667 518 158 c 4
 546 104 586.833333333 60.8333333333 640.5 28.5 c 132
 694.166666667 -3.83333333333 754 -20 820 -20 c 4
 902.666666667 -20 973.333333333 9.33333333333 1032 68 c 132
 1090.66666667 126.666666667 1120 197.333333333 1120 280 c 4
 1120 320 1113.33333333 355.833333333 1100 387.5 c 132
 1086.66666667 419.166666667 1069.5 445.166666667 1048.5 465.5 c 132
 1027.5 485.833333333 1004.16666667 504 978.5 520 c 132
 952.833333333 536 927.166666667 550 901.5 562 c 132
 875.833333333 574 852.5 585.833333333 831.5 597.5 c 132
 810.5 609.166666667 793.333333333 622.833333333 780 638.5 c 132
 766.666666667 654.166666667 760 671.333333333 760 690 c 4
 760 714 765 733.666666667 775 749 c 6
 1029 1152 l 6
EndSplineSet
Validated: 9
Layer: 2
SplineSet
1029 1152 m 5
 1036 1163 1040 1176 1040 1190 c 4
 1040 1222 1019 1249 989 1257 c 5
 880 1284 750 1300 610 1300 c 4
 422 1300 270 1166 270 1000 c 5
 270 140 l 5
 180 140 l 5
 140 140 110 110 110 70 c 132
 110 30 140 0 180 0 c 5
 340 0 l 5
 380 0 410 30 410 70 c 5
 410 1000 l 5
 410 1088 490 1159 600 1159 c 4
 694 1159 782 1152 859 1140 c 4
 646 803 l 4
 626 772 620 730 620 690 c 7
 620 425 980 493 980 280 c 31
 980 193 908 120 820 120 c 4
 741 120 674 162 642 222 c 5
 630 245 607 260 580 260 c 7
 541 260 510 229 510 190 c 4
 510 178 513 168 518 158 c 5
 573 52 686 -20 820 -20 c 4
 986 -20 1120 114 1120 280 c 7
 1120 574 760 548 760 690 c 7
 760 712 765 734 775 749 c 4
 1029 1152 l 5
EndSplineSet
EndChar

StartChar: T
Encoding: 54 84 97
Width: 1200
GlyphClass: 2
Flags: HW
AnchorPoint: "Anchor-2" 600 689 basechar 0
AnchorPoint: "Anchor-1" 598 0 basechar 0
AnchorPoint: "Anchor-0" 598 1377 basechar 0
LayerCount: 6
Fore
SplineSet
160 1300 m 5
 1040 1300 l 5
 1080.33398438 1300 1110 1270.33300781 1110 1230 c 5
 1110 1030 l 5
 1110 991 1079 960 1040 960 c 4
 1001 960 970 991 970 1030 c 5
 970 1160 l 5
 670 1160 l 5
 670 140 l 5
 850 140 l 5
 890.33203125 140 920 110.334960938 920 70 c 132
 920 29.6669921875 890.333984375 -4.93948848617e-15 850 0 c 6
 350 0 l 6
 309.673828125 0 280 29.6650390625 280 70 c 132
 280 110.333007812 309.669921875 140 350 140 c 5
 530 140 l 5
 530 1160 l 5
 230 1160 l 5
 230 1030 l 5
 230 991 199 960 160 960 c 4
 121 960 90 991 90 1030 c 5
 90 1230 l 5
 90 1270.33300781 119.666015625 1300 160 1300 c 5
EndSplineSet
Validated: 1
Layer: 2
SplineSet
160 1300 m 5
 1040 1300 l 5
 1080.33398438 1300 1110 1270.33300781 1110 1230 c 5
 1110 1030 l 5
 1110 991 1079 960 1040 960 c 4
 1001 960 970 991 970 1030 c 5
 970 1160 l 5
 670 1160 l 5
 670 140 l 5
 850 140 l 5
 890.33203125 140 920 110.334960938 920 70 c 132
 920 29.6669921875 890.333984375 -4.93948848617e-15 850 0 c 6
 350 0 l 6
 309.673828125 0 280 29.6650390625 280 70 c 132
 280 110.333007812 309.669921875 140 350 140 c 5
 530 140 l 5
 530 1160 l 5
 230 1160 l 5
 230 1030 l 5
 230 991 199 960 160 960 c 4
 121 960 90 991 90 1030 c 5
 90 1230 l 5
 90 1270.33300781 119.666015625 1300 160 1300 c 5
EndSplineSet
Substitution2: "Single Substitution lookup 342 subtable" T.spacer
Substitution2: "'aalt' Access All Alternates lookup 0 subtable" T.spacer
EndChar

StartChar: Tbar
Encoding: 246 358 98
Width: 1200
GlyphClass: 2
Flags: HW
AnchorPoint: "Anchor-2" 600 689 basechar 0
AnchorPoint: "Anchor-1" 598 0 basechar 0
AnchorPoint: "Anchor-0" 598 1377 basechar 0
LayerCount: 6
Fore
SplineSet
670 660 m 1
 875 660 l 2
 895 660 911.666666667 666.666666667 925 680 c 128
 938.333333333 693.333333333 945 710 945 730 c 128
 945 750 938.333333333 766.666666667 925 780 c 128
 911.666666667 793.333333333 895 800 875 800 c 2
 670 800 l 1
 670 1160 l 1
 940 1160 l 1
 940 1030 l 2
 940 1010.66666667 946.833333333 994.166666667 960.5 980.5 c 128
 974.166666667 966.833333333 990.666666667 960 1010 960 c 128
 1029.33333333 960 1045.83333333 966.833333333 1059.5 980.5 c 128
 1073.16666667 994.166666667 1080 1010.66666667 1080 1030 c 2
 1080 1230 l 2
 1080 1250 1073.33333333 1266.66666667 1060 1280 c 128
 1046.66666667 1293.33333333 1030 1300 1010 1300 c 2
 190 1300 l 2
 170 1300 153.333333333 1293.33333333 140 1280 c 128
 126.666666667 1266.66666667 120 1250 120 1230 c 2
 120 1030 l 2
 120 1010.66666667 126.833333333 994.166666667 140.5 980.5 c 128
 154.166666667 966.833333333 170.666666667 960 190 960 c 128
 209.333333333 960 225.833333333 966.833333333 239.5 980.5 c 128
 253.166666667 994.166666667 260 1010.66666667 260 1030 c 2
 260 1160 l 1
 530 1160 l 1
 530 800 l 1
 325 800 l 2
 305 800 288.333333333 793.333333333 275 780 c 128
 261.666666667 766.666666667 255 750 255 730 c 128
 255 710 261.666666667 693.333333333 275 680 c 128
 288.333333333 666.666666667 305 660 325 660 c 2
 530 660 l 1
 530 140 l 1
 350 140 l 2
 330 140 313.333333333 133.333333333 300 120 c 128
 286.666666667 106.666666667 280 90 280 70 c 128
 280 50 286.666666667 33.3333333333 300 20 c 128
 313.333333333 6.66666666667 330 0 350 0 c 2
 850 0 l 2
 870 0 886.666666667 6.66666666667 900 20 c 128
 913.333333333 33.3333333333 920 50 920 70 c 128
 920 90 913.333333333 106.666666667 900 120 c 128
 886.666666667 133.333333333 870 140 850 140 c 2
 670 140 l 1
 670 660 l 1
EndSplineSet
Validated: 9
Layer: 2
SplineSet
670 660 m 5
 875 660 l 6
 895 660 911.666992188 666.666992188 925 680 c 132
 938.333007812 693.333007812 945 710 945 730 c 132
 945 750 938.333007812 766.666992188 925 780 c 132
 911.666992188 793.333007812 895 800 875 800 c 6
 670 800 l 5
 670 1160 l 5
 940 1160 l 5
 940 1030 l 5
 940 991 971 960 1010 960 c 4
 1049 960 1080 991 1080 1030 c 5
 1080 1230 l 5
 1080 1270.33300781 1050.33398438 1300 1010 1300 c 5
 190 1300 l 5
 149.666015625 1300 120 1270.33300781 120 1230 c 5
 120 1030 l 5
 120 991 151 960 190 960 c 4
 229 960 260 991 260 1030 c 5
 260 1160 l 5
 530 1160 l 5
 530 800 l 5
 325 800 l 6
 305 800 288.333007812 793.333007812 275 780 c 132
 261.666992188 766.666992188 255 750 255 730 c 132
 255 710 261.666992188 693.333007812 275 680 c 132
 288.333007812 666.666992188 305 660 325 660 c 6
 530 660 l 5
 530 140 l 5
 350 140 l 5
 309.669921875 140 280 110.333007812 280 70 c 132
 280 29.6650390625 309.673828125 0 350 0 c 6
 850 0 l 6
 890.333984375 -4.93948848617e-15 920 29.6669921875 920 70 c 132
 920 110.334960938 890.33203125 140 850 140 c 5
 670 140 l 5
 670 660 l 5
EndSplineSet
EndChar

StartChar: U
Encoding: 55 85 102
Width: 1200
GlyphClass: 2
Flags: HW
AnchorPoint: "Anchor-1" 600 0 basechar 0
AnchorPoint: "Anchor-0" 600 1377 basechar 0
LayerCount: 6
Fore
SplineSet
870 400 m 5
 870 1160 l 5
 780 1160 l 5
 739.672851562 1160 710 1189.66503906 710 1230 c 132
 710 1270.33300781 739.670898438 1300 780 1300 c 6
 1100 1300 l 6
 1140.33007812 1300 1170 1270.33496094 1170 1230 c 132
 1170 1189.66699219 1140.33398438 1160 1100 1160 c 5
 1010 1160 l 5
 1010 400 l 5
 1010 168 832 -20 600 -20 c 4
 368 -20 190 168 190 400 c 5
 190 1160 l 5
 100 1160 l 5
 59.671875 1160 30 1189.66503906 30 1230 c 132
 30 1270.33300781 59.669921875 1300 100 1300 c 6
 420 1300 l 6
 460.330078125 1300 490 1270.33496094 490 1230 c 132
 490 1189.66699219 460.333984375 1160 420 1160 c 5
 330 1160 l 5
 330 400 l 5
 330 245 445 120 600 120 c 4
 755 120 870 245 870 400 c 5
EndSplineSet
Validated: 1048577
Layer: 2
SplineSet
870 400 m 5
 870 1160 l 5
 780 1160 l 5
 739.672851562 1160 710 1189.66503906 710 1230 c 132
 710 1270.33300781 739.670898438 1300 780 1300 c 6
 1100 1300 l 6
 1140.33007812 1300 1170 1270.33496094 1170 1230 c 132
 1170 1189.66699219 1140.33398438 1160 1100 1160 c 5
 1010 1160 l 5
 1010 400 l 5
 1010 168 832 -20 600 -20 c 4
 368 -20 190 168 190 400 c 5
 190 1160 l 5
 100 1160 l 5
 59.671875 1160 30 1189.66503906 30 1230 c 132
 30 1270.33300781 59.669921875 1300 100 1300 c 6
 420 1300 l 6
 460.330078125 1300 490 1270.33496094 490 1230 c 132
 490 1189.66699219 460.333984375 1160 420 1160 c 5
 330 1160 l 5
 330 400 l 5
 330 245 445 120 600 120 c 4
 755 120 870 245 870 400 c 5
EndSplineSet
EndChar

StartChar: V
Encoding: 56 86 113
Width: 1200
GlyphClass: 2
Flags: HW
AnchorPoint: "Anchor-1" 600 0 basechar 0
AnchorPoint: "Anchor-0" 600 1377 basechar 0
LayerCount: 6
Fore
SplineSet
600 -20 m 0
 565 -20 l 3
 531 -20 505 2 497 33 c 1
 195 1160 l 1
 100 1160 l 1
 61 1160 30 1191 30 1230 c 3
 30 1269 61 1300 100 1300 c 1
 420 1300 l 1
 459 1300 490 1269 490 1230 c 3
 490 1191 459 1160 420 1160 c 1
 340 1160 l 1
 600 190 l 1
 860 1160 l 1
 780 1160 l 1
 741 1160 710 1191 710 1230 c 3
 710 1269 741 1300 780 1300 c 1
 1100 1300 l 1
 1139 1300 1170 1269 1170 1230 c 3
 1170 1191 1139 1160 1100 1160 c 1
 1005 1160 l 1
 703 33 l 1
 695 2 669 -20 635 -20 c 16
 600 -20 l 0
EndSplineSet
Validated: 1048577
Layer: 2
SplineSet
600 -20 m 4
 565 -20 l 7
 531 -20 505 2 497 33 c 5
 195 1160 l 5
 100 1160 l 5
 61 1160 30 1191 30 1230 c 7
 30 1269 61 1300 100 1300 c 5
 420 1300 l 5
 459 1300 490 1269 490 1230 c 7
 490 1191 459 1160 420 1160 c 5
 340 1160 l 5
 600 190 l 5
 860 1160 l 5
 780 1160 l 5
 741 1160 710 1191 710 1230 c 7
 710 1269 741 1300 780 1300 c 5
 1100 1300 l 5
 1139 1300 1170 1269 1170 1230 c 7
 1170 1191 1139 1160 1100 1160 c 5
 1005 1160 l 5
 703 33 l 5
 695 2 669 -20 635 -20 c 20
 600 -20 l 4
EndSplineSet
EndChar

StartChar: W
Encoding: 57 87 114
Width: 1200
GlyphClass: 2
Flags: HW
AnchorPoint: "Anchor-1" 600 0 basechar 0
AnchorPoint: "Anchor-0" 600 1377 basechar 0
LayerCount: 6
Fore
SplineSet
620.08203125 862 m 1
 654.08203125 862 681.08203125 840 689.08203125 810 c 1
 825.08203125 287 l 1
 950.08203125 1160 l 1
 850.08203125 1160 l 1
 810.08203125 1160 780.08203125 1190 780.08203125 1230 c 129
 780.08203125 1270 810.08203125 1300 850.08203125 1300 c 1
 1170.08203125 1300 l 1
 1210.08203125 1300 1240.08203125 1270 1240.08203125 1230 c 129
 1240.08203125 1190 1210.08203125 1160 1170.08203125 1160 c 1
 1090.08203125 1160 l 1
 930.08203125 43 l 1
 926.08203125 7 896.08203125 -20 860.08203125 -20 c 1
 820.08203125 -20 l 1
 788.08203125 -20 762.08203125 0 753.08203125 29 c 1
 600.041015625 617 l 1
 600.04109589 617 447 29 447 29 c 1
 438 0 412 -20 380 -20 c 1
 340 -20 l 1
 304 -20 274 7 270 43 c 1
 110 1160 l 1
 30 1160 l 1
 -10 1160 -40 1190 -40 1230 c 129
 -40 1270 -10 1300 30 1300 c 1
 350 1300 l 1
 390 1300 420 1270 420 1230 c 129
 420 1190 390 1160 350 1160 c 1
 250 1160 l 1
 375 287 l 1
 511 810 l 1
 519 840 546 862 580 862 c 1
 620.08203125 862 l 1
EndSplineSet
Validated: 1048577
Layer: 2
SplineSet
620.08203125 862 m 5
 654.08203125 862 681.08203125 840 689.08203125 810 c 5
 825.08203125 287 l 5
 950.08203125 1160 l 5
 850.08203125 1160 l 5
 810.08203125 1160 780.08203125 1190 780.08203125 1230 c 133
 780.08203125 1270 810.08203125 1300 850.08203125 1300 c 5
 1170.08203125 1300 l 5
 1210.08203125 1300 1240.08203125 1270 1240.08203125 1230 c 133
 1240.08203125 1190 1210.08203125 1160 1170.08203125 1160 c 5
 1090.08203125 1160 l 5
 930.08203125 43 l 5
 926.08203125 7 896.08203125 -20 860.08203125 -20 c 5
 820.08203125 -20 l 5
 788.08203125 -20 762.08203125 0 753.08203125 29 c 5
 600.041015625 617 l 5
 600.04109589 617 447 29 447 29 c 5
 438 0 412 -20 380 -20 c 5
 340 -20 l 5
 304 -20 274 7 270 43 c 5
 110 1160 l 5
 30 1160 l 5
 -10 1160 -40 1190 -40 1230 c 133
 -40 1270 -10 1300 30 1300 c 5
 350 1300 l 5
 390 1300 420 1270 420 1230 c 133
 420 1190 390 1160 350 1160 c 5
 250 1160 l 5
 375 287 l 5
 511 810 l 5
 519 840 546 862 580 862 c 5
 620.08203125 862 l 5
EndSplineSet
EndChar

StartChar: X
Encoding: 58 88 119
Width: 1200
GlyphClass: 2
Flags: HW
AnchorPoint: "Anchor-1" 600 0 basechar 0
AnchorPoint: "Anchor-0" 600 1377 basechar 0
LayerCount: 6
Fore
SplineSet
600 804 m 1
 373 1160 l 1
 450 1160 l 1
 489 1160 520 1191 520 1230 c 3
 520 1269 489 1300 450 1300 c 1
 130 1300 l 1
 91 1300 60 1269 60 1230 c 3
 60 1191 91 1160 130 1160 c 1
 207 1160 l 1
 517 674 l 1
 177 140 l 1
 100 140 l 1
 61 140 30 109 30 70 c 3
 30 31 61 0 100 0 c 1
 420 0 l 1
 459 0 490 31 490 70 c 3
 490 109 459 140 420 140 c 1
 343 140 l 1
 600 543 l 1
 857 140 l 1
 780 140 l 1
 741 140 710 109 710 70 c 3
 710 31 741 0 780 0 c 1
 1100 0 l 1
 1139 0 1170 31 1170 70 c 3
 1170 109 1139 140 1100 140 c 1
 1023 140 l 1
 683 674 l 1
 993 1160 l 1
 1070 1160 l 1
 1109 1160 1140 1191 1140 1230 c 3
 1140 1269 1109 1300 1070 1300 c 1
 750 1300 l 1
 711 1300 680 1269 680 1230 c 3
 680 1191 711 1160 750 1160 c 1
 827 1160 l 1
 600 804 l 1
EndSplineSet
Validated: 1048585
Layer: 2
SplineSet
750 1230 m 1053
600 804 m 5
 373 1160 l 5
 450 1160 l 5
 489 1160 520 1191 520 1230 c 7
 520 1269 489 1300 450 1300 c 5
 130 1300 l 5
 91 1300 60 1269 60 1230 c 7
 60 1191 91 1160 130 1160 c 5
 207 1160 l 5
 517 674 l 5
 177 140 l 5
 100 140 l 5
 61 140 30 109 30 70 c 7
 30 31 61 0 100 0 c 5
 420 0 l 5
 459 0 490 31 490 70 c 7
 490 109 459 140 420 140 c 5
 343 140 l 5
 600 543 l 5
 857 140 l 5
 780 140 l 5
 741 140 710 109 710 70 c 7
 710 31 741 0 780 0 c 5
 1100 0 l 5
 1139 0 1170 31 1170 70 c 7
 1170 109 1139 140 1100 140 c 5
 1023 140 l 5
 683 674 l 5
 993 1160 l 5
 1070 1160 l 5
 1109 1160 1140 1191 1140 1230 c 7
 1140 1269 1109 1300 1070 1300 c 5
 750 1300 l 5
 711 1300 680 1269 680 1230 c 7
 680 1191 711 1160 750 1160 c 5
 827 1160 l 5
 600 804 l 5
450 1230 m 1053
EndSplineSet
Layer: 3
SplineSet
0 0 m 5
 0 1600 l 5
 600 1600 l 5
 600 0 l 5
 0 0 l 5
EndSplineSet
EndChar

StartChar: Y
Encoding: 59 89 120
Width: 1200
GlyphClass: 2
Flags: HW
HStem: 0 140<285.267 530 670 914.734> 1160 140<35.4531 177 343 484.547 715.453 857 1023 1164.55>
VStem: 530 140<140 588>
AnchorPoint: "Anchor-1" 600 0 basechar 0
AnchorPoint: "Anchor-0" 607 1377 basechar 0
LayerCount: 6
Fore
SplineSet
350 140 m 1
 530 140 l 1
 530 588 l 1
 177 1160 l 1
 100 1160 l 1
 61 1160 30 1191 30 1230 c 3
 30 1269 61 1300 100 1300 c 1
 420 1300 l 1
 459 1300 490 1269 490 1230 c 3
 490 1191 459 1160 420 1160 c 1
 343 1160 l 1
 600 740 l 1
 857 1160 l 1
 780 1160 l 1
 741 1160 710 1191 710 1230 c 3
 710 1269 741 1300 780 1300 c 1
 1100 1300 l 1
 1139 1300 1170 1269 1170 1230 c 3
 1170 1191 1139 1160 1100 1160 c 1
 1023 1160 l 1
 670 588 l 1
 670 140 l 1
 850 140 l 1
 890.33203125 140 920 110.334960938 920 70 c 0
 920 29.6669921875 890.333810765 -4.93946722506e-15 850 0 c 2
 350 0 l 2
 309.673828125 0 280 29.6650390625 280 70 c 0
 280 110.333007812 309.669921875 140 350 140 c 1
EndSplineSet
Validated: 1048577
Layer: 2
SplineSet
350 140 m 5
 530 140 l 5
 530 588 l 5
 177 1160 l 5
 100 1160 l 5
 61 1160 30 1191 30 1230 c 7
 30 1269 61 1300 100 1300 c 5
 420 1300 l 5
 459 1300 490 1269 490 1230 c 7
 490 1191 459 1160 420 1160 c 5
 343 1160 l 5
 600 740 l 5
 857 1160 l 5
 780 1160 l 5
 741 1160 710 1191 710 1230 c 7
 710 1269 741 1300 780 1300 c 5
 1100 1300 l 5
 1139 1300 1170 1269 1170 1230 c 7
 1170 1191 1139 1160 1100 1160 c 5
 1023 1160 l 5
 670 588 l 5
 670 140 l 5
 850 140 l 5
 890.33203125 140 920 110.334960938 920 70 c 132
 920 29.6669921875 890.333810765 -4.93946722506e-15 850 0 c 6
 350 0 l 6
 309.673828125 0 280 29.6650390625 280 70 c 132
 280 110.333007812 309.669921875 140 350 140 c 5
EndSplineSet
EndChar

StartChar: Z
Encoding: 60 90 125
Width: 1200
GlyphClass: 2
Flags: HW
AnchorPoint: "Anchor-1" 600 0 basechar 0
AnchorPoint: "Anchor-0" 637 1377 basechar 0
LayerCount: 6
Fore
SplineSet
1067 1189 m 5
 325 140 l 5
 950 140 l 5
 950 270 l 5
 950 309 981 340 1020 340 c 4
 1059 340 1090 309 1090 270 c 5
 1090 70 l 5
 1090 30 1060 0 1020 0 c 5
 190 0 l 5
 151 0 120 31 120 70 c 4
 120 85 125 100 133 111 c 5
 875 1160 l 5
 250 1160 l 5
 250 1030 l 5
 250 991 219 960 180 960 c 4
 141 960 110 991 110 1030 c 5
 110 1230 l 5
 110 1270 140 1300 180 1300 c 5
 1010 1300 l 5
 1049 1300 1080 1269 1080 1230 c 4
 1080 1215 1075 1200 1067 1189 c 5
EndSplineSet
Validated: 1048577
Layer: 2
SplineSet
1067 1189 m 5
 325 140 l 5
 950 140 l 5
 950 270 l 5
 950 309 981 340 1020 340 c 4
 1059 340 1090 309 1090 270 c 5
 1090 70 l 5
 1090 30 1060 0 1020 0 c 5
 190 0 l 5
 151 0 120 31 120 70 c 4
 120 85 125 100 133 111 c 5
 875 1160 l 5
 250 1160 l 5
 250 1030 l 5
 250 991 219 960 180 960 c 4
 141 960 110 991 110 1030 c 5
 110 1230 l 5
 110 1270 140 1300 180 1300 c 5
 1010 1300 l 5
 1049 1300 1080 1269 1080 1230 c 4
 1080 1215 1075 1200 1067 1189 c 5
EndSplineSet
EndChar

StartChar: F_l.liga.ss10
Encoding: 273 -1 136
Width: 1200
GlyphClass: 3
Flags: HW
LayerCount: 6
Fore
SplineSet
320 1160 m 1
 550 1160 l 1
 550 140 l 1
 290 140 l 2
 270 140 253.333333333 133.333333333 240 120 c 128
 226.666666667 106.666666667 220 90 220 70 c 128
 220 50 226.666666667 33.3333333333 240 20 c 128
 253.333333333 6.66666666667 270 0 290 0 c 2
 950 0 l 2
 970 0 986.666666667 6.66666666667 1000 20 c 128
 1013.33333333 33.3333333333 1020 50 1020 70 c 128
 1020 90 1013.33333333 106.666666667 1000 120 c 128
 986.666666667 133.333333333 970 140 950 140 c 2
 690 140 l 1
 690 1230 l 2
 690 1250 683.333333333 1266.66666667 670 1280 c 128
 656.666666667 1293.33333333 640 1300 620 1300 c 2
 320 1300 l 1
 -1010 1300 l 2
 -1030 1300 -1046.66666667 1293.33333333 -1060 1280 c 128
 -1073.33333333 1266.66666667 -1080 1250 -1080 1230 c 128
 -1080 1210 -1073.33333333 1193.33333333 -1060 1180 c 128
 -1046.66666667 1166.66666667 -1030 1160 -1010 1160 c 2
 -920 1160 l 1
 -920 140 l 1
 -1010 140 l 2
 -1030 140 -1046.66666667 133.333333333 -1060 120 c 128
 -1073.33333333 106.666666667 -1080 90 -1080 70 c 128
 -1080 50 -1073.33333333 33.3333333333 -1060 20 c 128
 -1046.66666667 6.66666666667 -1030 0 -1010 0 c 2
 -600 0 l 2
 -580 0 -563.333333333 6.66666666667 -550 20 c 128
 -536.666666667 33.3333333333 -530 50 -530 70 c 128
 -530 90 -536.666666667 106.666666667 -550 120 c 128
 -563.333333333 133.333333333 -580 140 -600 140 c 2
 -780 140 l 1
 -780 610 l 1
 -450 610 l 1
 -450 540 l 2
 -450 520.666666667 -443.166666667 504.166666667 -429.5 490.5 c 128
 -415.833333333 476.833333333 -399.333333333 470 -380 470 c 0
 -360 470 -343.333333333 476.666666667 -330 490 c 128
 -316.666666667 503.333333333 -310 520 -310 540 c 2
 -310 820 l 2
 -310 839.333333333 -316.833333333 855.833333333 -330.5 869.5 c 128
 -344.166666667 883.166666667 -360.666666667 890 -380 890 c 128
 -399.333333333 890 -415.833333333 883.166666667 -429.5 869.5 c 128
 -443.166666667 855.833333333 -450 839.333333333 -450 820 c 2
 -450 750 l 1
 -780 750 l 1
 -780 1160 l 1
 320 1160 l 1
EndSplineSet
Validated: 9
Layer: 2
SplineSet
320 1160 m 5
 550 1160 l 5
 550 140 l 5
 290 140 l 6
 250 140 220 110.333007812 220 70 c 132
 220 29.6650390625 249.666992188 0 290 0 c 6
 950 0 l 6
 990.334960938 0 1020 29.6669921875 1020 70 c 132
 1020 110.334960938 990 140 950 140 c 6
 690 140 l 5
 690 1230 l 133
 690 1270.33496094 660.333007812 1300 620 1300 c 5
 320 1300 l 5
 -1010 1300 l 5
 -1050.33007812 1300 -1080 1270.33300781 -1080 1230 c 132
 -1080 1189.66503906 -1050.328125 1160 -1010 1160 c 5
 -920 1160 l 5
 -920 140 l 5
 -1010 140 l 6
 -1050 140 -1080 110.333007812 -1080 70 c 132
 -1080 29.6650390625 -1050.32714844 0 -1010 0 c 6
 -600 0 l 6
 -559.665039062 0 -530 29.6669921875 -530 70 c 132
 -530 110.334960938 -560 140 -600 140 c 6
 -780 140 l 5
 -780 610 l 5
 -450 610 l 5
 -450 540 l 5
 -450 501 -419 470 -380 470 c 4
 -339.666015625 470 -310 499.666992188 -310 540 c 5
 -310 820 l 5
 -310 859 -341 890 -380 890 c 4
 -419 890 -450 859 -450 820 c 5
 -450 750 l 5
 -780 750 l 5
 -780 1160 l 5
 320 1160 l 5
EndSplineSet
EndChar

StartChar: T_l.liga.ss10
Encoding: 274 -1 137
Width: 1200
GlyphClass: 3
Flags: HW
LayerCount: 6
Fore
SplineSet
320 1160 m 1
 550 1160 l 1
 550 140 l 1
 290 140 l 2
 270 140 253.333333333 133.333333333 240 120 c 128
 226.666666667 106.666666667 220 90 220 70 c 128
 220 50 226.666666667 33.3333333333 240 20 c 128
 253.333333333 6.66666666667 270 0 290 0 c 2
 950 0 l 2
 970 0 986.666666667 6.66666666667 1000 20 c 128
 1013.33333333 33.3333333333 1020 50 1020 70 c 128
 1020 90 1013.33333333 106.666666667 1000 120 c 128
 986.666666667 133.333333333 970 140 950 140 c 2
 690 140 l 1
 690 1230 l 2
 690 1250 683.333333333 1266.66666667 670 1280 c 128
 656.666666667 1293.33333333 640 1300 620 1300 c 2
 320 1300 l 1
 -1010 1300 l 2
 -1030 1300 -1046.66666667 1293.33333333 -1060 1280 c 128
 -1073.33333333 1266.66666667 -1080 1250 -1080 1230 c 2
 -1080 1030 l 2
 -1080 1010.66666667 -1073.16666667 994.166666667 -1059.5 980.5 c 128
 -1045.83333333 966.833333333 -1029.33333333 960 -1010 960 c 128
 -990.666666667 960 -974.166666667 966.833333333 -960.5 980.5 c 128
 -946.833333333 994.166666667 -940 1010.66666667 -940 1030 c 2
 -940 1160 l 1
 -670 1160 l 1
 -670 140 l 1
 -850 140 l 2
 -870 140 -886.666666667 133.333333333 -900 120 c 128
 -913.333333333 106.666666667 -920 90 -920 70 c 128
 -920 50 -913.333333333 33.3333333333 -900 20 c 128
 -886.666666667 6.66666666667 -870 0 -850 0 c 2
 -350 0 l 2
 -330 0 -313.333333333 6.66666666667 -300 20 c 128
 -286.666666667 33.3333333333 -280 50 -280 70 c 128
 -280 90 -286.666666667 106.666666667 -300 120 c 128
 -313.333333333 133.333333333 -330 140 -350 140 c 2
 -530 140 l 1
 -530 1160 l 1
 320 1160 l 1
EndSplineSet
Validated: 9
Layer: 2
SplineSet
320 1160 m 5
 550 1160 l 5
 550 140 l 5
 290 140 l 6
 250 140 220 110.333007812 220 70 c 132
 220 29.6650390625 249.666992188 0 290 0 c 6
 950 0 l 6
 990.334960938 0 1020 29.6669921875 1020 70 c 132
 1020 110.334960938 990 140 950 140 c 6
 690 140 l 5
 690 1230 l 133
 690 1270.33496094 660.333007812 1300 620 1300 c 5
 320 1300 l 5
 -1010 1300 l 5
 -1050.33398438 1300 -1080 1270.33300781 -1080 1230 c 5
 -1080 1030 l 5
 -1080 991 -1049 960 -1010 960 c 4
 -971 960 -940 991 -940 1030 c 5
 -940 1160 l 5
 -670 1160 l 5
 -670 140 l 5
 -850 140 l 5
 -890.330078125 140 -920 110.333007812 -920 70 c 132
 -920 29.6650390625 -890.326171875 0 -850 0 c 6
 -350 0 l 6
 -309.666015625 0 -280 29.6669921875 -280 70 c 132
 -280 110.334960938 -309.66796875 140 -350 140 c 5
 -530 140 l 5
 -530 1160 l 5
 320 1160 l 5
EndSplineSet
EndChar

StartChar: a
Encoding: 67 97 138
Width: 1200
GlyphClass: 2
Flags: HW
AnchorPoint: "Anchor-1" 600 0 basechar 0
AnchorPoint: "Anchor-0" 584 1053 basechar 0
LayerCount: 6
Fore
SplineSet
345 795 m 4
 336.333333333 791.666666667 328 790 320 790 c 4
 300.666666667 790 284.166666667 796.833333333 270.5 810.5 c 132
 256.833333333 824.166666667 250 840.666666667 250 860 c 4
 250 874.666666667 254 887.833333333 262 899.5 c 132
 270 911.166666667 280.666666667 919.666666667 294 925 c 4
 388.666666667 961.666666667 477.333333333 980 560 980 c 4
 677.333333333 980 770 953 838 899 c 132
 906 845 940 758.666666667 940 640 c 6
 940 640 940 640 940 140 c 5
 1010 140 l 6
 1029.33333333 140 1045.83333333 133.166666667 1059.5 119.5 c 132
 1073.16666667 105.833333333 1080 89.3333333333 1080 70 c 132
 1080 50.6666666667 1073.16666667 34.1666666667 1059.5 20.5 c 132
 1045.83333333 6.83333333333 1029.33333333 0 1010 0 c 6
 1010 0 1010 0 870 0 c 6
 850.666666667 0 834.166666667 6.83333333333 820.5 20.5 c 132
 806.833333333 34.1666666667 800 50.6666666667 800 70 c 6
 800 70 800 70 800 104 c 5
 755.333333333 66 707.333333333 35.8333333333 656 13.5 c 132
 604.666666667 -8.83333333333 556 -20 510 -20 c 4
 412.666666667 -20 333.333333333 9.83333333333 272 69.5 c 132
 210.666666667 129.166666667 180 202.666666667 180 290 c 132
 180 377.333333333 210.666666667 450.833333333 272 510.5 c 132
 333.333333333 570.166666667 412.666666667 600 510 600 c 4
 573.333333333 600 625.666666667 596 667 588 c 132
 708.333333333 580 752.666666667 566.666666667 800 548 c 5
 800 548 800 548 800 640 c 6
 800 708 783.166666667 758.333333333 749.5 791 c 132
 715.833333333 823.666666667 652.666666667 840 560 840 c 4
 492.666666667 840 421 825 345 795 c 4
800 281 m 1
 800 281 800 281 800 406 c 1
 750.666666667 442 654 460 510 460 c 0
 451.333333333 460 405 443.833333333 371 411.5 c 128
 337 379.166666667 320 338.666666667 320 290 c 128
 320 241.333333333 337 200.833333333 371 168.5 c 128
 405 136.166666667 451.333333333 120 510 120 c 0
 556 120 608.333333333 136.666666667 667 170 c 128
 725.666666667 203.333333333 770 240.333333333 800 281 c 1
EndSplineSet
Validated: 1048577
Layer: 2
SplineSet
345 795 m 0
 337.254882812 792.086914062 328.833007812 790 320 790 c 0
 281 790 250 821 250 860 c 0
 250 889.786132812 268 915 294 925 c 0
 387.712890625 961.180664062 478.077392182 980 560 980 c 0
 780 980 940 889 940 640 c 9
 940 140 l 1
 1010 140 l 2
 1049 140 1080 109 1080 70 c 0
 1080 31 1049 0 1010 0 c 2
 870 0 l 2
 831 0 800 31 800 70 c 2
 800 104.326171875 l 1
 713.376801921 31.6795002992 605.372017591 -20 510 -20 c 0
 311 -20 180 119 180 290 c 0
 180 461 311 600 510 600 c 0
 645.003703653 600 713 582 800 548 c 1
 800 640 l 17
 800 764.016127983 757.040604952 840 560 840 c 0
 485.616948374 840 415.6875 822.78125 345 795 c 0
800 281.426757812 m 5
 800 406 l 5
 751 442 644 460 510 460 c 4
 389 460 320 384 320 290 c 4
 320 196 389 120 510 120 c 4
 603.139469302 120 741.30981193 201.174074286 800 281.426757812 c 5
EndSplineSet
Substitution2: "'cv01' Character Variants 01 lookup 361 subtable" a.cv01
Substitution2: "Single Substitution lookup 12 subtable" ordfeminine
AlternateSubs2: "'aalt' Access All Alternates lookup 1 subtable" a.cv01 ordfeminine
EndChar

StartChar: aring
Encoding: 166 229 146
Width: 1200
GlyphClass: 2
Flags: HW
AnchorPoint: "Anchor-1" 600 0 basechar 0
AnchorPoint: "Anchor-0" 584 1053 basechar 0
LayerCount: 6
Fore
Refer: 138 97 N 1 0 0 1 0 0 3
Refer: 1677 730 S 1 0 0 1 0 0 2
Validated: 1048577
Layer: 2
SplineSet
480 1430 m 4
 480 1364 534 1310 600 1310 c 4
 666 1310 720 1364 720 1430 c 4
 720 1496 666 1550 600 1550 c 4
 534 1550 480 1496 480 1430 c 4
380 1430 m 4
 380 1551 479 1650 600 1650 c 4
 721 1650 820 1551 820 1430 c 4
 820 1309 721 1210 600 1210 c 4
 479 1210 380 1309 380 1430 c 4
EndSplineSet
Substitution2: "'cv01' Character Variants 01 lookup 361 subtable" aring.cv01
Substitution2: "'aalt' Access All Alternates lookup 0 subtable" aring.cv01
EndChar

StartChar: ae
Encoding: 167 230 148
Width: 1200
GlyphClass: 2
Flags: HW
AnchorPoint: "Anchor-0" 617 1053 basechar 0
LayerCount: 6
Fore
SplineSet
574 158 m 1
 488 38 413 -20 250 -20 c 0
 51 -20 -70 119 -70 290 c 0
 -70 461 51 585 250 585 c 4
 385 585 480 570 530 570 c 5
 530 640 l 1
 530 764 487 840 290 840 c 0
 216 840 156 823 85 795 c 0
 77 792 69 790 60 790 c 0
 21 790 -10 821 -10 860 c 0
 -10 890 8 915 34 925 c 0
 128 961 208 980 290 980 c 0
 432 980 539 942 604 849 c 1
 670 936 758 980 888 980 c 0
 1138 980 1261 816 1268 496 c 1
 1266 459 1236 430 1198 430 c 1
 650 430 l 1
 669 225 724 121 888 121 c 0
 976 121 1023 151 1116 210 c 1
 1127 217 1139 220 1153 220 c 0
 1192 220 1223 189 1223 150 c 0
 1223 125 1210 102 1190 90 c 1
 1076 16 1009 -20 888 -20 c 0
 737 -20 638 40 574 158 c 1
530 281 m 1
 530 427 l 1
 475 427 384 445 250 445 c 0
 129 445 70 384 70 290 c 0
 70 196 129 120 250 120 c 0
 343 120 471 201 530 281 c 1
1121 570 m 1
 1090 748 1041 839 888 839 c 0
 735 839 686 748 655 570 c 1
 1121 570 l 1
EndSplineSet
Validated: 1
Layer: 2
SplineSet
574 158 m 5
 488 38 413 -20 250 -20 c 4
 51 -20 -70 119 -70 290 c 4
 -70 461 51 585 250 585 c 4
 385 585 480 570 530 570 c 5
 530 640 l 5
 530 764 487 840 290 840 c 4
 216 840 156 823 85 795 c 4
 77 792 69 790 60 790 c 4
 21 790 -10 821 -10 860 c 4
 -10 890 8 915 34 925 c 4
 128 961 208 980 290 980 c 4
 432 980 539 942 604 849 c 5
 670 936 758 980 888 980 c 4
 1138 980 1261 816 1268 496 c 5
 1266 459 1236 430 1198 430 c 5
 650 430 l 5
 669 225 724 121 888 121 c 4
 976 121 1023 151 1116 210 c 5
 1127 217 1139 220 1153 220 c 4
 1192 220 1223 189 1223 150 c 4
 1223 125 1210 102 1190 90 c 5
 1076 16 1009 -20 888 -20 c 4
 737 -20 638 40 574 158 c 5
530 281 m 5
 530 427 l 5
 475 427 384 445 250 445 c 4
 129 445 70 384 70 290 c 4
 70 196 129 120 250 120 c 4
 343 120 471 201 530 281 c 5
1121 570 m 5
 1090 748 1041 839 888 839 c 4
 735 839 686 748 655 570 c 5
 1121 570 l 5
EndSplineSet
EndChar

StartChar: b
Encoding: 68 98 150
Width: 1200
GlyphClass: 2
Flags: HW
AnchorPoint: "Anchor-1" 600 0 basechar 0
AnchorPoint: "Anchor-0" 600 1477 basechar 0
LayerCount: 6
Fore
SplineSet
1080 480 m 128
 1080 574.666666667 1066.16666667 658.833333333 1038.5 732.5 c 128
 1010.83333333 806.166666667 966.666666667 865.833333333 906 911.5 c 128
 845.333333333 957.166666667 771.666666667 980 685 980 c 0
 630.333333333 980 581.166666667 967.666666667 537.5 943 c 128
 493.833333333 918.333333333 451.333333333 883.666666667 410 839 c 1
 410 1370 l 2
 410 1389.33333333 403.166666667 1405.83333333 389.5 1419.5 c 128
 375.833333333 1433.16666667 359.333333333 1440 340 1440 c 2
 180 1440 l 2
 160.666666667 1440 144.166666667 1433.16666667 130.5 1419.5 c 128
 116.833333333 1405.83333333 110 1389.33333333 110 1370 c 128
 110 1350.66666667 116.833333333 1334.16666667 130.5 1320.5 c 128
 144.166666667 1306.83333333 160.666666667 1300 180 1300 c 2
 270 1300 l 1
 270 140 l 1
 180 140 l 2
 160.666666667 140 144.166666667 133.166666667 130.5 119.5 c 128
 116.833333333 105.833333333 110 89.3333333333 110 70 c 128
 110 50.6666666667 116.833333333 34.1666666667 130.5 20.5 c 128
 144.166666667 6.83333333333 160.666666667 0 180 0 c 2
 340 0 l 2
 359.333333333 0 375.833333333 6.83333333333 389.5 20.5 c 128
 403.166666667 34.1666666667 410 50.6666666667 410 70 c 2
 410 121 l 1
 451.333333333 76.3333333333 493.833333333 41.6666666667 537.5 17 c 128
 581.166666667 -7.66666666667 630.333333333 -20 685 -20 c 0
 771.666666667 -20 845.333333333 2.83333333333 906 48.5 c 128
 966.666666667 94.1666666667 1010.83333333 153.833333333 1038.5 227.5 c 128
 1066.16666667 301.166666667 1080 385.333333333 1080 480 c 128
410 330 m 1
 410 630 l 1
 434.666666667 690.666666667 472.5 740.833333333 523.5 780.5 c 128
 574.5 820.166666667 628.333333333 840 685 840 c 0
 756.333333333 840 816.666666667 805 866 735 c 128
 915.333333333 665 940 580 940 480 c 128
 940 380 915.333333333 295 866 225 c 128
 816.666666667 155 756.333333333 120 685 120 c 0
 628.333333333 120 574.5 139.833333333 523.5 179.5 c 128
 472.5 219.166666667 434.666666667 269.333333333 410 330 c 1
EndSplineSet
Validated: 1048585
Layer: 2
SplineSet
410 330 m 5
 410 630 l 5
 458 749 569.982421875 840 685 840 c 7
 829 840 940 679 940 480 c 4
 940 281 829 120 685 120 c 7
 569.982421875 120 458 211 410 330 c 5
1080 480 m 4
 1080 756 954 980 685 980 c 7
 567 980 483 917 410 839 c 5
 410 1370 l 6
 410 1409 379 1440 340 1440 c 5
 180 1440 l 5
 141 1440 110 1409 110 1370 c 4
 110 1331 141 1300 180 1300 c 5
 270 1300 l 5
 270 140 l 5
 180 140 l 5
 141 140 110 109 110 70 c 4
 110 31 141 0 180 0 c 5
 340 0 l 5
 379 0 410 31 410 70 c 5
 410 121 l 5
 483 43 567 -20 685 -20 c 7
 954 -20 1080 204 1080 480 c 4
EndSplineSet
EndChar

StartChar: c
Encoding: 69 99 151
Width: 1200
GlyphClass: 2
Flags: HW
HStem: -20 141<437.903 773.763> 569 389<885.845 1013.16> 839 141<437.903 764.447>
VStem: 140 140<285.032 675.271> 881 139<575.131 733.34 891 952.367>
LayerCount: 6
Fore
SplineSet
881 891 m 5xb8
 881 899 l 5
 886.193359375 932.670898438 914.747070312 958 950 958 c 4
 989 958 1020 927 1020 888 c 5
 1019 639 l 5
 1019 600 988 569 949 569 c 4xd8
 910 569 879 600 879 639 c 5
 880 673 l 5
 825.227946575 783.026051988 719.995153245 839 600 839 c 4
 423 839 280 718 280 481 c 4
 280 242 423 121 600 121 c 4
 688 121 800 166 893 225 c 5
 904 232 916 235 930 235 c 4
 969 235 1000 204 1000 165 c 4
 1000 140 987 117 967 105 c 5
 853 31 720.932678224 -20 600 -20 c 4
 346 -20 140 149 140 480 c 4
 140 811 346 980 600 980 c 4
 706.700107152 980 803.006835938 950.125976562 881 891 c 5xb8
EndSplineSet
Validated: 1
Layer: 2
SplineSet
881 891 m 5
 881 899 l 5
 886.193359375 932.670898438 914.747070312 958 950 958 c 4
 989 958 1020 927 1020 888 c 5
 1019 639 l 5
 1019 600 988 569 949 569 c 4
 910 569 879 600 879 639 c 5
 880 673 l 5
 825.227946575 783.026051988 719.995153245 839 600 839 c 4
 423 839 280 718 280 481 c 4
 280 242 423 121 600 121 c 4
 688 121 800 166 893 225 c 5
 904 232 916 235 930 235 c 4
 969 235 1000 204 1000 165 c 4
 1000 140 987 117 967 105 c 5
 853 31 720.932678224 -20 600 -20 c 4
 346 -20 140 149 140 480 c 4
 140 811 346 980 600 980 c 4
 706.700107152 980 803.006835938 950.125976562 881 891 c 5
EndSplineSet
EndChar

StartChar: d
Encoding: 70 100 157
Width: 1200
GlyphClass: 2
Flags: HW
HStem: -20 140<400.416 655.096> 0 140<930 1084.55> 840 140<400.416 655.096> 1300 140<635.453 790>
VStem: 120 144<282.04 677.96> 790 300<5.45312 120.794> 790 140<251.753 708.247 839 1300>
AnchorPoint: "Anchor-2" 600 527 basechar 0
AnchorPoint: "Anchor-1" 600 0 basechar 0
AnchorPoint: "Anchor-0" 600 1477 basechar 0
LayerCount: 6
Fore
SplineSet
930 1370 m 1xba
 930 140 l 1x7a
 1020 140 l 1
 1059 140 1090 109 1090 70 c 0
 1090 31 1059 0 1020 0 c 1
 860 0 l 1
 821 0 790 31 790 70 c 1x7c
 790 121 l 1
 717 43 633 -20 515 -20 c 3
 246 -20 120 204 120 480 c 0
 120 756 246 980 515 980 c 3
 633 980 717 917 790 839 c 1
 790 1300 l 25
 700 1300 l 1
 661 1300 630 1331 630 1370 c 0
 630 1409 661 1440 700 1440 c 1
 860 1440 l 1
 899 1440 930 1409 930 1370 c 1xba
794 330 m 1
 794 630 l 1
 746 749 634.017578125 840 519 840 c 3
 375 840 264 679 264 480 c 0
 264 281 375 120 519 120 c 3xb8
 634.017578125 120 746 211 794 330 c 1
EndSplineSet
Validated: 1
Layer: 2
SplineSet
930 1370 m 5
 930 140 l 5
 1020 140 l 5
 1059 140 1090 109 1090 70 c 4
 1090 31 1059 0 1020 0 c 5
 860 0 l 5
 821 0 790 31 790 70 c 5
 790 121 l 5
 717 43 633 -20 515 -20 c 7
 246 -20 120 204 120 480 c 4
 120 756 246 980 515 980 c 7
 633 980 717 917 790 839 c 5
 790 1300 l 29
 700 1300 l 5
 661 1300 630 1331 630 1370 c 4
 630 1409 661 1440 700 1440 c 5
 860 1440 l 5
 860 1440 l 5
 899 1440 930 1409 930 1370 c 5
794 330 m 5
 794 630 l 5
 746 749 634.017578125 840 519 840 c 7
 375 840 264 679 264 480 c 4
 264 281 375 120 519 120 c 7
 634.017578125 120 746 211 794 330 c 5
EndSplineSet
EndChar

StartChar: eth
Encoding: 177 240 158
Width: 1200
GlyphClass: 1
Flags: HW
LayerCount: 6
Fore
SplineSet
662 1153 m 5
 367 1082 l 6
 360.333333333 1080.66666667 354.666666667 1080 350 1080 c 4
 330.666666667 1080 314.166666667 1086.83333333 300.5 1100.5 c 132
 286.833333333 1114.16666667 280 1130.66666667 280 1150 c 4
 280 1166.66666667 285 1181.33333333 295 1194 c 132
 305 1206.66666667 317.666666667 1214.66666667 333 1218 c 6
 566 1274 l 5
 553.333333333 1288 538.666666667 1303 522 1319 c 4
 507.333333333 1333.66666667 500 1350.66666667 500 1370 c 132
 500 1389.33333333 506.833333333 1405.83333333 520.5 1419.5 c 132
 534.166666667 1433.16666667 550.666666667 1440 570 1440 c 4
 588 1440 604 1433.66666667 618 1421 c 4
 651.333333333 1389.66666667 685 1352.66666667 719 1310 c 5
 978 1373 l 6
 984.666666667 1374.33333333 990.333333333 1375 995 1375 c 4
 1014.33333333 1375 1030.83333333 1368.16666667 1044.5 1354.5 c 132
 1058.16666667 1340.83333333 1065 1324.33333333 1065 1305 c 4
 1065 1288.33333333 1060 1273.66666667 1050 1261 c 132
 1040 1248.33333333 1027.33333333 1240.33333333 1012 1237 c 6
 805 1187 l 5
 931.666666667 977 995 741.333333333 995 480 c 4
 995 385.333333333 981.166666667 301.166666667 953.5 227.5 c 132
 925.833333333 153.833333333 881.666666667 94.1666666667 821 48.5 c 132
 760.333333333 2.83333333333 686.666666667 -20 600 -20 c 132
 513.333333333 -20 439.666666667 2.83333333333 379 48.5 c 132
 318.333333333 94.1666666667 274.166666667 153.833333333 246.5 227.5 c 132
 218.833333333 301.166666667 205 385.333333333 205 480 c 132
 205 574.666666667 218.833333333 658.833333333 246.5 732.5 c 132
 274.166666667 806.166666667 318.333333333 865.833333333 379 911.5 c 132
 439.666666667 957.166666667 513.333333333 980 600 980 c 4
 662.666666667 980 720 967.333333333 772 942 c 5
 742 1018.66666667 705.333333333 1089 662 1153 c 5
600 120 m 4
 672 120 733.166666667 155.166666667 783.5 225.5 c 132
 833.833333333 295.833333333 859 380.666666667 859 480 c 132
 859 579.333333333 833.833333333 664.166666667 783.5 734.5 c 132
 733.166666667 804.833333333 672 840 600 840 c 4
 528.666666667 840 469 805.166666667 421 735.5 c 132
 373 665.833333333 349 580.666666667 349 480 c 132
 349 379.333333333 373 294.166666667 421 224.5 c 132
 469 154.833333333 528.666666667 120 600 120 c 4
EndSplineSet
Validated: 1
Layer: 2
SplineSet
662 1153 m 5
 367 1082 l 5
 362 1081 356 1080 350 1080 c 4
 311 1080 280 1111 280 1150 c 4
 280 1183 302 1211 333 1218 c 5
 566 1274 l 5
 552 1290 537 1305 522 1319 c 5
 509 1332 500 1350 500 1370 c 4
 500 1409 531 1440 570 1440 c 4
 589 1440 605 1433 618 1421 c 5
 654 1387 687 1350 719 1310 c 5
 978 1373 l 5
 983 1374 989 1375 995 1375 c 4
 1034 1375 1065 1344 1065 1305 c 4
 1065 1272 1043 1244 1012 1237 c 5
 805 1187 l 5
 925 988 995 744 995 480 c 5
 995 204 869 -20 600 -20 c 7
 331 -20 205 204 205 480 c 4
 205 756 331 980 600 980 c 7
 666 980 723 966 772 942 c 5
 742 1018 705 1089 662 1153 c 5
600 120 m 7
 744 120 859 281 859 480 c 4
 859 679 744 840 600 840 c 7
 456 840 349 679 349 480 c 4
 349 281 456 120 600 120 c 7
EndSplineSet
EndChar

StartChar: dcroat
Encoding: 284 273 160
Width: 1200
GlyphClass: 2
Flags: HW
AnchorPoint: "Anchor-2" 605 527 basechar 0
AnchorPoint: "Anchor-1" 605 0 basechar 0
AnchorPoint: "Anchor-0" 605 1477 basechar 0
LayerCount: 6
Fore
SplineSet
1180 1120 m 132
 1180 1080.95898438 1149.04068982 1050 1110 1050 c 6
 610 1050 l 6
 570.958984375 1050 540 1080.95703125 540 1120 c 132
 540 1159.04101562 570.95703125 1190 610 1190 c 6
 1110 1190 l 6
 1149.03873671 1190 1180 1159.04296875 1180 1120 c 132
930 1370 m 5
 930 140 l 5
 1020 140 l 5
 1059 140 1090 109 1090 70 c 4
 1090 31 1059 0 1020 0 c 5
 860 0 l 5
 821 0 790 31 790 70 c 5
 790 121 l 5
 717 43 633 -20 515 -20 c 7
 246 -20 120 204 120 480 c 4
 120 756 246 980 515 980 c 7
 633 980 717 917 790 839 c 5
 790 1300 l 29
 700 1300 l 5
 661 1300 630 1331 630 1370 c 4
 630 1409 661 1440 700 1440 c 5
 860 1440 l 5
 860 1440 l 5
 899 1440 930 1409 930 1370 c 5
794 330 m 5
 794 630 l 5
 746 749 634.017578125 840 519 840 c 7
 375 840 264 679 264 480 c 4
 264 281 375 120 519 120 c 7
 634.017578125 120 746 211 794 330 c 5
EndSplineSet
Validated: 5
Layer: 2
SplineSet
1180 1120 m 132
 1180 1080.95898438 1149.04068982 1050 1110 1050 c 6
 610 1050 l 6
 570.958984375 1050 540 1080.95703125 540 1120 c 132
 540 1159.04101562 570.95703125 1190 610 1190 c 6
 1110 1190 l 6
 1149.03873671 1190 1180 1159.04296875 1180 1120 c 132
930 1370 m 5
 930 140 l 5
 1020 140 l 5
 1059 140 1090 109 1090 70 c 4
 1090 31 1059 0 1020 0 c 5
 860 0 l 5
 821 0 790 31 790 70 c 5
 790 121 l 5
 717 43 633 -20 515 -20 c 7
 246 -20 120 204 120 480 c 4
 120 756 246 980 515 980 c 7
 633 980 717 917 790 839 c 5
 790 1300 l 29
 700 1300 l 5
 661 1300 630 1331 630 1370 c 4
 630 1409 661 1440 700 1440 c 5
 860 1440 l 5
 860 1440 l 5
 899 1440 930 1409 930 1370 c 5
794 330 m 5
 794 630 l 5
 746 749 634.017578125 840 519 840 c 7
 375 840 264 679 264 480 c 4
 264 281 375 120 519 120 c 7
 634.017578125 120 746 211 794 330 c 5
EndSplineSet
EndChar

StartChar: e
Encoding: 71 101 161
Width: 1200
GlyphClass: 2
Flags: HW
HStem: -20 141<440.159 812.705> 430 140<287 913> 839 141<438.979 765.009>
VStem: 140 142<286.11 430 570 673.89>
AnchorPoint: "Anchor-1" 600 0 basechar 0
AnchorPoint: "Anchor-0" 621 1053 basechar 0
LayerCount: 6
Fore
SplineSet
982 90.0400390625 m 1
 868.39453125 16.3955078125 720.932678224 -20 600 -20 c 0
 346 -20 140 149 140 480 c 0
 140 811 346 980 600 980 c 0
 850 980 1053 816 1060 496 c 5
 1058 459 1028 430 990 430 c 1
 282 430 l 1
 301 225 436 121 600 121 c 0
 688 121 815 151.040039062 908 210.040039062 c 1
 919 217.040039062 931 220.040039062 945 220.040039062 c 0
 984 220.040039062 1015 189.040039062 1015 150.040039062 c 0
 1015 125.040039062 1002 102.040039062 982 90.0400390625 c 1
913 570 m 1
 882 748 753 839 600 839 c 0
 447 839 318 748 287 570 c 1
 913 570 l 1
EndSplineSet
Validated: 1048577
Layer: 2
SplineSet
982 90.0400390625 m 1
 868.39453125 16.3955078125 720.932678224 -20 600 -20 c 0
 346 -20 140 149 140 480 c 0
 140 811 346 980 600 980 c 0
 850 980 1053 816 1060 496 c 1
 1058 459 1028 430 990 430 c 1
 282 430 l 5
 301 225 436 121 600 121 c 0
 688 121 815 151.040039062 908 210.040039062 c 1
 919 217.040039062 931 220.040039062 945 220.040039062 c 0
 984 220.040039062 1015 189.040039062 1015 150.040039062 c 0
 1015 125.040039062 1002 102.040039062 982 90.0400390625 c 1
913 570 m 1
 882 748 753 839 600 839 c 0
 447 839 318 748 287 570 c 1
 913 570 l 1
EndSplineSet
Layer: 4
SplineSet
1054.14257812 494.625 m 4
 1054.14257812 448.659179688 1038.03515625 429.5 993.01953125 429.5 c 6
 290.59375 429.5 l 5
 297.0703125 297.158203125 360.876953125 114.217773438 600.088867188 114.217773438 c 4
 655.923828125 114.217773438 797.287109375 121.8125 929.956054688 202.61328125 c 4
 998.104492188 244.118164062 1032.78515625 136.15625 1021.15527344 95.998046875 c 4
 1016.19140625 78.8583984375 1009.40527344 55.416015625 897.454101562 14.591796875 c 4
 823.391601562 -12.416015625 727.57421875 -38.08984375 600.088867188 -38.08984375 c 4
 481.98046875 -38.08984375 137.302734375 2.2783203125 137.302734375 468.365234375 c 4
 137.302734375 765.385742188 320.783203125 976.758789062 600.088867188 976.758789062 c 4
 707.508789062 976.758789062 1029.4921875 939.420898438 1054.14257812 494.625 c 4
893.087890625 576.556640625 m 5
 869.115234375 716.21484375 789.454101562 824.450195312 600.088867188 824.450195312 c 4
 514.052734375 824.450195312 345.828125 795.421875 300.296875 576.556640625 c 5
 893.087890625 576.556640625 l 5
EndSplineSet
EndChar

StartChar: eogonek
Encoding: 289 281 170
Width: 1200
GlyphClass: 2
Flags: HW
AnchorPoint: "Anchor-1" 1625 129 basechar 0
AnchorPoint: "Anchor-0" 621 1053 basechar 0
LayerCount: 6
Fore
Refer: 1681 731 S 1 0 0 1 -100 0 2
Refer: 161 101 N 1 0 0 1 0 0 3
Validated: 1048581
Layer: 3
SplineSet
694 3 m 5
 578 -54 500 -155 500 -260 c 4
 500 -315 545 -360 600 -360 c 4
 642 -360 680 -334 695 -297 c 5
 704 -275 725 -260 750 -260 c 4
 783 -260 810 -287 810 -320 c 4
 810 -328 808 -336 805 -343 c 5
 772 -423 692 -480 600 -480 c 4
 479 -480 380 -381 380 -260 c 4
 380 -115 499 17 666 77 c 5
 670 79 675 80 680 80 c 4
 702 80 720 62 720 40 c 4
 720 23 709 9 694 3 c 5
EndSplineSet
EndChar

StartChar: f
Encoding: 72 102 171
Width: 1200
GlyphClass: 2
Flags: HW
HStem: 0 140<215.312 460 600 984.688> 820 140<215.312 460 600 984.688> 1320 140<643.537 978.601>
VStem: 460 140<140 820 960 1271.92>
AnchorPoint: "Anchor-1" 523 0 basechar 0
AnchorPoint: "Anchor-0" 740 1477 basechar 0
LayerCount: 6
Fore
SplineSet
600 960 m 1
 920 960 l 1
 960 960 990 930.334960938 990 890 c 0
 990 849.666992188 960 820 920 820 c 2
 600 820 l 1
 600 140 l 1
 920 140 l 2
 960 140 990 110.334960938 990 70 c 0
 990 29.6669921875 960.334960938 0 920 0 c 2
 280 0 l 2
 239.666992188 0 210 29.6650390625 210 70 c 0
 210 110.333007812 240 140 280 140 c 2
 460 140 l 1
 460 820 l 1
 280 820 l 2
 240 820 210 849.665039062 210 890 c 0
 210 930.333007812 240 960 280 960 c 2
 460 960 l 1
 460 1121 l 17
 460 1394.00195312 612 1460 780 1460 c 3
 843.198242188 1460 917 1449 991 1427 c 1
 1020 1418 1040 1392 1040 1360 c 0
 1040 1321 1009 1290 970 1290 c 0
 963 1290 955 1291 949 1293 c 1
 893.354492188 1309.47558594 835.625976562 1320 780 1320 c 3
 623.997070312 1320 600 1243 600 1121 c 1
 600 960 l 1
EndSplineSet
Validated: 1048577
Layer: 2
SplineSet
600 960 m 5
 920 960 l 5
 960 960 990 930.334960938 990 890 c 132
 990 849.666992188 960 820 920 820 c 6
 600 820 l 5
 600 140 l 5
 920 140 l 6
 960 140 990 110.334960938 990 70 c 132
 990 29.6669921875 960.334960938 0 920 0 c 6
 280 0 l 6
 239.666992188 0 210 29.6650390625 210 70 c 132
 210 110.333007812 240 140 280 140 c 6
 460 140 l 5
 460 820 l 5
 280 820 l 6
 240 820 210 849.665039062 210 890 c 132
 210 930.333007812 240 960 280 960 c 6
 460 960 l 5
 460 1121 l 21
 460 1394.00195312 612 1460 780 1460 c 7
 843.198242188 1460 917 1449 991 1427 c 5
 1020 1418 1040 1392 1040 1360 c 4
 1040 1321 1009 1290 970 1290 c 4
 963 1290 955 1291 949 1293 c 5
 893.354492188 1309.47558594 835.625976562 1320 780 1320 c 7
 623.997070312 1320 600 1243 600 1121 c 5
 600 960 l 5
EndSplineSet
Substitution2: "Single Substitution lookup 352 subtable" f.spacer
Substitution2: "Single Substitution lookup 350 subtable" f.spacer
Substitution2: "Single Substitution lookup 348 subtable" f.spacer
Substitution2: "Single Substitution lookup 346 subtable" f.spacer
Substitution2: "'aalt' Access All Alternates lookup 0 subtable" f.spacer
EndChar

StartChar: g
Encoding: 73 103 172
Width: 1200
GlyphClass: 2
Flags: HW
AnchorPoint: "Anchor-0" 613 1053 basechar 0
LayerCount: 6
Fore
SplineSet
176 -328 m 1
 162.666666667 -313.333333333 156 -296.666666667 156 -278 c 0
 156 -258.666666667 162.833333333 -242.166666667 176.5 -228.5 c 128
 190.166666667 -214.833333333 206.666666667 -208 226 -208 c 0
 244.666666667 -208 261 -215 275 -229 c 0
 333.666666667 -289.666666667 405.333333333 -320 490 -320 c 0
 572.666666667 -320 643.333333333 -290.666666667 702 -232 c 128
 760.666666667 -173.333333333 790 -102.666666667 790 -20 c 2
 790 121 l 1
 748.666666667 76.3333333333 706.166666667 41.6666666667 662.5 17 c 128
 618.833333333 -7.66666666667 569.666666667 -20 515 -20 c 0
 428.333333333 -20 354.666666667 2.83333333333 294 48.5 c 128
 233.333333333 94.1666666667 189.166666667 153.833333333 161.5 227.5 c 128
 133.833333333 301.166666667 120 385.333333333 120 480 c 128
 120 574.666666667 133.833333333 658.833333333 161.5 732.5 c 128
 189.166666667 806.166666667 233.333333333 865.833333333 294 911.5 c 128
 354.666666667 957.166666667 428.333333333 980 515 980 c 4
 569.666666667 980 618.833333333 967.666666667 662.5 943 c 128
 706.166666667 918.333333333 748.666666667 883.666666667 790 839 c 1
 790 890 l 2
 790 909.333333333 796.833333333 925.833333333 810.5 939.5 c 128
 824.166666667 953.166666667 840.666666667 960 860 960 c 2
 1020 960 l 2
 1039.33333333 960 1055.83333333 953.166666667 1069.5 939.5 c 128
 1083.16666667 925.833333333 1090 909.333333333 1090 890 c 128
 1090 870.666666667 1083.16666667 854.166666667 1069.5 840.5 c 128
 1055.83333333 826.833333333 1039.33333333 820 1020 820 c 2
 930 820 l 1
 930 -20 l 2
 930 -141.333333333 887 -245 801 -331 c 128
 715 -417 611.333333333 -460 490 -460 c 0
 430 -460 372.833333333 -448.333333333 318.5 -425 c 128
 264.166666667 -401.666666667 216.666666667 -369.333333333 176 -328 c 1
794 330 m 1
 794 630 l 1
 769.333333333 690.666666667 731.5 740.833333333 680.5 780.5 c 128
 629.5 820.166666667 575.666666667 840 519 840 c 0
 447.666666667 840 387.333333333 805 338 735 c 128
 288.666666667 665 264 580 264 480 c 128
 264 380 288.666666667 295 338 225 c 128
 387.333333333 155 447.666666667 120 519 120 c 0
 575.666666667 120 629.5 139.833333333 680.5 179.5 c 128
 731.5 219.166666667 769.333333333 269.333333333 794 330 c 1
EndSplineSet
Validated: 1
Layer: 2
SplineSet
176 -328 m 1
 164 -315 156 -297 156 -278 c 0
 156 -239 187 -208 226 -208 c 0
 246 -208 262 -216 275 -229 c 1
 329 -285 406 -320 490 -320 c 0
 656 -320 790 -186 790 -20 c 1
 790 121 l 1
 717 43 633 -20 515 -20 c 3
 246 -20 120 204 120 480 c 0
 120 756 246 980 515 980 c 3
 633 980 717 917 790 839 c 1
 790 890 l 17
 790 929 821 960 860 960 c 1
 860 960 l 1
 1020 960 l 1
 1059 960 1090 929 1090 890 c 0
 1090 851 1059 820 1020 820 c 1
 930 820 l 1
 930 -20 l 1
 930 -263 733 -460 490 -460 c 4
 367 -460 256 -409 176 -328 c 1
794 330 m 1
 794 630 l 1
 746 749 634 840 519 840 c 3
 375 840 264 679 264 480 c 0
 264 281 375 120 519 120 c 3
 634 120 746 211 794 330 c 1
EndSplineSet
Substitution2: "'cv02' Character Variants 02 lookup 362 subtable" g.cv02
Substitution2: "'aalt' Access All Alternates lookup 0 subtable" g.cv02
EndChar

StartChar: h
Encoding: 74 104 177
Width: 1200
GlyphClass: 2
Flags: HW
AnchorPoint: "Anchor-2" 600 527 basechar 0
AnchorPoint: "Anchor-1" 600 0 basechar 0
AnchorPoint: "Anchor-0" 600 1477 basechar 0
LayerCount: 6
Fore
SplineSet
1060 0 m 2
 1079.33333333 0 1095.83333333 6.83333333333 1109.5 20.5 c 128
 1123.16666667 34.1666666667 1130 50.6666666667 1130 70 c 128
 1130 89.3333333333 1123.16666667 105.833333333 1109.5 119.5 c 128
 1095.83333333 133.166666667 1079.33333333 140 1060 140 c 2
 970 140 l 1
 970 664 l 2
 970 766.666666667 942.333333333 845 887 899 c 128
 831.666666667 953 752.666666667 980 650 980 c 0
 617.333333333 980 586.166666667 973.666666667 556.5 961 c 128
 526.833333333 948.333333333 501.333333333 931.5 480 910.5 c 128
 458.666666667 889.5 441.166666667 869.5 427.5 850.5 c 128
 413.833333333 831.5 401.333333333 811.333333333 390 790 c 1
 390 1370 l 2
 390 1389.33333333 383.166666667 1405.83333333 369.5 1419.5 c 128
 355.833333333 1433.16666667 339.333333333 1440 320 1440 c 2
 160 1440 l 2
 140.666666667 1440 124.166666667 1433.16666667 110.5 1419.5 c 128
 96.8333333333 1405.83333333 90 1389.33333333 90 1370 c 128
 90 1350.66666667 96.8333333333 1334.16666667 110.5 1320.5 c 128
 124.166666667 1306.83333333 140.666666667 1300 160 1300 c 2
 250 1300 l 1
 250 140 l 1
 160 140 l 2
 140.666666667 140 124.166666667 133.166666667 110.5 119.5 c 128
 96.8333333333 105.833333333 90 89.3333333333 90 70 c 128
 90 50.6666666667 96.8333333333 34.1666666667 110.5 20.5 c 128
 124.166666667 6.83333333333 140.666666667 0 160 0 c 2
 480 0 l 2
 499.333333333 0 515.833333333 6.83333333333 529.5 20.5 c 128
 543.166666667 34.1666666667 550 50.6666666667 550 70 c 128
 550 89.3333333333 543.166666667 105.833333333 529.5 119.5 c 128
 515.833333333 133.166666667 499.333333333 140 480 140 c 2
 390 140 l 1
 390 492 l 2
 390 581.333333333 415.333333333 661.666666667 466 733 c 128
 516.666666667 804.333333333 574.666666667 840 640 840 c 0
 704.666666667 840 752.5 827 783.5 801 c 128
 814.5 775 830 729.333333333 830 664 c 2
 830 140 l 1
 740 140 l 2
 720.666666667 140 704.166666667 133.166666667 690.5 119.5 c 128
 676.833333333 105.833333333 670 89.3333333333 670 70 c 128
 670 50.6666666667 676.833333333 34.1666666667 690.5 20.5 c 128
 704.166666667 6.83333333333 720.666666667 0 740 0 c 2
 1060 0 l 2
EndSplineSet
Validated: 9
Layer: 2
SplineSet
1060 0 m 5
 1099 0 1130 31 1130 70 c 4
 1130 109 1099 140 1060 140 c 5
 970 140 l 5
 970 664 l 6
 970 870 855 980 650 980 c 4
 510 980 427 861 390 790 c 5
 390 1370 l 6
 390 1409 359 1440 320 1440 c 5
 160 1440 l 5
 121 1440 90 1409 90 1370 c 4
 90 1331 121 1300 160 1300 c 5
 250 1300 l 5
 250 140 l 5
 160 140 l 5
 121 140 90 109 90 70 c 4
 90 31 121 0 160 0 c 5
 480 0 l 5
 519 0 550 31 550 70 c 4
 550 109 519 140 480 140 c 5
 390 140 l 5
 390 492 l 6
 390 670 508 840 640 840 c 4
 763 840 830 801 830 664 c 6
 830 140 l 5
 740 140 l 5
 701 140 670 109 670 70 c 4
 670 31 701 0 740 0 c 5
 1060 0 l 5
EndSplineSet
EndChar

StartChar: hbar
Encoding: 294 295 178
Width: 1200
GlyphClass: 2
Flags: HW
AnchorPoint: "Anchor-2" 600 527 basechar 0
AnchorPoint: "Anchor-1" 600 0 basechar 0
AnchorPoint: "Anchor-0" 600 1477 basechar 0
LayerCount: 6
Fore
SplineSet
280 140 m 1
 190 140 l 2
 170.666666667 140 154.166666667 133.166666667 140.5 119.5 c 128
 126.833333333 105.833333333 120 89.3333333333 120 70 c 128
 120 50.6666666667 126.833333333 34.1666666667 140.5 20.5 c 128
 154.166666667 6.83333333333 170.666666667 0 190 0 c 2
 510 0 l 2
 529.333333333 0 545.833333333 6.83333333333 559.5 20.5 c 128
 573.166666667 34.1666666667 580 50.6666666667 580 70 c 128
 580 89.3333333333 573.166666667 105.833333333 559.5 119.5 c 128
 545.833333333 133.166666667 529.333333333 140 510 140 c 2
 420 140 l 1
 420 492 l 2
 420 581.333333333 445.333333333 661.666666667 496 733 c 128
 546.666666667 804.333333333 604.666666667 840 670 840 c 0
 734.666666667 840 782.5 827 813.5 801 c 128
 844.5 775 860 729.333333333 860 664 c 2
 860 140 l 1
 770 140 l 2
 750.666666667 140 734.166666667 133.166666667 720.5 119.5 c 128
 706.833333333 105.833333333 700 89.3333333333 700 70 c 128
 700 50.6666666667 706.833333333 34.1666666667 720.5 20.5 c 128
 734.166666667 6.83333333333 750.666666667 0 770 0 c 2
 1090 0 l 2
 1109.33333333 0 1125.83333333 6.83333333333 1139.5 20.5 c 128
 1153.16666667 34.1666666667 1160 50.6666666667 1160 70 c 128
 1160 89.3333333333 1153.16666667 105.833333333 1139.5 119.5 c 128
 1125.83333333 133.166666667 1109.33333333 140 1090 140 c 2
 1000 140 l 1
 1000 664 l 2
 1000 766.666666667 972.333333333 845 917 899 c 128
 861.666666667 953 782.666666667 980 680 980 c 0
 647.333333333 980 616.166666667 973.666666667 586.5 961 c 128
 556.833333333 948.333333333 531.333333333 931.5 510 910.5 c 128
 488.666666667 889.5 471.166666667 869.5 457.5 850.5 c 128
 443.833333333 831.5 431.333333333 811.333333333 420 790 c 1
 420 1073 l 1
 772 1157 l 2
 787.333333333 1160.33333333 800 1168.33333333 810 1181 c 128
 820 1193.66666667 825 1208.33333333 825 1225 c 0
 825 1244.33333333 818.166666667 1260.83333333 804.5 1274.5 c 128
 790.833333333 1288.16666667 774.333333333 1295 755 1295 c 0
 750.333333333 1295 744.666666667 1294.33333333 738 1293 c 2
 420 1217 l 1
 420 1370 l 2
 420 1389.33333333 413.166666667 1405.83333333 399.5 1419.5 c 128
 385.833333333 1433.16666667 369.333333333 1440 350 1440 c 2
 190 1440 l 2
 170.666666667 1440 154.166666667 1433.16666667 140.5 1419.5 c 128
 126.833333333 1405.83333333 120 1389.33333333 120 1370 c 128
 120 1350.66666667 126.833333333 1334.16666667 140.5 1320.5 c 128
 154.166666667 1306.83333333 170.666666667 1300 190 1300 c 2
 280 1300 l 1
 280 1183 l 1
 93 1138 l 2
 77.6666666667 1134.66666667 65 1126.66666667 55 1114 c 128
 45 1101.33333333 40 1086.66666667 40 1070 c 0
 40 1050.66666667 46.8333333333 1034.16666667 60.5 1020.5 c 128
 74.1666666667 1006.83333333 90.6666666667 1000 110 1000 c 0
 114.666666667 1000 120.333333333 1000.66666667 127 1002 c 2
 280 1039 l 1
 280 140 l 1
EndSplineSet
Validated: 9
Layer: 2
SplineSet
280 140 m 1
 190 140 l 1
 151 140 120 109 120 70 c 0
 120 31 151 0 190 0 c 1
 510 0 l 1
 549 0 580 31 580 70 c 0
 580 109 549 140 510 140 c 1
 420 140 l 1
 420 492 l 2
 420 670 538 840 670 840 c 0
 793 840 860 801 860 664 c 2
 860 140 l 1
 770 140 l 1
 731 140 700 109 700 70 c 0
 700 31 731 0 770 0 c 1
 1090 0 l 1
 1129 0 1160 31 1160 70 c 0
 1160 109 1129 140 1090 140 c 1
 1000 140 l 1
 1000 664 l 2
 1000 870 885 980 680 980 c 0
 540 980 457 861 420 790 c 1
 420 1073 l 1
 772 1157 l 5
 803 1164 825 1192 825 1225 c 4
 825 1264 794 1295 755 1295 c 4
 749 1295 743 1294 738 1293 c 5
 420 1217 l 1
 420 1370 l 1
 420 1409 389 1440 350 1440 c 1
 190 1440 l 1
 151 1440 120 1409 120 1370 c 0
 120 1331 151 1300 190 1300 c 1
 280 1300 l 1
 280 1183 l 1
 93 1138 l 5
 62 1131 40 1103 40 1070 c 4
 40 1031 71 1000 110 1000 c 4
 116 1000 122 1001 127 1002 c 5
 280 1039 l 1
 280 140 l 1
EndSplineSet
EndChar

StartChar: i
Encoding: 75 105 180
Width: 1200
GlyphClass: 2
Flags: HW
HStem: 0 140<235.312 300 980 1044.69> 820 140<235.312 300> 1200 240<549.355 730.645>
VStem: 520 240<1229.35 1410.65>
LayerCount: 6
Fore
SplineSet
520 1320 m 0
 520 1386 574 1440 640 1440 c 0
 706 1440 760 1386 760 1320 c 0
 760 1254 706 1200 640 1200 c 0
 574 1200 520 1254 520 1320 c 0
280 890 m 4
 280 849.665039062 310 820 350 820 c 6
 620 820 l 5
 620 140 l 5
 350 140 l 6
 310 140 280 110.333007812 280 70 c 4
 280 29.6650390625 309.666992188 0 350 0 c 6
 1030 0 l 6
 1070.33496094 0 1100 29.6669921875 1100 70 c 4
 1100 110.334960938 1070 140 1030 140 c 6
 760 140 l 5
 760 890 l 5
 760 930.334960938 730 960 690 960 c 6
 350 960 l 6
 310 960 280 930.333007812 280 890 c 4
EndSplineSet
Validated: 9
Layer: 2
SplineSet
520 1320 m 0
 520 1386 574 1440 640 1440 c 0
 706 1440 760 1386 760 1320 c 0
 760 1254 706 1200 640 1200 c 0
 574 1200 520 1254 520 1320 c 0
280 890 m 0
 280 849.665039062 310 820 350 820 c 2
 620 820 l 1
 620 140 l 1
 350 140 l 2
 310 140 280 110.333007812 280 70 c 0
 280 29.6650390625 309.666992188 0 350 0 c 2
 1030 0 l 2
 1070.33496094 0 1100 29.6669921875 1100 70 c 0
 1100 110.334960938 1070 140 1030 140 c 2
 760 140 l 1
 760 890 l 1
 760 930.334960938 730 960 690 960 c 6
 350 960 l 2
 310 960 280 930.333007812 280 890 c 0
EndSplineSet
Substitution2: "'cv06' Character Variants 06 lookup 366 subtable" i.cv06
Substitution2: "'cv05' Character Variants 05 lookup 365 subtable" i.cv05
Substitution2: "'cv04' Character Variants 04 lookup 364 subtable" i.cv04
Substitution2: "'cv03' Character Variants 03 lookup 363 subtable" i.cv03
Substitution2: "Single Substitution lookup 355 subtable" dotlessi
Substitution2: "Single Substitution lookup 354 subtable" dotlessi
Substitution2: "Single Substitution lookup 346 subtable" f_i.liga.ss10
Substitution2: "Single Substitution lookup 273 subtable" i.salt_low
Substitution2: "'locl' Localized Forms in Latin lookup 27 subtable" i.loclTRK
Substitution2: "'locl' Localized Forms in Latin lookup 23 subtable" i.loclTRK
Substitution2: "'locl' Localized Forms in Latin lookup 21 subtable" i.loclTRK
Substitution2: "'locl' Localized Forms in Latin lookup 18 subtable" i.loclTRK
Substitution2: "'locl' Localized Forms in Latin lookup 17 subtable" i.loclTRK
AlternateSubs2: "'aalt' Access All Alternates lookup 1 subtable" i.loclTRK i.cv03 i.cv04 i.cv05 i.cv06 i.salt_low f_i.liga.ss10
EndChar

StartChar: dotlessi
Encoding: 296 305 181
Width: 1200
GlyphClass: 2
Flags: HW
AnchorPoint: "Anchor-0" 603 1053 basechar 0
LayerCount: 6
Fore
SplineSet
200 890 m 132
 200 910 206.666666667 926.666666667 220 940 c 132
 233.333333333 953.333333333 250 960 270 960 c 6
 270 960 270 960 600 960 c 6
 620 960 636.666666667 953.333333333 650 940 c 132
 663.333333333 926.666666667 670 910 670 890 c 6
 670 890 670 890 670 140 c 5
 930 140 l 6
 950 140 966.666666667 133.333333333 980 120 c 132
 993.333333333 106.666666667 1000 90 1000 70 c 132
 1000 50 993.333333333 33.3333333333 980 20 c 132
 966.666666667 6.66666666667 950 0 930 0 c 6
 930 0 930 0 270 0 c 6
 250 0 233.333333333 6.66666666667 220 20 c 132
 206.666666667 33.3333333333 200 50 200 70 c 132
 200 90 206.666666667 106.666666667 220 120 c 132
 233.333333333 133.333333333 250 140 270 140 c 6
 270 140 270 140 530 140 c 5
 530 820 l 5
 270 820 l 6
 250 820 233.333333333 826.666666667 220 840 c 132
 206.666666667 853.333333333 200 870 200 890 c 132
EndSplineSet
Validated: 1
Layer: 2
SplineSet
200 890 m 132
 200 849.665039062 230 820 270 820 c 6
 530 820 l 5
 530 140 l 5
 270 140 l 6
 230 140 200 110.333007812 200 70 c 132
 200 29.6650390625 229.666992188 0 270 0 c 6
 930 0 l 6
 970.334960938 0 1000 29.6669921875 1000 70 c 132
 1000 110.334960938 970 140 930 140 c 6
 670 140 l 5
 670 890 l 5
 670 930.334960938 640 960 600 960 c 6
 270 960 l 6
 230 960 200 930.333007812 200 890 c 132
EndSplineSet
Substitution2: "'cv06' Character Variants 06 lookup 366 subtable" dotlessi.cv06
Substitution2: "'cv05' Character Variants 05 lookup 365 subtable" dotlessi.cv05
Substitution2: "'cv04' Character Variants 04 lookup 364 subtable" dotlessi.cv04
Substitution2: "'cv03' Character Variants 03 lookup 363 subtable" dotlessi.cv03
AlternateSubs2: "'aalt' Access All Alternates lookup 1 subtable" dotlessi.cv03 dotlessi.cv04 dotlessi.cv05 dotlessi.cv06
EndChar

StartChar: ij
Encoding: 299 307 188
Width: 1200
GlyphClass: 1
Flags: HW
LayerCount: 6
Fore
SplineSet
361 1322 m 132
 361 1355.33333333 372.833333333 1383.66666667 396.5 1407 c 132
 420.166666667 1430.33333333 448.333333333 1442 481 1442 c 132
 513.666666667 1442 541.833333333 1430.33333333 565.5 1407 c 132
 589.166666667 1383.66666667 601 1355.33333333 601 1322 c 132
 601 1288.66666667 589.166666667 1260.33333333 565.5 1237 c 132
 541.833333333 1213.66666667 513.666666667 1202 481 1202 c 132
 448.333333333 1202 420.166666667 1213.66666667 396.5 1237 c 132
 372.833333333 1260.33333333 361 1288.66666667 361 1322 c 132
551 820 m 5
 951 820 l 5
 951 -121 l 6
 951 -189.666666667 939.166666667 -240 915.5 -272 c 132
 891.833333333 -304 843.666666667 -320 771 -320 c 4
 719 -320 662.666666667 -311 602 -293 c 4
 596 -291 589 -290 581 -290 c 4
 561.666666667 -290 545.166666667 -296.833333333 531.5 -310.5 c 132
 517.833333333 -324.166666667 511 -340.666666667 511 -360 c 4
 511 -376 515.5 -390 524.5 -402 c 132
 533.5 -414 545.333333333 -422.333333333 560 -427 c 4
 634 -449 704.333333333 -460 771 -460 c 4
 807 -460 839.833333333 -457 869.5 -451 c 132
 899.166666667 -445 928 -434.333333333 956 -419 c 132
 984 -403.666666667 1007.66666667 -383.5 1027 -358.5 c 132
 1046.33333333 -333.5 1061.83333333 -300.833333333 1073.5 -260.5 c 132
 1085.16666667 -220.166666667 1091 -173.666666667 1091 -121 c 6
 1091 890 l 6
 1091 910 1084.33333333 926.666666667 1071 940 c 132
 1057.66666667 953.333333333 1041 960 1021 960 c 6
 481 960 l 5
 141 960 l 6
 121 960 104.333333333 953.333333333 91 940 c 132
 77.6666666667 926.666666667 71 910 71 890 c 132
 71 870 77.6666666667 853.333333333 91 840 c 132
 104.333333333 826.666666667 121 820 141 820 c 6
 411 820 l 5
 411 140 l 5
 141 140 l 6
 121 140 104.333333333 133.333333333 91 120 c 132
 77.6666666667 106.666666667 71 90 71 70 c 132
 71 50 77.6666666667 33.3333333333 91 20 c 132
 104.333333333 6.66666666667 121 0 141 0 c 6
 821 0 l 6
 841 0 857.666666667 6.66666666667 871 20 c 132
 884.333333333 33.3333333333 891 50 891 70 c 132
 891 90 884.333333333 106.666666667 871 120 c 132
 857.666666667 133.333333333 841 140 821 140 c 6
 551 140 l 5
 551 820 l 5
901 1320 m 132
 901 1353.33333333 912.833333333 1381.66666667 936.5 1405 c 132
 960.166666667 1428.33333333 988.333333333 1440 1021 1440 c 132
 1053.66666667 1440 1081.83333333 1428.33333333 1105.5 1405 c 132
 1129.16666667 1381.66666667 1141 1353.33333333 1141 1320 c 132
 1141 1286.66666667 1129.16666667 1258.33333333 1105.5 1235 c 132
 1081.83333333 1211.66666667 1053.66666667 1200 1021 1200 c 132
 988.333333333 1200 960.166666667 1211.66666667 936.5 1235 c 132
 912.833333333 1258.33333333 901 1286.66666667 901 1320 c 132
EndSplineSet
Validated: 9
Layer: 2
SplineSet
361 1322 m 4
 361 1388 415 1442 481 1442 c 4
 547 1442 601 1388 601 1322 c 4
 601 1256 547 1202 481 1202 c 4
 415 1202 361 1256 361 1322 c 4
551 820 m 5
 951 820 l 5
 951 -121 l 5
 951 -243 927.002929688 -320 771 -320 c 7
 715.374023438 -320 657.645507812 -309.475585938 602 -293 c 5
 596 -291 588 -290 581 -290 c 4
 542 -290 511 -321 511 -360 c 4
 511 -392 531 -418 560 -427 c 5
 634 -449 707.801757812 -460 771 -460 c 7
 939 -460 1091 -394.001953125 1091 -121 c 7
 1091 890 l 5
 1091 930.334960938 1061 960 1021 960 c 6
 481 960 l 6
 141 960 l 6
 101 960 71 930.333007812 71 890 c 132
 71 849.665039062 101 820 141 820 c 6
 411 820 l 5
 411 140 l 5
 141 140 l 6
 101 140 71 110.333007812 71 70 c 132
 71 29.6650390625 100.666992188 0 141 0 c 6
 821 0 l 6
 861.334960938 0 891 29.6669921875 891 70 c 132
 891 110.334960938 861 140 821 140 c 6
 551 140 l 5
 551 820 l 5
901 1320 m 4
 901 1386 955 1440 1021 1440 c 4
 1087 1440 1141 1386 1141 1320 c 4
 1141 1254 1087 1200 1021 1200 c 4
 955 1200 901 1254 901 1320 c 4
EndSplineSet
EndChar

StartChar: j
Encoding: 76 106 192
Width: 1200
GlyphClass: 2
Flags: HW
AnchorPoint: "Anchor-0" 735 1053 basechar 0
LayerCount: 6
Fore
SplineSet
680 -121 m 1
 680 820 l 1
 360 820 l 2
 320 820 290 849.665039062 290 890 c 128
 290 930.333007812 320 960 360 960 c 2
 750 960 l 2
 789.999023438 960 820 930.334960938 820 890 c 1
 820 -121 l 3
 820 -394.001953125 668 -460 500 -460 c 3
 436.801757812 -460 363 -449 289 -427 c 1
 260 -418 240 -392 240 -360 c 0
 240 -321 271 -290 310 -290 c 0
 317 -290 325 -291 331 -293 c 1
 386.645507812 -309.475585938 444.374023438 -320 500 -320 c 3
 656.002929688 -320 680 -243 680 -121 c 1
580 1320 m 0
 580 1386 634 1440 700 1440 c 0
 766 1440 820 1386 820 1320 c 0
 820 1254 766 1200 700 1200 c 0
 634 1200 580 1254 580 1320 c 0
EndSplineSet
Validated: 1
Substitution2: "Single Substitution lookup 348 subtable" f_j.liga.ss10
Substitution2: "Single Substitution lookup 273 subtable" j.salt_low
AlternateSubs2: "'aalt' Access All Alternates lookup 1 subtable" j.salt_low f_j.liga.ss10
EndChar

StartChar: uni0237
Encoding: 303 567 193
Width: 1200
GlyphClass: 2
Flags: HW
AnchorPoint: "Anchor-0" 735 1053 basechar 0
LayerCount: 6
Fore
SplineSet
650 -121 m 6
 650 820 l 5
 390 820 l 6
 370 820 353.333333333 826.666666667 340 840 c 132
 326.666666667 853.333333333 320 870 320 890 c 132
 320 910 326.666666667 926.666666667 340 940 c 132
 353.333333333 953.333333333 370 960 390 960 c 6
 720 960 l 6
 740 960 756.666666667 953.333333333 770 940 c 132
 783.333333333 926.666666667 790 910 790 890 c 6
 790 -121 l 6
 790 -173.666666667 784.166666667 -220.166666667 772.5 -260.5 c 132
 760.833333333 -300.833333333 745.333333333 -333.5 726 -358.5 c 132
 706.666666667 -383.5 683 -403.666666667 655 -419 c 132
 627 -434.333333333 598.166666667 -445 568.5 -451 c 132
 538.833333333 -457 506 -460 470 -460 c 4
 403.333333333 -460 333 -449 259 -427 c 4
 244.333333333 -422.333333333 232.5 -414 223.5 -402 c 132
 214.5 -390 210 -376 210 -360 c 4
 210 -340.666666667 216.833333333 -324.166666667 230.5 -310.5 c 132
 244.166666667 -296.833333333 260.666666667 -290 280 -290 c 4
 288 -290 295 -291 301 -293 c 4
 361.666666667 -311 418 -320 470 -320 c 4
 542.666666667 -320 590.833333333 -304 614.5 -272 c 132
 638.166666667 -240 650 -189.666666667 650 -121 c 6
EndSplineSet
Validated: 1
Layer: 2
SplineSet
650 -121 m 5
 650 820 l 5
 390 820 l 6
 350 820 320 849.665039062 320 890 c 132
 320 930.333007812 350 960 390 960 c 6
 720 960 l 6
 759.999641415 960 790 930.334960938 790 890 c 5
 790 -121 l 7
 790 -394.001953125 638 -460 470 -460 c 7
 406.801757812 -460 333 -449 259 -427 c 5
 230 -418 210 -392 210 -360 c 4
 210 -321 241 -290 280 -290 c 4
 287 -290 295 -291 301 -293 c 5
 356.645507812 -309.475585938 414.374023438 -320 470 -320 c 7
 626.002929688 -320 650 -243 650 -121 c 5
EndSplineSet
EndChar

StartChar: k
Encoding: 77 107 195
Width: 1200
GlyphClass: 2
Flags: HW
HStem: 0 21G<212 380 898.983 1138> 1033 20G<845.502 1083>
VStem: 212 168<0 1477>
DStem2: 609 579 399 575 0.674511 -0.738265<0 635.205> 399 575 609 579 0.707107 0.707107<151.321 667.509>
AnchorPoint: "Anchor-1" 611 0 basechar 0
AnchorPoint: "Anchor-0" 600 1477 basechar 0
LayerCount: 6
Fore
SplineSet
390 274 m 5
 580 464 l 5
 796 140 l 5
 720 140 l 5
 681 140 650 109 650 70 c 4
 650 31 681 0 720 0 c 5
 1040 0 l 5
 1079 0 1110 31 1110 70 c 4
 1110 109 1079 140 1040 140 c 5
 964 140 l 5
 681 565 l 5
 936 820 l 5
 1000 820 l 5
 1039 820 1070 851 1070 890 c 4
 1070 929 1039 960 1000 960 c 5
 680 960 l 5
 641 960 610 929 610 890 c 4
 610 851 641 820 680 820 c 5
 740 820 l 5
 390 470 l 5
 390 1370 l 5
 390 1370 359 1440 320 1440 c 5
 160 1440 l 5
 121 1440 90 1409 90 1370 c 4
 90 1331 121 1300 160 1300 c 5
 250 1300 l 5
 250 140 l 5
 160 140 l 5
 121 140 90 109 90 70 c 4
 90 31 121 0 160 0 c 5
 480 0 l 5
 519 0 550 31 550 70 c 4
 550 109 519 140 480 140 c 5
 390 140 l 5
 390 274 l 5
EndSplineSet
Validated: 1048585
Layer: 2
SplineSet
390 274 m 5
 580 464 l 5
 796 140 l 5
 720 140 l 5
 681 140 650 109 650 70 c 4
 650 31 681 0 720 0 c 5
 1040 0 l 5
 1079 0 1110 31 1110 70 c 4
 1110 109 1079 140 1040 140 c 5
 964 140 l 5
 681 565 l 5
 936 820 l 5
 1000 820 l 5
 1039 820 1070 851 1070 890 c 4
 1070 929 1039 960 1000 960 c 5
 680 960 l 5
 641 960 610 929 610 890 c 4
 610 851 641 820 680 820 c 5
 740 820 l 5
 390 470 l 5
 390 1370 l 5
 390 1370 359 1440 320 1440 c 5
 160 1440 l 5
 121 1440 90 1409 90 1370 c 4
 90 1331 121 1300 160 1300 c 5
 250 1300 l 5
 250 140 l 5
 160 140 l 5
 121 140 90 109 90 70 c 4
 90 31 121 0 160 0 c 5
 480 0 l 5
 519 0 550 31 550 70 c 4
 550 109 519 140 480 140 c 5
 390 140 l 5
 390 274 l 5
EndSplineSet
EndChar

StartChar: kgreenlandic
Encoding: 306 312 197
Width: 1200
GlyphClass: 2
Flags: HW
AnchorPoint: "Anchor-1" 600 0 basechar 0
AnchorPoint: "Anchor-0" 600 1053 basechar 0
LayerCount: 6
Fore
SplineSet
250 820 m 5
 160 820 l 6
 140.666666667 820 124.166666667 826.833333333 110.5 840.5 c 132
 96.8333333333 854.166666667 90 870.666666667 90 890 c 132
 90 909.333333333 96.8333333333 925.833333333 110.5 939.5 c 132
 124.166666667 953.166666667 140.666666667 960 160 960 c 6
 480 960 l 6
 499.333333333 960 515.833333333 953.166666667 529.5 939.5 c 132
 543.166666667 925.833333333 550 909.333333333 550 890 c 132
 550 870.666666667 543.166666667 854.166666667 529.5 840.5 c 132
 515.833333333 826.833333333 499.333333333 820 480 820 c 6
 390 820 l 5
 390 470 l 5
 740 820 l 5
 680 820 l 6
 660.666666667 820 644.166666667 826.833333333 630.5 840.5 c 132
 616.833333333 854.166666667 610 870.666666667 610 890 c 132
 610 909.333333333 616.833333333 925.833333333 630.5 939.5 c 132
 644.166666667 953.166666667 660.666666667 960 680 960 c 6
 680 960 680 960 1000 960 c 6
 1019.33333333 960 1035.83333333 953.166666667 1049.5 939.5 c 132
 1063.16666667 925.833333333 1070 909.333333333 1070 890 c 132
 1070 870.666666667 1063.16666667 854.166666667 1049.5 840.5 c 132
 1035.83333333 826.833333333 1019.33333333 820 1000 820 c 6
 936 820 l 5
 681 565 l 5
 964 140 l 5
 1040 140 l 6
 1059.33333333 140 1075.83333333 133.166666667 1089.5 119.5 c 132
 1103.16666667 105.833333333 1110 89.3333333333 1110 70 c 132
 1110 50.6666666667 1103.16666667 34.1666666667 1089.5 20.5 c 132
 1075.83333333 6.83333333333 1059.33333333 0 1040 0 c 6
 720 0 l 6
 700.666666667 0 684.166666667 6.83333333333 670.5 20.5 c 132
 656.833333333 34.1666666667 650 50.6666666667 650 70 c 132
 650 89.3333333333 656.833333333 105.833333333 670.5 119.5 c 132
 684.166666667 133.166666667 700.666666667 140 720 140 c 6
 796 140 l 5
 580 464 l 5
 390 274 l 5
 390 140 l 5
 480 140 l 6
 499.333333333 140 515.833333333 133.166666667 529.5 119.5 c 132
 543.166666667 105.833333333 550 89.3333333333 550 70 c 132
 550 50.6666666667 543.166666667 34.1666666667 529.5 20.5 c 132
 515.833333333 6.83333333333 499.333333333 0 480 0 c 6
 160 0 l 6
 140.666666667 0 124.166666667 6.83333333333 110.5 20.5 c 132
 96.8333333333 34.1666666667 90 50.6666666667 90 70 c 132
 90 89.3333333333 96.8333333333 105.833333333 110.5 119.5 c 132
 124.166666667 133.166666667 140.666666667 140 160 140 c 6
 250 140 l 5
 250 820 l 5
EndSplineSet
Validated: 1048577
Layer: 2
SplineSet
250 820 m 5
 160 820 l 5
 121 820 90 851 90 890 c 4
 90 929 121 960 160 960 c 5
 480 960 l 5
 519 960 550 929 550 890 c 4
 550 851 519 820 480 820 c 5
 390 820 l 5
 390 470 l 5
 740 820 l 5
 680 820 l 5
 641 820 610 851 610 890 c 4
 610 929 641 960 680 960 c 5
 1000 960 l 5
 1039 960 1070 929 1070 890 c 4
 1070 851 1039 820 1000 820 c 5
 936 820 l 5
 681 565 l 5
 964 140 l 5
 1040 140 l 5
 1079 140 1110 109 1110 70 c 4
 1110 31 1079 0 1040 0 c 5
 720 0 l 5
 681 0 650 31 650 70 c 4
 650 109 681 140 720 140 c 5
 796 140 l 5
 580 464 l 5
 390 274 l 5
 390 140 l 5
 480 140 l 5
 519 140 550 109 550 70 c 4
 550 31 519 0 480 0 c 5
 160 0 l 5
 121 0 90 31 90 70 c 4
 90 109 121 140 160 140 c 5
 250 140 l 5
 250 820 l 5
EndSplineSet
EndChar

StartChar: l
Encoding: 78 108 198
Width: 1200
GlyphClass: 2
Flags: HW
HStem: 0 140<225.312 550 690 1014.69> 1300 140<255.312 550>
VStem: 550 140<140 1300>
AnchorPoint: "Anchor-2" 1121 766 basechar 0
AnchorPoint: "Anchor-1" 721 0 basechar 0
AnchorPoint: "Anchor-0" 530 1477 basechar 0
LayerCount: 6
Fore
SplineSet
690 1370 m 5
 690 140 l 5
 950 140 l 6
 990 140 1020 110.334960938 1020 70 c 4
 1020 29.6669921875 990.334960938 0 950 0 c 6
 290 0 l 6
 249.666992188 0 220 29.6650390625 220 70 c 4
 220 110.333007812 250 140 290 140 c 6
 550 140 l 5
 550 1300 l 5
 320 1300 l 6
 280 1300 250 1329.66503906 250 1370 c 4
 250 1410.33300781 279.671875 1440 320 1440 c 6
 620 1440 l 5
 660.333007812 1440 690 1410.33496094 690 1370 c 5
EndSplineSet
Validated: 1
Layer: 2
SplineSet
690 1370 m 133
 690 140 l 5
 950 140 l 6
 990 140 1020 110.334960938 1020 70 c 132
 1020 29.6669921875 990.334960938 0 950 0 c 6
 290 0 l 6
 249.666992188 0 220 29.6650390625 220 70 c 132
 220 110.333007812 250 140 290 140 c 6
 550 140 l 5
 550 1300 l 5
 320 1300 l 6
 280 1300 250 1329.66503906 250 1370 c 132
 250 1410.33300781 279.671875 1440 320 1440 c 6
 620 1440 l 5
 660.333007812 1440 690 1410.33496094 690 1370 c 133
EndSplineSet
Substitution2: "'cv10' Character Variants 10 lookup 370 subtable" l.cv10
Substitution2: "'cv09' Character Variants 09 lookup 369 subtable" l.cv09
Substitution2: "'cv08' Character Variants 08 lookup 368 subtable" l.cv08
Substitution2: "'cv07' Character Variants 07 lookup 367 subtable" l.cv07
Substitution2: "Single Substitution lookup 350 subtable" f_l.liga.ss10
Substitution2: "Single Substitution lookup 344 subtable" F_l.liga.ss10
Substitution2: "Single Substitution lookup 342 subtable" T_l.liga.ss10
Substitution2: "Single Substitution lookup 273 subtable" l.salt_low
AlternateSubs2: "'aalt' Access All Alternates lookup 1 subtable" F_l.liga.ss10 T_l.liga.ss10 l.cv07 l.cv08 l.cv09 l.cv10 l.salt_low f_l.liga.ss10
EndChar

StartChar: lslash
Encoding: 311 322 203
Width: 1200
GlyphClass: 2
Flags: HW
AnchorPoint: "Anchor-2" 1121 766 basechar 0
AnchorPoint: "Anchor-1" 721 0 basechar 0
AnchorPoint: "Anchor-0" 530 1477 basechar 0
LayerCount: 6
Fore
SplineSet
690 1370 m 6
 690 140 l 5
 950 140 l 6
 970 140 986.666666667 133.333333333 1000 120 c 132
 1013.33333333 106.666666667 1020 90 1020 70 c 132
 1020 50 1013.33333333 33.3333333333 1000 20 c 132
 986.666666667 6.66666666667 970 0 950 0 c 6
 290 0 l 6
 270 0 253.333333333 6.66666666667 240 20 c 132
 226.666666667 33.3333333333 220 50 220 70 c 132
 220 90 226.666666667 106.666666667 240 120 c 132
 253.333333333 133.333333333 270 140 290 140 c 6
 550 140 l 5
 550 1300 l 5
 320 1300 l 6
 300 1300 283.333333333 1306.66666667 270 1320 c 132
 256.666666667 1333.33333333 250 1350 250 1370 c 132
 250 1390 256.666666667 1406.66666667 270 1420 c 132
 283.333333333 1433.33333333 300 1440 320 1440 c 6
 620 1440 l 6
 640 1440 656.666666667 1433.33333333 670 1420 c 132
 683.333333333 1406.66666667 690 1390 690 1370 c 6
589 784 m 5
 809 894 l 6
 817.666666667 898.666666667 828 901 840 901 c 4
 859.333333333 901 875.833333333 894.166666667 889.5 880.5 c 132
 903.166666667 866.833333333 910 850.333333333 910 831 c 4
 910 801.666666667 897 780.666666667 871 768 c 6
 651 658 l 5
 431 548 l 6
 422.333333333 543.333333333 412 541 400 541 c 4
 380.666666667 541 364.166666667 547.833333333 350.5 561.5 c 132
 336.833333333 575.166666667 330 591.666666667 330 611 c 4
 330 640.333333333 343 661.333333333 369 674 c 6
 589 784 l 5
EndSplineSet
Validated: 5
Layer: 2
SplineSet
690 1370 m 133
 690 140 l 5
 950 140 l 6
 990 140 1020 110.334960938 1020 70 c 132
 1020 29.6669921875 990.334960938 0 950 0 c 6
 290 0 l 6
 249.666992188 0 220 29.6650390625 220 70 c 132
 220 110.333007812 250 140 290 140 c 6
 550 140 l 5
 550 1300 l 5
 320 1300 l 6
 280 1300 250 1329.66503906 250 1370 c 132
 250 1410.33300781 279.671875 1440 320 1440 c 6
 620 1440 l 5
 660.333007812 1440 690 1410.33496094 690 1370 c 133
589 784 m 5
 809 894 l 5
 818 899 829 901 840 901 c 4
 879 901 910 870 910 831 c 4
 910 803 894 779 871 768 c 5
 651 658 l 5
 431 548 l 5
 422 543 411 541 400 541 c 4
 361 541 330 572 330 611 c 4
 330 639 346 663 369 674 c 5
 589 784 l 5
EndSplineSet
Substitution2: "'cv10' Character Variants 10 lookup 370 subtable" lslash.cv10
Substitution2: "'cv09' Character Variants 09 lookup 369 subtable" lslash.cv09
Substitution2: "'cv08' Character Variants 08 lookup 368 subtable" lslash.cv08
Substitution2: "'cv07' Character Variants 07 lookup 367 subtable" lslash.cv07
AlternateSubs2: "'aalt' Access All Alternates lookup 1 subtable" lslash.cv07 lslash.cv08 lslash.cv09 lslash.cv10
EndChar

StartChar: m
Encoding: 79 109 204
Width: 1200
GlyphClass: 2
Flags: HW
HStem: 0 140<25.4531 90 370 434.547 740 804.547 1110 1174.55> 820 140<25.4531 90> 841 140<391.337 513.903 762.232 882.864>
VStem: 20 420<5.45312 134.547> 20 280<825.453 954.54> 160 140<492 708.9> 530 280<5.45312 134.547> 530 140<492 708.9> 900 280<5.45312 134.547> 900 140<664 831.476>
AnchorPoint: "Anchor-1" 600 0 basechar 0
AnchorPoint: "Anchor-0" 600 1053 basechar 0
LayerCount: 6
Fore
SplineSet
664 779 m 17xa040
 643.870117188 931.76171875 577.838013278 981 476 981 c 0
 400 981 317 882 300 805 c 1xa440
 300 890 l 2
 300 928.952268398 269 960 230 960 c 1
 90 960 l 1
 51 960 20 929 20 890 c 0xc8
 20 851 51 820 90 820 c 1
 160 820 l 1
 160 140 l 1xc4
 90 140 l 1
 51 140 20 109 20 70 c 0
 20 31 51 0 90 0 c 1
 370 0 l 1
 409 0 440 31 440 70 c 0xd0
 440 109 409 140 370 140 c 1
 300 140 l 1
 300 492 l 2
 300 640 368 841 466 841 c 0
 527 841 530 737 530 664 c 26xa5
 530 70 l 1
 530 31 561 0 600 0 c 1
 740 0 l 1
 779 0 810 31 810 70 c 0xa2
 810 109 779 140 740 140 c 1
 670 140 l 1
 670 492 l 1
 670 640 738 841 836 841 c 0
 897 841 900 737 900 664 c 26xa140
 900 70 l 1
 900 31 931 0 970 0 c 1
 1110 0 l 1
 1149 0 1180 31 1180 70 c 0xa080
 1180 109 1149 140 1110 140 c 1
 1040 140 l 1
 1040 664 l 2
 1040 908 971 981 847 981 c 0
 771 981 691 881 671 805 c 2
 664 779 l 17xa040
EndSplineSet
Validated: 1048585
Layer: 2
SplineSet
664 779 m 21
 643.870117188 931.76171875 577.838013278 981 476 981 c 4
 400 981 317 882 300 805 c 5
 300 890 l 6
 300 928.952268398 269 960 230 960 c 5
 90 960 l 5
 51 960 20 929 20 890 c 4
 20 851 51 820 90 820 c 5
 160 820 l 5
 160 140 l 5
 90 140 l 5
 51 140 20 109 20 70 c 4
 20 31 51 0 90 0 c 5
 370 0 l 5
 409 0 440 31 440 70 c 4
 440 109 409 140 370 140 c 5
 300 140 l 5
 300 492 l 6
 300 640 368 841 466 841 c 4
 527 841 530 737 530 664 c 30
 530 70 l 5
 530 31 561 0 600 0 c 5
 740 0 l 5
 779 0 810 31 810 70 c 4
 810 109 779 140 740 140 c 5
 670 140 l 5
 670 492 l 5
 670 640 738 841 836 841 c 4
 897 841 900 737 900 664 c 30
 900 70 l 5
 900 31 931 0 970 0 c 5
 1110 0 l 5
 1149 0 1180 31 1180 70 c 4
 1180 109 1149 140 1110 140 c 5
 1040 140 l 5
 1040 664 l 6
 1040 908 971 981 847 981 c 4
 771 981 691 881 671 805 c 6
 664 779 l 21
EndSplineSet
EndChar

StartChar: n
Encoding: 80 110 205
Width: 1200
GlyphClass: 2
Flags: HW
AnchorPoint: "Anchor-1" 602 0 basechar 0
AnchorPoint: "Anchor-0" 600 1053 basechar 0
LayerCount: 6
Fore
SplineSet
1060 0 m 5
 1099 0 1130 31 1130 70 c 4
 1130 109 1099 140 1060 140 c 5
 970 140 l 5
 970 664 l 6
 970 870 855 980 650 980 c 4
 510 980 427 861 390 790 c 5
 390 890 l 6
 390 929 359 960 320 960 c 5
 160 960 l 5
 121 960 90 929 90 890 c 4
 90 851 121 820 160 820 c 5
 250 820 l 5
 250 140 l 5
 160 140 l 5
 121 140 90 109 90 70 c 4
 90 31 121 0 160 0 c 5
 480 0 l 5
 519 0 550 31 550 70 c 4
 550 109 519 140 480 140 c 5
 390 140 l 5
 390 492 l 6
 390 670 508 840 640 840 c 4
 763 840 830 801 830 664 c 6
 830 140 l 5
 740 140 l 5
 701 140 670 109 670 70 c 4
 670 31 701 0 740 0 c 5
 1060 0 l 5
EndSplineSet
Validated: 1048585
Layer: 2
SplineSet
1060 0 m 5
 1099 0 1130 31 1130 70 c 4
 1130 109 1099 140 1060 140 c 5
 970 140 l 5
 970 664 l 6
 970 870 855 980 650 980 c 4
 510 980 427 861 390 790 c 5
 390 890 l 6
 390 929 359 960 320 960 c 5
 160 960 l 5
 121 960 90 929 90 890 c 4
 90 851 121 820 160 820 c 5
 250 820 l 5
 250 140 l 5
 160 140 l 5
 121 140 90 109 90 70 c 4
 90 31 121 0 160 0 c 5
 480 0 l 5
 519 0 550 31 550 70 c 4
 550 109 519 140 480 140 c 5
 390 140 l 5
 390 492 l 6
 390 670 508 840 640 840 c 4
 763 840 830 801 830 664 c 6
 830 140 l 5
 740 140 l 5
 701 140 670 109 670 70 c 4
 670 31 701 0 740 0 c 5
 1060 0 l 5
EndSplineSet
EndChar

StartChar: eng
Encoding: 316 331 211
Width: 1200
GlyphClass: 1
Flags: HW
LayerCount: 6
Fore
SplineSet
830 -110 m 6
 830 -170 819.166666667 -220 797.5 -260 c 132
 775.833333333 -300 746.666666667 -320 710 -320 c 4
 667.333333333 -320 635.333333333 -294 614 -242 c 4
 602 -214 580.666666667 -200 550 -200 c 4
 530.666666667 -200 514.166666667 -206.833333333 500.5 -220.5 c 132
 486.833333333 -234.166666667 480 -250.666666667 480 -270 c 4
 480 -280 482 -289.333333333 486 -298 c 4
 507.333333333 -348.666666667 537.333333333 -388.333333333 576 -417 c 132
 614.666666667 -445.666666667 659.333333333 -460 710 -460 c 4
 788.666666667 -460 851.666666667 -426.5 899 -359.5 c 132
 946.333333333 -292.5 970 -209.333333333 970 -110 c 6
 970 664 l 6
 970 766.666666667 942.333333333 845 887 899 c 132
 831.666666667 953 752.666666667 980 650 980 c 4
 617.333333333 980 586.166666667 973.666666667 556.5 961 c 132
 526.833333333 948.333333333 501.333333333 931.5 480 910.5 c 132
 458.666666667 889.5 441.166666667 869.5 427.5 850.5 c 132
 413.833333333 831.5 401.333333333 811.333333333 390 790 c 5
 390 890 l 6
 390 909.333333333 383.166666667 925.833333333 369.5 939.5 c 132
 355.833333333 953.166666667 339.333333333 960 320 960 c 6
 160 960 l 6
 140.666666667 960 124.166666667 953.166666667 110.5 939.5 c 132
 96.8333333333 925.833333333 90 909.333333333 90 890 c 132
 90 870.666666667 96.8333333333 854.166666667 110.5 840.5 c 132
 124.166666667 826.833333333 140.666666667 820 160 820 c 6
 250 820 l 5
 250 140 l 5
 160 140 l 6
 140.666666667 140 124.166666667 133.166666667 110.5 119.5 c 132
 96.8333333333 105.833333333 90 89.3333333333 90 70 c 132
 90 50.6666666667 96.8333333333 34.1666666667 110.5 20.5 c 132
 124.166666667 6.83333333333 140.666666667 0 160 0 c 6
 480 0 l 6
 499.333333333 0 515.833333333 6.83333333333 529.5 20.5 c 132
 543.166666667 34.1666666667 550 50.6666666667 550 70 c 132
 550 89.3333333333 543.166666667 105.833333333 529.5 119.5 c 132
 515.833333333 133.166666667 499.333333333 140 480 140 c 6
 390 140 l 5
 390 492 l 6
 390 581.333333333 415.333333333 661.666666667 466 733 c 132
 516.666666667 804.333333333 574.666666667 840 640 840 c 4
 704.666666667 840 752.5 827 783.5 801 c 132
 814.5 775 830 729.333333333 830 664 c 6
 830 -110 l 6
EndSplineSet
Validated: 9
Layer: 2
SplineSet
830 -110 m 5
 830 -226 786 -320 710 -320 c 4
 667 -320 634 -290 614 -242 c 5
 603.311523438 -217.15625 579.013671875 -200 550 -200 c 4
 511 -200 480 -231 480 -270 c 4
 480 -279.986328125 482.032226562 -289.448242188 485.711914062 -298 c 5
 527.711914062 -396 606 -460 710 -460 c 4
 872 -460 970 -303 970 -110 c 5
 970 664 l 6
 970 870 855 980 650 980 c 4
 510 980 427 861 390 790 c 5
 390 890 l 6
 390 929 359 960 320 960 c 5
 160 960 l 5
 121 960 90 929 90 890 c 4
 90 851 121 820 160 820 c 5
 250 820 l 5
 250 140 l 5
 160 140 l 5
 121 140 90 109 90 70 c 4
 90 31 121 0 160 0 c 5
 480 0 l 5
 519 0 550 31 550 70 c 4
 550 109 519 140 480 140 c 5
 390 140 l 5
 390 492 l 6
 390 670 508 840 640 840 c 4
 763 840 830 801 830 664 c 6
 830 -110 l 5
EndSplineSet
EndChar

StartChar: o
Encoding: 81 111 212
Width: 1210
GlyphClass: 2
Flags: HW
AnchorPoint: "Anchor-1" 610 0 basechar 0
AnchorPoint: "Anchor-0" 610 1053 basechar 0
LayerCount: 6
Fore
SplineSet
180 480 m 128
 180 316.666666667 217.333333333 192.5 292 107.5 c 128
 366.666666667 22.5 469.333333333 -20 600 -20 c 128
 730.666666667 -20 833.333333333 22.5 908 107.5 c 128
 982.666666667 192.5 1020 316.666666667 1020 480 c 128
 1020 643.333333333 982.666666667 767.5 908 852.5 c 128
 833.333333333 937.5 730.666666667 980 600 980 c 128
 469.333333333 980 366.666666667 937.5 292 852.5 c 128
 217.333333333 767.5 180 643.333333333 180 480 c 128
320 480 m 128
 320 597.333333333 344.833333333 686.666666667 394.5 748 c 128
 444.166666667 809.333333333 512.666666667 840 600 840 c 128
 687.333333333 840 755.833333333 809.333333333 805.5 748 c 128
 855.166666667 686.666666667 880 597.333333333 880 480 c 128
 880 362.666666667 855.166666667 273.333333333 805.5 212 c 128
 755.833333333 150.666666667 687.333333333 120 600 120 c 128
 512.666666667 120 444.166666667 150.666666667 394.5 212 c 128
 344.833333333 273.333333333 320 362.666666667 320 480 c 128
EndSplineSet
Validated: 1048585
Layer: 2
SplineSet
180 480 m 128
 180 146.666666667 344 -20 600 -20 c 128
 856 -20 1020 146.666992188 1020 480 c 128
 1020 813.333007812 856 980 600 980 c 128
 344 980 180 813.333007812 180 480 c 128
320 480 m 128
 320 720 429 840 600 840 c 128
 771 840 880 720 880 480 c 132
 880 240 771 120 600 120 c 128
 429 120 320 240 320 480 c 128
EndSplineSet
Substitution2: "Single Substitution lookup 12 subtable" ordmasculine
Substitution2: "'aalt' Access All Alternates lookup 0 subtable" ordmasculine
EndChar

StartChar: oacute
Encoding: 180 243 213
Width: 1200
GlyphClass: 2
Flags: HW
AnchorPoint: "Anchor-0" 600 1400 basechar 0
LayerCount: 6
Fore
SplineSet
180 480 m 0
 180 316.666666667 217.166666667 192.5 291.5 107.5 c 0
 365.833333333 22.5 468.666666667 -20.0000000003 600 -20.000000001 c 0
 730.666666667 -20.0000000003 833.333333333 22.5 908 107.5 c 0
 982.666666667 192.5 1020 316.666666667 1020 480 c 0
 1020 643.333333333 982.666666667 767.5 908 852.5 c 0
 833.333333333 937.5 730.666666667 980 600 980 c 0
 469.333333333 980 366.666666667 937.5 292 852.5 c 0
 217.333333333 767.5 180 643.333333333 180 480 c 0
320 480 m 0
 320 597.333333333 344.833333333 686.666666667 394.5 748 c 0
 444.166666667 809.333333333 512.666666667 840 600 840 c 0
 687.333333333 840 755.833333333 809.333333333 805.5 748 c 0
 855.166666667 686.666666667 880 597.333333333 880 480 c 0
 880 362.666666667 855.166666667 273.333333333 805.5 212 c 0
 755.833333333 150.666666667 687.333333333 120 600 120 c 0
 512.666666667 120 444.166666667 150.666666667 394.5 212 c 0
 344.833333333 273.333333333 320 362.666666667 320 480 c 0
EndSplineSet
Refer: 1671 180 N 1 0 0 1 -16 0 2
Validated: 9
Substitution2: "'locl' Localized Forms in Latin lookup 22 subtable" oacute.loclPLK
Substitution2: "'aalt' Access All Alternates lookup 0 subtable" oacute.loclPLK
EndChar

StartChar: ocircumflex
Encoding: 181 244 215
Width: 1200
GlyphClass: 2
Flags: HW
AnchorPoint: "Anchor-0" 600 1400 basechar 0
LayerCount: 6
Fore
SplineSet
180 480 m 0
 180 316.666666667 217.166666667 192.5 291.5 107.5 c 0
 365.833333333 22.5 468.666666667 -20.0000000003 600 -20.000000001 c 0
 730.666666667 -20.0000000003 833.333333333 22.5 908 107.5 c 0
 982.666666667 192.5 1020 316.666666667 1020 480 c 0
 1020 643.333333333 982.666666667 767.5 908 852.5 c 0
 833.333333333 937.5 730.666666667 980 600 980 c 0
 469.333333333 980 366.666666667 937.5 292 852.5 c 0
 217.333333333 767.5 180 643.333333333 180 480 c 0
320 480 m 0
 320 597.333333333 344.833333333 686.666666667 394.5 748 c 0
 444.166666667 809.333333333 512.666666667 840 600 840 c 0
 687.333333333 840 755.833333333 809.333333333 805.5 748 c 0
 855.166666667 686.666666667 880 597.333333333 880 480 c 0
 880 362.666666667 855.166666667 273.333333333 805.5 212 c 0
 755.833333333 150.666666667 687.333333333 120 600 120 c 0
 512.666666667 120 444.166666667 150.666666667 394.5 212 c 0
 344.833333333 273.333333333 320 362.666666667 320 480 c 0
EndSplineSet
Refer: 1673 710 N 1 0 0 1 0 0 2
Validated: 9
Layer: 2
SplineSet
600 1590 m 4
 616 1590 630 1585 642 1576 c 5
 910 1370 l 5
 922 1361 930 1347 930 1330 c 4
 930 1302 908 1280 880 1280 c 4
 870 1280 862 1283 854 1287 c 5
 600 1439 l 5
 346 1287 l 5
 338 1283 330 1280 320 1280 c 4
 292 1280 270 1302 270 1330 c 4
 270 1347 278 1361 290 1370 c 5
 558 1576 l 5
 570 1585 584 1590 600 1590 c 4
EndSplineSet
EndChar

StartChar: odieresis
Encoding: 183 246 216
Width: 1200
GlyphClass: 2
Flags: HW
AnchorPoint: "Anchor-0" 600 1400 basechar 0
LayerCount: 6
Fore
SplineSet
180 480 m 0
 180 316.666666667 217.166666667 192.5 291.5 107.5 c 0
 365.833333333 22.5 468.666666667 -20.0000000003 600 -20.000000001 c 0
 730.666666667 -20.0000000003 833.333333333 22.5 908 107.5 c 0
 982.666666667 192.5 1020 316.666666667 1020 480 c 0
 1020 643.333333333 982.666666667 767.5 908 852.5 c 0
 833.333333333 937.5 730.666666667 980 600 980 c 0
 469.333333333 980 366.666666667 937.5 292 852.5 c 0
 217.333333333 767.5 180 643.333333333 180 480 c 0
320 480 m 0
 320 597.333333333 344.833333333 686.666666667 394.5 748 c 0
 444.166666667 809.333333333 512.666666667 840 600 840 c 0
 687.333333333 840 755.833333333 809.333333333 805.5 748 c 0
 855.166666667 686.666666667 880 597.333333333 880 480 c 0
 880 362.666666667 855.166666667 273.333333333 805.5 212 c 0
 755.833333333 150.666666667 687.333333333 120 600 120 c 0
 512.666666667 120 444.166666667 150.666666667 394.5 212 c 0
 344.833333333 273.333333333 320 362.666666667 320 480 c 0
EndSplineSet
Refer: 1668 168 N 1 0 0 1 0 0 2
Validated: 9
Layer: 2
SplineSet
700 1400 m 0
 700 1458 747 1505 805 1505 c 0
 863 1505 910 1458 910 1400 c 0
 910 1342 863 1295 805 1295 c 0
 747 1295 700 1342 700 1400 c 0
290 1400 m 0
 290 1458 337 1505 395 1505 c 0
 453 1505 500 1458 500 1400 c 0
 500 1342 453 1295 395 1295 c 0
 337 1295 290 1342 290 1400 c 0
180 480 m 132
 180 146.666666667 344 -20 600 -20 c 132
 856 -20 1020 146.666992188 1020 480 c 132
 1020 813.333007812 856 980 600 980 c 132
 344 980 180 813.333007812 180 480 c 132
320 480 m 132
 320 720 429 840 600 840 c 132
 771 840 880 720 880 480 c 132
 880 240 771 120 600 120 c 132
 429 120 320 240 320 480 c 132
EndSplineSet
EndChar

StartChar: ograve
Encoding: 179 242 217
Width: 1200
GlyphClass: 2
Flags: HW
AnchorPoint: "Anchor-0" 600 1400 basechar 0
LayerCount: 6
Fore
SplineSet
360 1470 m 0
 360 1492 367.833333333 1510.83333333 383.5 1526.5 c 128
 399.166666667 1542.16666667 418 1550 440 1550 c 0
 464 1550 484 1541 500 1523 c 2
 804.9609375 1190 l 2
 814.986979167 1178.87811005 820 1165.54477671 820 1150 c 0
 820 1133.33333333 814.166666667 1119.16666667 802.5 1107.5 c 128
 790.833333333 1095.83333333 776.666666667 1090 760 1090 c 0
 744.455223297 1090 731.121889964 1095.01302083 720 1105.0390625 c 2
 387 1410 l 2
 369 1426 360 1446 360 1470 c 0
180 480 m 128
 180 316.666666667 217.166666667 192.5 291.5 107.5 c 128
 365.833333333 22.5 468.666666667 -20.0000000003 600 -20.000000001 c 0
 730.666666667 -20.0000000003 833.333333333 22.5 908 107.5 c 128
 982.666666667 192.5 1020 316.666666667 1020 480 c 128
 1020 643.333333333 982.666666667 767.5 908 852.5 c 128
 833.333333333 937.5 730.666666667 980 600 980 c 128
 469.333333333 980 366.666666667 937.5 292 852.5 c 128
 217.333333333 767.5 180 643.333333333 180 480 c 128
320 480 m 128
 320 597.333333333 344.833333333 686.666666667 394.5 748 c 128
 444.166666667 809.333333333 512.666666667 840 600 840 c 128
 687.333333333 840 755.833333333 809.333333333 805.5 748 c 128
 855.166666667 686.666666667 880 597.333333333 880 480 c 128
 880 362.666666667 855.166666667 273.333333333 805.5 212 c 128
 755.833333333 150.666666667 687.333333333 120 600 120 c 128
 512.666666667 120 444.166666667 150.666666667 394.5 212 c 128
 344.833333333 273.333333333 320 362.666666667 320 480 c 128
EndSplineSet
Validated: 9
Layer: 2
SplineSet
320 480 m 132
 320 720 429 840 600 840 c 132
 771 840 880 720 880 480 c 132
 880 240 771 120 600 120 c 132
 429 120 320 240 320 480 c 132
180 480 m 128
 180 146.666666667 344 -20 600 -20 c 128
 856 -20 1020 146.666992188 1020 480 c 128
 1020 813.333007812 856 980 600 980 c 128
 344 980 180 813.333007812 180 480 c 128
360 1470 m 0
 360 1514 396 1550 440 1550 c 0
 463.829101562 1550 485.311523438 1539.66992188 500 1523 c 1
 804.9609375 1190 l 1
 814.547851562 1179.36523438 820 1165.33007812 820 1150 c 0
 820 1117 793 1090 760 1090 c 0
 744.669921875 1090 730.634765625 1095.45214844 720 1105.0390625 c 1
 387 1410 l 1
 370.330078125 1424.68847656 360 1446.17089844 360 1470 c 0
EndSplineSet
EndChar

StartChar: ohungarumlaut
Encoding: 318 337 218
Width: 1210
GlyphClass: 2
Flags: HW
AnchorPoint: "Anchor-1" 600 0 basechar 0
AnchorPoint: "Anchor-0" 600 1053 basechar 0
LayerCount: 6
Fore
SplineSet
747 1300 m 6
 735.666666667 1280 718.333333333 1270 695 1270 c 4
 678.333333333 1270 664.166666667 1275.83333333 652.5 1287.5 c 4
 640.833333333 1299.16666667 635 1313.33333333 635 1330 c 4
 635 1340 636.666666667 1348.33333333 640 1355 c 6
 777 1651 l 6
 790.333333333 1680.33333333 813 1695 845 1695 c 4
 865.666666667 1695 883.333333333 1687.66666667 898 1673 c 4
 912.666666667 1658.33333333 920 1640.66666667 920 1620 c 4
 920 1607.33333333 916.666666667 1595 910 1583 c 6
 747 1300 l 6
397 1300 m 6
 385.666666667 1280 368.333333333 1270 345 1270 c 4
 328.333333333 1270 314.166666667 1275.83333333 302.5 1287.5 c 4
 290.833333333 1299.16666667 285 1313.33333333 285 1330 c 4
 285 1340 286.666666667 1348.33333333 290 1355 c 6
 427 1651 l 6
 440.333333333 1680.33333333 463 1695 495 1695 c 4
 515.666666667 1695 533.333333333 1687.66666667 548 1673 c 4
 562.666666667 1658.33333333 570 1640.66666667 570 1620 c 4
 570 1607.33333333 566.666666667 1595 560 1583 c 6
 397 1300 l 6
EndSplineSet
Refer: 212 111 N 1 0 0 1 0 0 3
Validated: 1048585
Layer: 2
SplineSet
747 1300 m 5
 737 1282 717 1270 695 1270 c 4
 662 1270 635 1297 635 1330 c 4
 635 1339 636 1347 640 1355 c 5
 777 1651 l 5
 789 1677 815 1695 845 1695 c 4
 886 1695 920 1661 920 1620 c 4
 920 1607 916 1594 910 1583 c 5
 747 1300 l 5
397 1300 m 5
 387 1282 367 1270 345 1270 c 4
 312 1270 285 1297 285 1330 c 4
 285 1339 286 1347 290 1355 c 5
 427 1651 l 5
 439 1677 465 1695 495 1695 c 4
 536 1695 570 1661 570 1620 c 4
 570 1607 566 1594 560 1583 c 5
 397 1300 l 5
EndSplineSet
EndChar

StartChar: oslash
Encoding: 185 248 220
Width: 1200
GlyphClass: 2
Flags: HW
AnchorPoint: "Anchor-0" 600 1053 basechar 0
LayerCount: 6
Fore
SplineSet
962 1048 m 2
 362 -152 l 2
 348.666666667 -177.333333333 328 -190 300 -190 c 0
 280.666666667 -190 264.166666667 -183.166666667 250.5 -169.5 c 128
 236.833333333 -155.833333333 230 -139.333333333 230 -120 c 0
 230 -109.333333333 232.666666667 -98.6666666667 238 -88 c 2
 838 1112 l 2
 851.333333333 1137.33333333 872 1150 900 1150 c 0
 919.333333333 1150 935.833333333 1143.16666667 949.5 1129.5 c 128
 963.166666667 1115.83333333 970 1099.33333333 970 1080 c 0
 970 1069.33333333 967.333333333 1058.66666667 962 1048 c 2
180 480 m 128
 180 643.333333333 217.333333333 767.5 292 852.5 c 128
 366.666666667 937.5 469.333333333 980 600 980 c 128
 730.666666667 980 833.333333333 937.5 908 852.5 c 128
 982.666666667 767.5 1020 643.333333333 1020 480 c 128
 1020 316.666666667 982.666666667 192.5 908 107.5 c 128
 833.333333333 22.5 730.666666667 -20 600 -20 c 128
 469.333333333 -20 366.666666667 22.5 292 107.5 c 128
 217.333333333 192.5 180 316.666666667 180 480 c 128
320 480 m 128
 320 362.666666667 344.833333333 273.333333333 394.5 212 c 128
 444.166666667 150.666666667 512.666666667 120 600 120 c 128
 687.333333333 120 755.833333333 150.666666667 805.5 212 c 128
 855.166666667 273.333333333 880 362.666666667 880 480 c 128
 880 597.333333333 855.166666667 686.666666667 805.5 748 c 128
 755.833333333 809.333333333 687.333333333 840 600 840 c 128
 512.666666667 840 444.166666667 809.333333333 394.5 748 c 128
 344.833333333 686.666666667 320 597.333333333 320 480 c 128
EndSplineSet
Validated: 5
Layer: 2
SplineSet
962 1048 m 5
 362 -152 l 5
 350 -175 327 -190 300 -190 c 4
 261 -190 230 -159 230 -120 c 4
 230 -108 233 -98 238 -88 c 5
 838 1112 l 5
 850 1135 873 1150 900 1150 c 4
 939 1150 970 1119 970 1080 c 4
 970 1068 967 1058 962 1048 c 5
180 480 m 128
 180 813.333007812 344 980 600 980 c 128
 856 980 1020 813.333007812 1020 480 c 128
 1020 146.666992188 856 -20 600 -20 c 128
 344 -20 180 146.666666667 180 480 c 128
320 480 m 128
 320 240 429 120 600 120 c 128
 771 120 880 240 880 480 c 128
 880 720 771 840 600 840 c 128
 429 840 320 720 320 480 c 128
EndSplineSet
EndChar

StartChar: otilde
Encoding: 182 245 222
Width: 1200
GlyphClass: 2
Flags: HW
AnchorPoint: "Anchor-1" 600 0 basechar 0
AnchorPoint: "Anchor-0" 584 1053 basechar 0
LayerCount: 6
Fore
SplineSet
180 480 m 4
 180 316.666666667 217.166666667 192.5 291.5 107.5 c 4
 365.833333333 22.5 468.666666667 -20.0000000003 600 -20.000000001 c 4
 730.666666667 -20.0000000003 833.333333333 22.5 908 107.5 c 4
 982.666666667 192.5 1020 316.666666667 1020 480 c 4
 1020 643.333333333 982.666666667 767.5 908 852.5 c 4
 833.333333333 937.5 730.666666667 980 600 980 c 4
 469.333333333 980 366.666666667 937.5 292 852.5 c 4
 217.333333333 767.5 180 643.333333333 180 480 c 4
320 480 m 4
 320 597.333333333 344.833333333 686.666666667 394.5 748 c 4
 444.166666667 809.333333333 512.666666667 840 600 840 c 4
 687.333333333 840 755.833333333 809.333333333 805.5 748 c 4
 855.166666667 686.666666667 880 597.333333333 880 480 c 4
 880 362.666666667 855.166666667 273.333333333 805.5 212 c 4
 755.833333333 150.666666667 687.333333333 120 600 120 c 4
 512.666666667 120 444.166666667 150.666666667 394.5 212 c 4
 344.833333333 273.333333333 320 362.666666667 320 480 c 4
EndSplineSet
Refer: 1678 732 N 1 0 0 1 -16 0 2
Validated: 1048585
Layer: 2
SplineSet
180 480 m 132
 180 146.666666667 344 -20 600 -20 c 132
 856 -20 1020 146.666992188 1020 480 c 132
 1020 813.333007812 856 980 600 980 c 132
 344 980 180 813.333007812 180 480 c 132
320 480 m 132
 320 720 429 840 600 840 c 132
 771 840 880 720 880 480 c 132
 880 240 771 120 600 120 c 132
 429 120 320 240 320 480 c 132
EndSplineSet
EndChar

StartChar: oe
Encoding: 321 339 223
Width: 1200
GlyphClass: 1
Flags: HW
HStem: -20 140<162.475 436.823 749.21 1036.77> 430 140<655 1121> 840 140<162.475 438.527 751.874 1024.77> 2024 140<162.513 436.064 751.53 1024.49> 2884 140<162.513 436.674 749.227 1038.25>
VStem: -80 140<239.384 720.616 2283.33 2764.67> 540 110<242.143 430 570 711.265 2574 2763.55>
LayerCount: 6
Fore
SplineSet
300 840 m 4
 136 840 60 720 60 480 c 4
 60 240 136 120 300 120 c 4
 464 120 540 240 540 480 c 4
 540 720 464 840 300 840 c 4
888 980 m 4
 1138 980 1261 816 1268 496 c 5
 1266 459 1236 430 1198 430 c 5
 650 430 l 5
 669 225 724 121 888 121 c 4
 976 121 1023 151 1116 210 c 5
 1127 217 1139 220 1153 220 c 4
 1192 220 1223 189 1223 150 c 4
 1223 125 1210 102 1190 90 c 5
 1076 16 1009 -20 888 -20 c 4
 753.32053042 -20 660 29 596 123 c 5
 532 28 433 -20 300 -20 c 4
 52 -20 -80 147 -80 480 c 4
 -80 813 52 980 300 980 c 4
 431 980 529.845703125 933 593.845703125 840 c 5
 656.4140625 932.922851562 754.056501206 980 888 980 c 4
1121 570 m 5
 1090 748 1041 839 888 839 c 4
 735 839 686 748 655 570 c 5
 1121 570 l 5
300 2164 m 0
 218.666992188 2164 158.333007812 2193.83300781 119 2253.5 c 0
 79.6669921875 2313.16699219 60 2403.33300781 60 2524 c 0
 60 2644.66699219 79.6669921875 2734.83300781 119 2794.5 c 0
 158.333007812 2854.16699219 218.666992188 2884 300 2884 c 0
 381.333007812 2884 441.666992188 2854.16699219 481 2794.5 c 0
 520.333007812 2734.83300781 540 2644.66699219 540 2524 c 0
 540 2403.33300781 520.333007812 2313.16699219 481 2253.5 c 0
 441.666992188 2193.83300781 381.333007812 2164 300 2164 c 0
888 2024 m 0
 1134 2024 1260.66699219 2185.33300781 1268 2508 c 0
 1266.66699219 2526.66699219 1259.33300781 2542.33300781 1246 2555 c 0
 1232.66699219 2567.66699219 1216.66699219 2574 1198 2574 c 2
 650 2574 l 1
 660 2681.33300781 682.5 2759.66699219 717.5 2809 c 0
 752.5 2858.33300781 809.333007812 2883 888 2883 c 0
 916 2883 942.666992188 2879.16699219 968 2871.5 c 0
 993.333007812 2863.83300781 1014.83300781 2855 1032.5 2845 c 0
 1050.16699219 2835 1078 2818 1116 2794 c 0
 1126.66699219 2787.33300781 1139 2784 1153 2784 c 0
 1172.33300781 2784 1188.83300781 2790.83300781 1202.5 2804.5 c 0
 1216.16699219 2818.16699219 1223 2834.66699219 1223 2854 c 0
 1223 2880.66699219 1212 2900.66699219 1190 2914 c 0
 1126.66699219 2955.33300781 1074.66699219 2984 1034 3000 c 0
 993.333007812 3016 944.666992188 3024 888 3024 c 0
 758 3024 660.666992188 2976.33300781 596 2881 c 1
 532 2976.33300781 433.333007812 3024 300 3024 c 0
 175.333007812 3024 80.8330078125 2982.16699219 16.5 2898.5 c 0
 -47.8330078125 2814.83300781 -80 2690 -80 2524 c 0
 -80 2358 -47.8330078125 2233.16699219 16.5 2149.5 c 0
 80.8330078125 2065.83300781 175.333007812 2024 300 2024 c 0
 432 2024 530 2070.66699219 594 2164 c 1
 656.666992188 2070.66699219 754.666992188 2024 888 2024 c 0
1121 2434 m 1
 1104.33300781 2338.66699219 1079.5 2270 1046.5 2228 c 0
 1013.5 2186 960.666992188 2165 888 2165 c 0
 815.333007812 2165 762.5 2186 729.5 2228 c 0
 696.5 2270 671.666992188 2338.66699219 655 2434 c 1
 1121 2434 l 1
EndSplineSet
Validated: 9
Layer: 2
SplineSet
300 840 m 132
 136 840 60 720 60 480 c 132
 60 240 136 120 300 120 c 132
 464 120 540 240 540 480 c 132
 540 720 464 840 300 840 c 132
888 980 m 4
 1138 980 1261 816 1268 496 c 5
 1266 459 1236 430 1198 430 c 5
 650 430 l 5
 669 225 724 121 888 121 c 4
 976 121 1023 151 1116 210 c 5
 1127 217 1139 220 1153 220 c 4
 1192 220 1223 189 1223 150 c 4
 1223 125 1210 102 1190 90 c 5
 1076 16 1009 -20 888 -20 c 4
 753.32053042 -20 660 29 596 123 c 5
 532 28 433 -20 300 -20 c 132
 52 -20 -80 147 -80 480 c 132
 -80 813 52 980 300 980 c 132
 431 980 529.845703125 933 593.845703125 840 c 5
 656.4140625 932.922851562 754.056501206 980 888 980 c 4
1121 570 m 5
 1090 748 1041 839 888 839 c 4
 735 839 686 748 655 570 c 5
 1121 570 l 5
EndSplineSet
EndChar

StartChar: p
Encoding: 82 112 224
Width: 1200
GlyphClass: 2
Flags: HW
AnchorPoint: "Anchor-1" 600 0 basechar 0
AnchorPoint: "Anchor-0" 600 1053 basechar 0
LayerCount: 6
Fore
SplineSet
180 -440 m 2
 160.666666667 -440 144.166666667 -433.166666667 130.5 -419.5 c 128
 116.833333333 -405.833333333 110 -389.333333333 110 -370 c 128
 110 -350.666666667 116.833333333 -334.166666667 130.5 -320.5 c 128
 144.166666667 -306.833333333 160.666666667 -300 180 -300 c 2
 270 -300 l 1
 270 820 l 1
 180 820 l 2
 160.666666667 820 144.166666667 826.833333333 130.5 840.5 c 128
 116.833333333 854.166666667 110 870.666666667 110 890 c 128
 110 909.333333333 116.833333333 925.833333333 130.5 939.5 c 128
 144.166666667 953.166666667 160.666666667 960 180 960 c 2
 340 960 l 2
 359.333333333 960 375.833333333 953.166666667 389.5 939.5 c 128
 403.166666667 925.833333333 410 909.333333333 410 890 c 2
 410 839 l 1
 451.333333333 883.666666667 493.833333333 918.333333333 537.5 943 c 128
 581.166666667 967.666666667 630.333333333 980 685 980 c 0
 771.666666667 980 845.333333333 957.166666667 906 911.5 c 128
 966.666666667 865.833333333 1010.83333333 806.166666667 1038.5 732.5 c 128
 1066.16666667 658.833333333 1080 574.666666667 1080 480 c 128
 1080 385.333333333 1066.16666667 301.166666667 1038.5 227.5 c 128
 1010.83333333 153.833333333 966.666666667 94.1666666667 906 48.5 c 128
 845.333333333 2.83333333333 771.666666667 -20 685 -20 c 0
 630.333333333 -20 581.166666667 -7.66666666667 537.5 17 c 128
 493.833333333 41.6666666667 451.333333333 76.3333333333 410 121 c 1
 410 -300 l 1
 590 -300 l 2
 610 -300 626.666666667 -306.666666667 640 -320 c 128
 653.333333333 -333.333333333 660 -350 660 -370 c 128
 660 -390 653.333333333 -406.666666667 640 -420 c 128
 626.666666667 -433.333333333 610 -440 590 -440 c 2
 180 -440 l 2
410 630 m 1
 410 330 l 1
 434.666666667 269.333333333 472.5 219.166666667 523.5 179.5 c 128
 574.5 139.833333333 628.333333333 120 685 120 c 0
 756.333333333 120 816.666666667 155 866 225 c 128
 915.333333333 295 940 380 940 480 c 128
 940 580 915.333333333 665 866 735 c 128
 816.666666667 805 756.333333333 840 685 840 c 0
 628.333333333 840 574.5 820.166666667 523.5 780.5 c 128
 472.5 740.833333333 434.666666667 690.666666667 410 630 c 1
EndSplineSet
Validated: 1048577
Layer: 2
SplineSet
180 -440 m 5
 141 -440 110 -409 110 -370 c 4
 110 -331 141 -300 180 -300 c 5
 270 -300 l 5
 270 820 l 5
 180 820 l 5
 141 820 110 851 110 890 c 4
 110 929 141 960 180 960 c 5
 340 960 l 5
 379 960 410 929 410 890 c 5
 410 839 l 5
 483 917 567 980 685 980 c 7
 954 980 1080 756 1080 480 c 4
 1080 204 954 -20 685 -20 c 7
 567 -20 483 43 410 121 c 5
 410 -300 l 5
 590 -300 l 21
 630 -300 660 -329.665039062 660 -370 c 132
 660 -410.333007812 630.334960938 -440 590 -440 c 5
 180 -440 l 5
410 630 m 5
 410 330 l 5
 458 211 569.982421875 120 685 120 c 7
 829 120 940 281 940 480 c 4
 940 679 829 840 685 840 c 7
 569.982421875 840 458 749 410 630 c 5
EndSplineSet
EndChar

StartChar: thorn
Encoding: 191 254 225
Width: 1200
GlyphClass: 2
Flags: HW
AnchorPoint: "Anchor-1" 600 -399 basechar 0
AnchorPoint: "Anchor-0" 600 1477 basechar 0
LayerCount: 6
Fore
SplineSet
675 0 m 5
 450 0 l 5
 450 -250 l 5
 630 -250 l 6
 670 -250 700 -279.665039062 700 -320 c 132
 700 -360.333007812 670.334960938 -390 630 -390 c 5
 220 -390 l 5
 181 -390 150 -359 150 -320 c 7
 150 -281 181 -250 220 -250 c 5
 310 -250 l 5
 310 1159 l 5
 228 1160 l 5
 189 1160 158 1191 158 1230 c 7
 158 1269 189 1300 228 1300 c 5
 630 1300 l 5
 670.334960938 1300 700 1270.33300781 700 1230 c 132
 700 1189.66503906 670 1160 630 1160 c 6
 450 1160 l 5
 450 910 l 5
 675 910 l 5
 888 910 1060 706 1060 455 c 4
 1060 204 888 0 675 0 c 5
675 140 m 5
 810 140 920 281 920 455 c 4
 920 629 810 770 675 770 c 5
 450 770 l 5
 450 140 l 5
 675 140 l 5
EndSplineSet
Validated: 1048577
Layer: 2
SplineSet
675 0 m 5
 450 0 l 5
 450 -250 l 5
 630 -250 l 6
 670 -250 700 -279.665039062 700 -320 c 132
 700 -360.333007812 670.334960938 -390 630 -390 c 5
 220 -390 l 5
 181 -390 150 -359 150 -320 c 7
 150 -281 181 -250 220 -250 c 5
 310 -250 l 5
 310 1159 l 5
 228 1160 l 5
 189 1160 158 1191 158 1230 c 7
 158 1269 189 1300 228 1300 c 5
 630 1300 l 5
 670.334960938 1300 700 1270.33300781 700 1230 c 132
 700 1189.66503906 670 1160 630 1160 c 6
 450 1160 l 5
 450 910 l 5
 675 910 l 5
 888 910 1060 706 1060 455 c 4
 1060 204 888 0 675 0 c 5
675 140 m 5
 810 140 920 281 920 455 c 4
 920 629 810 770 675 770 c 5
 450 770 l 5
 450 140 l 5
 675 140 l 5
EndSplineSet
EndChar

StartChar: q
Encoding: 83 113 226
Width: 1200
GlyphClass: 2
Flags: HW
AnchorPoint: "Anchor-1" 600 0 basechar 0
AnchorPoint: "Anchor-0" 600 1053 basechar 0
LayerCount: 6
Fore
SplineSet
1020 -440 m 2
 1039.33333333 -440 1055.83333333 -433.166666667 1069.5 -419.5 c 128
 1083.16666667 -405.833333333 1090 -389.333333333 1090 -370 c 128
 1090 -350.666666667 1083.16666667 -334.166666667 1069.5 -320.5 c 128
 1055.83333333 -306.833333333 1039.33333333 -300 1020 -300 c 2
 930 -300 l 1
 930 820 l 1
 1020 820 l 2
 1039.33333333 820 1055.83333333 826.833333333 1069.5 840.5 c 128
 1083.16666667 854.166666667 1090 870.666666667 1090 890 c 128
 1090 909.333333333 1083.16666667 925.833333333 1069.5 939.5 c 128
 1055.83333333 953.166666667 1039.33333333 960 1020 960 c 2
 860 960 l 2
 840.666666667 960 824.166666667 953.166666667 810.5 939.5 c 128
 796.833333333 925.833333333 790 909.333333333 790 890 c 2
 790 839 l 1
 748.666666667 883.666666667 706.166666667 918.333333333 662.5 943 c 128
 618.833333333 967.666666667 569.666666667 980 515 980 c 0
 428.333333333 980 354.666666667 957.166666667 294 911.5 c 128
 233.333333333 865.833333333 189.166666667 806.166666667 161.5 732.5 c 128
 133.833333333 658.833333333 120 574.666666667 120 480 c 128
 120 385.333333333 133.833333333 301.166666667 161.5 227.5 c 128
 189.166666667 153.833333333 233.333333333 94.1666666667 294 48.5 c 128
 354.666666667 2.83333333333 428.333333333 -20 515 -20 c 0
 569.666666667 -20 618.833333333 -7.66666666667 662.5 17 c 128
 706.166666667 41.6666666667 748.666666667 76.3333333333 790 121 c 1
 790 -300 l 1
 610 -300 l 2
 590 -300 573.333333333 -306.666666667 560 -320 c 128
 546.666666667 -333.333333333 540 -350 540 -370 c 128
 540 -390 546.666666667 -406.666666667 560 -420 c 128
 573.333333333 -433.333333333 590 -440 610 -440 c 6
 1020 -440 l 2
790 630 m 1
 790 330 l 1
 765.333333333 269.333333333 727.5 219.166666667 676.5 179.5 c 128
 625.5 139.833333333 571.666666667 120 515 120 c 0
 443.666666667 120 383.333333333 155 334 225 c 128
 284.666666667 295 260 380 260 480 c 128
 260 580 284.666666667 665 334 735 c 128
 383.333333333 805 443.666666667 840 515 840 c 0
 571.666666667 840 625.5 820.166666667 676.5 780.5 c 128
 727.5 740.833333333 765.333333333 690.666666667 790 630 c 1
EndSplineSet
Validated: 1048585
Layer: 2
SplineSet
1020 -440 m 5
 1059 -440 1090 -409 1090 -370 c 4
 1090 -331 1059 -300 1020 -300 c 5
 930 -300 l 5
 930 820 l 5
 1020 820 l 5
 1059 820 1090 851 1090 890 c 4
 1090 929 1059 960 1020 960 c 5
 860 960 l 5
 821 960 790 929 790 890 c 5
 790 839 l 5
 717 917 633 980 515 980 c 7
 246 980 120 756 120 480 c 4
 120 204 246 -20 515 -20 c 7
 633 -20 717 43 790 121 c 5
 790 -300 l 5
 610 -300 l 21
 570 -300 540 -329.665039062 540 -370 c 132
 540 -410.333007812 569.665039062 -440 610 -440 c 5
 1020 -440 l 5
790 630 m 1
 790 330 l 1
 742 211 630.017578125 120 515 120 c 3
 371 120 260 281 260 480 c 0
 260 679 371 840 515 840 c 3
 630.017578125 840 742 749 790 630 c 1
EndSplineSet
EndChar

StartChar: r
Encoding: 84 114 227
Width: 1200
GlyphClass: 2
Flags: HW
LayerCount: 6
Fore
SplineSet
912 759 m 1
 888 787 832.01171875 840 790 840 c 3
 628.98828125 840 547.30859375 662.022460938 490 491 c 1
 490 140 l 1
 670 140 l 2
 710 140 740 110.334960938 740 70 c 128
 740 29.6669921875 710.334960938 0 670 0 c 2
 260 0 l 2
 219.666992188 0 190 29.6650390625 190 70 c 128
 190 110.333007812 220 140 260 140 c 2
 350 140 l 1
 350 820 l 1
 260 820 l 2
 220 820 190 849.665039062 190 890 c 128
 190 930.333007812 220 960 260 960 c 2
 420 960 l 2
 460 960 490 930.334960938 490 890 c 1
 490 741 l 1
 532.556640625 868 628.98828125 980 790 980 c 3
 886 980 973.422851562 904.223632812 1018 850 c 1
 1028.10644531 837.87890625 1035 822.219726562 1035 805 c 0
 1035 766 1004 735 965 735 c 0
 943.697265625 735 924.780273438 744.25 912 759 c 1
EndSplineSet
Validated: 1
Layer: 2
SplineSet
912 759 m 5
 888 787 832.01171875 840 790 840 c 7
 628.98828125 840 547.30859375 662.022460938 490 491 c 5
 490 140 l 5
 670 140 l 6
 710 140 740 110.334960938 740 70 c 132
 740 29.6669921875 710.334960938 0 670 0 c 6
 260 0 l 6
 219.666992188 0 190 29.6650390625 190 70 c 132
 190 110.333007812 220 140 260 140 c 6
 350 140 l 5
 350 820 l 5
 260 820 l 6
 220 820 190 849.665039062 190 890 c 132
 190 930.333007812 220 960 260 960 c 6
 420 960 l 6
 460 960 490 930.334960938 490 890 c 5
 490 741 l 5
 532.556640625 868 628.98828125 980 790 980 c 7
 886 980 973.422851562 904.223632812 1018 850 c 5
 1028.10644531 837.87890625 1035 822.219726562 1035 805 c 4
 1035 766 1004 735 965 735 c 4
 943.697265625 735 924.780273438 744.25 912 759 c 5
EndSplineSet
Substitution2: "'ss01' Style Set 1 lookup 317 subtable" r.ss01
Substitution2: "'salt' Stylistic Alternatives lookup 316 subtable" r.ss01
Substitution2: "'aalt' Access All Alternates lookup 0 subtable" r.ss01
EndChar

StartChar: s
Encoding: 85 115 231
Width: 1200
GlyphClass: 2
Flags: HW
AnchorPoint: "Anchor-1" 593 0 basechar 0
AnchorPoint: "Anchor-0" 615 1053 basechar 0
LayerCount: 6
Fore
SplineSet
795 722 m 1
 769 753.333333333 738.166666667 780.833333333 702.5 804.5 c 128
 666.833333333 828.166666667 629.333333333 840 590 840 c 0
 456.666666667 840 390 796.666666667 390 710 c 0
 390 684 398 662.333333333 414 645 c 128
 430 627.666666667 451.166666667 615 477.5 607 c 128
 503.833333333 599 533.833333333 591.333333333 567.5 584 c 128
 601.166666667 576.666666667 635.333333333 570.166666667 670 564.5 c 128
 704.666666667 558.833333333 738.833333333 549.333333333 772.5 536 c 128
 806.166666667 522.666666667 836.166666667 506.5 862.5 487.5 c 128
 888.833333333 468.5 910 441.333333333 926 406 c 128
 942 370.666666667 950 328.666666667 950 280 c 0
 950 244.666666667 944.166666667 210.5 932.5 177.5 c 128
 920.833333333 144.5 902.333333333 112.666666667 877 82 c 128
 851.666666667 51.3333333333 815.166666667 26.6666666667 767.5 8 c 128
 719.833333333 -10.6666666667 664 -20 600 -20 c 0
 543.333333333 -20 497.833333333 -11.5 463.5 5.5 c 128
 429.166666667 22.5 394.666666667 48.3333333333 360 83 c 1
 360 70 l 2
 360 50.6666666667 353.166666667 34.1666666667 339.5 20.5 c 128
 325.833333333 6.83333333333 309.333333333 0 290 0 c 128
 270.666666667 0 254.166666667 6.83333333333 240.5 20.5 c 128
 226.833333333 34.1666666667 220 50.6666666667 220 70 c 2
 220 370 l 2
 220 389.333333333 226.833333333 405.833333333 240.5 419.5 c 128
 254.166666667 433.166666667 270.666666667 440 290 440 c 128
 309.333333333 440 325.833333333 433.166666667 339.5 419.5 c 128
 353.166666667 405.833333333 360 389.333333333 360 370 c 2
 360 277 l 1
 373.333333333 231 403.166666667 193.333333333 449.5 164 c 128
 495.833333333 134.666666667 546 120 600 120 c 0
 666 120 717.5 133.5 754.5 160.5 c 128
 791.5 187.5 810 227.333333333 810 280 c 0
 810 316 799.666666667 345 779 367 c 128
 758.333333333 389 731.5 405 698.5 415 c 128
 665.5 425 629.166666667 433.333333333 589.5 440 c 128
 549.833333333 446.666666667 510.166666667 454.833333333 470.5 464.5 c 128
 430.833333333 474.166666667 394.5 487.166666667 361.5 503.5 c 128
 328.5 519.833333333 301.666666667 545.5 281 580.5 c 128
 260.333333333 615.5 250 658.666666667 250 710 c 0
 250 796.666666667 280.166666667 863.333333333 340.5 910 c 128
 400.833333333 956.666666667 484 980 590 980 c 0
 668 980 737 953.666666667 797 901 c 1
 799.666666667 917.666666667 807.5 931.666666667 820.5 943 c 128
 833.5 954.333333333 848.666666667 960 866 960 c 0
 885.333333333 960 901.833333333 953.166666667 915.5 939.5 c 128
 929.166666667 925.833333333 936 909.333333333 936 890 c 2
 935 691 l 2
 935 671.666666667 928.166666667 655.166666667 914.5 641.5 c 128
 900.833333333 627.833333333 884.333333333 621 865 621 c 128
 845.666666667 621 829.166666667 627.833333333 815.5 641.5 c 128
 801.833333333 655.166666667 795 671.666666667 795 691 c 2
 795 722 l 1
EndSplineSet
Validated: 1048577
Layer: 2
SplineSet
795 722 m 5
 754.266601562 771.415039062 677.520626431 840 590 840 c 135
 486 840 390 813.019415646 390 710 c 135
 390 489.270507812 950 685.713867188 950 280 c 135
 950 148.997070312 869 -20 600 -20 c 132
 475.507843342 -20 418.366210938 25.0068359375 360 83 c 5
 360 70 l 5
 360 31 329 0 290 0 c 4
 251 0 220 31 220 70 c 5
 220 370 l 5
 220 409 251 440 290 440 c 4
 329 440 360 409 360 370 c 5
 360 277 l 5
 387.33984375 183.817382812 494.420228402 120 600 120 c 135
 729 120 810 171.981445312 810 280 c 135
 810 545.798828125 250 328.224609375 250 710 c 135
 250 885.00285712 380.940199943 980 590 980 c 135
 679.387723044 980 747.389648438 944.362304688 797 901 c 5
 802.193359375 934.670898438 830.747327321 960 866 960 c 4
 905 960 936 929 936 890 c 5
 935 691 l 5
 935 652 904 621 865 621 c 4
 826 621 795 652 795 691 c 5
 795 722 l 5
EndSplineSet
EndChar

